<?xml version="1.0" encoding="UTF-8"?>
<!DOCTYPE svg PUBLIC "-//W3C//DTD SVG 1.1//EN" "http://www.w3.org/Graphics/SVG/1.1/DTD/svg11.dtd">
<!-- Creator: CorelDRAW 2021 (64-Bit) -->
<svg xmlns="http://www.w3.org/2000/svg" xml:space="preserve" width="8.26772in" height="11.6929in" version="1.1" style="shape-rendering:geometricPrecision; text-rendering:geometricPrecision; image-rendering:optimizeQuality; fill-rule:evenodd; clip-rule:evenodd"
viewBox="0 0 8267.72 11692.91"
 xmlns:xlink="http://www.w3.org/1999/xlink"
 xmlns:xodm="http://www.corel.com/coreldraw/odm/2003">
 <defs>
  <style type="text/css">
   <![CDATA[
    .fil0 {fill:white}
   ]]>
  </style>
 </defs>
 <g id="Layer_x0020_1">
  <metadata id="CorelCorpID_0Corel-Layer"/>
  <path class="fil0" d="M2304.2 4261.8l0.34 2718.96c0.58,561.52 96.45,1008.06 486.06,1432.44 715.36,779.22 1955.44,780.33 2673.46,0.24 551.76,-599.45 483.95,-1218.87 483.1,-1939.05l10.38 -2028.54c5.35,-185.15 -44.82,-432.5 -277.62,-432.5 -385.82,0 -253.15,624.59 -265.33,911.13 -14.58,342.96 -2.1,936.46 -2.64,1274.5l2.61 839.89c-1.57,404.58 -57.76,710.96 -340.69,1016.92 -550.14,594.92 -1510.05,540.17 -1984.73,-111.84 -317.88,-436.64 -244.11,-845.23 -245.13,-1356.36l-4.94 -2376.21c0.81,-274.96 18.52,-496.43 210.61,-708.2 174.42,-192.27 376.92,-280.06 637.52,-279.65 256.07,0.41 456.14,96.76 624.29,286.48 197.54,222.89 211.05,456.29 209.38,742.29l0.54 2698.83c0.54,295.49 -53.13,578.62 -420.28,556.24 -367.91,-22.42 -369.71,-358.55 -367.1,-645.97l-0.9 -1473.53c-0.5,-233.57 83.96,-664.6 -113.5,-803.03 -164.29,-115.17 -428.44,-19.39 -413.85,355.94 4.08,105.04 18.28,366.44 14.32,455.03 -13.65,305.91 -0.24,804.8 -2.03,1134.8 -2.55,471.37 -73.55,891.03 242.22,1220.86 195.8,204.52 431.35,303.8 716.41,290 271.1,-13.12 504.42,-136.72 672.68,-348.26 271.09,-340.82 202.45,-850.33 203.81,-1267.67l2.7 -2147.34c-0.35,-438.41 -50.45,-788.91 -354.37,-1125.19 -278.23,-307.83 -598.41,-450.91 -1012.89,-457.56 -394.49,-6.33 -760.93,153.22 -1025.02,446.24 -305.31,338.75 -360.15,677.54 -359.41,1120.13z"/>
 </g>
</svg>
