<?xml version="1.0" encoding="UTF-8"?>
<!DOCTYPE svg PUBLIC "-//W3C//DTD SVG 1.1//EN" "http://www.w3.org/Graphics/SVG/1.1/DTD/svg11.dtd">
<!-- Creator: CorelDRAW 2021 (64-Bit) -->
<svg xmlns="http://www.w3.org/2000/svg" xml:space="preserve" width="8.5in" height="11in" version="1.1" style="shape-rendering:geometricPrecision; text-rendering:geometricPrecision; image-rendering:optimizeQuality; fill-rule:evenodd; clip-rule:evenodd"
viewBox="0 0 8500 11000"
 xmlns:xlink="http://www.w3.org/1999/xlink"
 xmlns:xodm="http://www.corel.com/coreldraw/odm/2003">
 <defs>
  <style type="text/css">
   <![CDATA[
    .fil0 {fill:#17285E}
   ]]>
  </style>
 </defs>
 <g id="Layer_x0020_1">
  <metadata id="CorelCorpID_0Corel-Layer"/>
  <path class="fil0" d="M5139.96 4982.07c-7.46,-23.68 20.5,-163.56 31.15,-191.07 17.93,-46.3 51.15,-101.33 86.75,-135.48 45.12,-43.29 66.13,-67.55 122.59,-99.64 142.89,-81.21 373.83,-62.22 495.79,64.91 43.28,45.12 67.55,66.13 99.63,122.59 40.39,71.07 30.6,102.51 49.39,173.08 9.15,34.38 -13.74,151.55 -27.56,187.24 -37.13,95.92 -122.82,185.94 -209.33,235.11 -71.06,40.39 -102.51,30.6 -173.08,49.39 -71.67,19.08 -244.48,-32.74 -322.71,-114.3 -124.77,-130.07 -102.88,-133.85 -152.61,-291.83l-0.02 0zm-1333.33 0c-7.46,-23.68 20.5,-163.56 31.15,-191.07 37.13,-95.92 122.82,-185.94 209.33,-235.11 71.06,-40.39 102.51,-30.6 173.07,-49.39 71.67,-19.08 244.48,32.74 322.71,114.3 145.93,152.12 109.72,148.04 149.02,295.67 19.08,71.67 -32.74,244.48 -114.3,322.71 -152.12,145.93 -148.04,109.72 -295.67,149.02 -34.39,9.15 -151.55,-13.74 -187.24,-27.56 -46.3,-17.92 -101.33,-51.15 -135.48,-86.74 -124.77,-130.07 -102.88,-133.85 -152.62,-291.83l0.03 0zm-1333.33 0c-7.46,-23.68 20.5,-163.56 31.15,-191.07 37.13,-95.92 122.82,-185.94 209.33,-235.11 71.06,-40.39 102.51,-30.6 173.08,-49.39 34.38,-9.15 151.55,13.74 187.24,27.56 46.3,17.92 101.33,51.15 135.48,86.74 145.93,152.12 109.72,148.04 149.02,295.67 19.08,71.67 -32.75,244.48 -114.3,322.71 -152.11,145.93 -148.04,109.72 -295.67,149.02 -34.38,9.15 -151.55,-13.74 -187.24,-27.56 -46.3,-17.92 -101.33,-51.15 -135.48,-86.74 -124.77,-130.07 -102.88,-133.85 -152.61,-291.83l0 0zm0 2298.61l0 1111.11c126.31,-64.27 303.25,-202.36 429.15,-286.13 142.94,-95.11 281.7,-196.02 426.56,-288.71 214.45,-137.22 418.66,-288.47 635.98,-433.46 113.79,-75.92 114.16,-105.04 258.41,-102.7 693.79,11.25 1441.63,-0.1 2145.74,-0.1 115.91,0 649.11,6.21 714.28,-1 89.13,-9.86 163.76,-68.64 217.8,-136.37 70.28,-88.11 63.26,-192.5 62.09,-299.02 -12.97,-1183.9 10.49,-2393.06 -1.24,-3577.38 -2.08,-210.46 52.12,-442.34 -128.04,-587.24 -123.93,-99.68 -483.5,-66.12 -649.61,-65.67l-4291.68 0.01c-238.24,0 -479.22,3.72 -717.1,-1.22 -513.42,-10.66 -432.1,314.63 -435.33,633.52 -8.32,821.6 -0.34,1683.12 -0.34,2506.6 0,238.43 -0.04,476.85 0.01,715.27 0.06,330.93 -79.77,725.31 259.96,809.48 38.5,9.54 985.86,3.02 1073.37,3.03l-0.01 -0.02z"/>
 </g>
</svg>
