<?xml version="1.0" encoding="UTF-8"?>
<!DOCTYPE svg PUBLIC "-//W3C//DTD SVG 1.1//EN" "http://www.w3.org/Graphics/SVG/1.1/DTD/svg11.dtd">
<!-- Creator: CorelDRAW 2021 (64-Bit) -->
<svg xmlns="http://www.w3.org/2000/svg" xml:space="preserve" width="8.26772in" height="11.6929in" version="1.1" style="shape-rendering:geometricPrecision; text-rendering:geometricPrecision; image-rendering:optimizeQuality; fill-rule:evenodd; clip-rule:evenodd"
viewBox="0 0 8267.72 11692.91"
 xmlns:xlink="http://www.w3.org/1999/xlink"
 xmlns:xodm="http://www.corel.com/coreldraw/odm/2003">
 <defs>
  <style type="text/css">
   <![CDATA[
    .fil0 {fill:#030980}
   ]]>
  </style>
 </defs>
 <g id="Layer_x0020_1">
  <metadata id="CorelCorpID_0Corel-Layer"/>
  <g id="_1930692863040">
   <g id="_2263698271328">
    <path class="fil0" d="M1199.1 8778.74l4888.89 0 0 -3819.44c-17.82,6.45 -23.56,16.1 -34.83,27.67l-1944.33 1944.56c-19.47,19.46 -53.61,44.89 -62.5,69.44l-1069.44 0 0 -1069.44c21.54,-7.8 48.44,-41.56 65.94,-59.06l1944.5 -1944.39c9.11,-8.89 11.84,-10.53 17.55,-17.17 15.86,-18.44 4.95,3.04 13.67,-21.05l-3819.44 0 0 4888.89 -0.01 -0.01z"/>
    <path class="fil0" d="M3421.32 6112.07l0 444.44 444.44 0c6.13,-16.95 4.69,-11.31 17.07,-24.59l312.75 -312.24c114.3,-114.3 224.26,-224.14 336.83,-336.78 223.66,-223.77 444.76,-444.69 670.17,-670.11l1003.44 -1003.5c55.57,-55.54 111.1,-111.13 166.67,-166.67l135.39 -135.44c3.3,-3.39 9.92,-10.45 10.15,-10.68l28.07 -34.43c-17.54,-6.35 -28.78,-21.54 -41.69,-34.7l-284.7 -284.75c-17.71,-17.7 -32.71,-32.66 -52.12,-52.05 -17.02,-17.01 -44.35,-37.8 -52.05,-59.06l-13.89 0c-10.41,28.76 -312.83,319.84 -329.83,336.84l-2010.44 2010.39c-55.57,55.54 -111.1,111.12 -166.67,166.67 -14.63,14.63 -149.35,157.89 -173.61,166.67l0.02 -0z"/>
    <path class="fil0" d="M6282.43 3250.97l0 13.89c17.54,6.35 28.77,21.54 41.69,34.7l336.81 336.8c17.02,17.01 44.35,37.8 52.05,59.06l13.89 0c11.28,-31.16 175.21,-182.22 204.83,-211.84l70.61 -75.22c0.79,-1.33 1.62,-3.22 2.4,-4.55 0.78,-1.33 1.63,-3.2 2.42,-4.52l23.22 -32.33c0.79,-1.3 1.8,-3.06 2.54,-4.41l18.79 -50.66c14.85,-41.84 15.34,-134.15 0,-177.37 -13.27,-37.37 -8.13,-38.06 -33.11,-71.06 -37.35,-49.35 -48.76,-76.61 -124.57,-118.48 -71.48,-39.48 -174.02,-37.81 -254.42,-10.44l-15.02 5.81c-1.47,0.67 -3.27,1.53 -4.7,2.24l-316.38 294.73c-18.44,15.86 3.04,4.96 -21.05,13.67l0 -0.02z"/>
   </g>
  </g>
 </g>
</svg>
