<?xml version="1.0" encoding="UTF-8"?>
<!DOCTYPE svg PUBLIC "-//W3C//DTD SVG 1.1//EN" "http://www.w3.org/Graphics/SVG/1.1/DTD/svg11.dtd">
<!-- Creator: CorelDRAW 2021 (64-Bit) -->
<svg xmlns="http://www.w3.org/2000/svg" xml:space="preserve" width="8.5in" height="11in" version="1.1" style="shape-rendering:geometricPrecision; text-rendering:geometricPrecision; image-rendering:optimizeQuality; fill-rule:evenodd; clip-rule:evenodd"
viewBox="0 0 8500 11000"
 xmlns:xlink="http://www.w3.org/1999/xlink"
 xmlns:xodm="http://www.corel.com/coreldraw/odm/2003">
 <defs>
  <style type="text/css">
   <![CDATA[
    .fil0 {fill:#030980}
   ]]>
  </style>
 </defs>
 <g id="Layer_x0020_1">
  <metadata id="CorelCorpID_0Corel-Layer"/>
  <g id="_2849381778208">
   <path class="fil0" d="M2916.66 5576.57c-21.15,-145.81 46.55,-426.82 98.77,-567.9 106.66,-288.14 356.95,-562.04 636.94,-696.39 196.05,-94.07 314.7,-111.22 526.09,-140.37 166.52,-22.96 405.3,34.46 562.98,93.76 293.91,110.54 560.49,353.64 696.45,636.89 96.68,201.41 110.15,309.35 140.36,526.09 21.37,153.31 -35.75,417.16 -93.7,563.04 -120.75,303.97 -343.91,546.87 -636.8,696.54 -182.37,93.19 -328.08,112.89 -526.24,140.22 -164.58,22.7 -406.7,-35.83 -563.04,-93.7 -288.2,-106.68 -561.98,-356.92 -696.39,-636.94 -82.59,-172.06 -118.24,-333.81 -145.44,-521.23zm1069.44 -2291.67c-709.26,67.35 -1397.08,374.93 -1928.4,849.37 -294.48,262.96 -748.99,773.59 -970.06,1113.03 -132.28,203.11 -232.67,194.61 -69.59,423.15 48.28,67.66 89.3,139.09 138.37,208.02 330.21,463.89 700.06,932.32 1183.5,1247.06 665.68,433.38 1372.43,656.82 2174.64,590.89 677.98,-55.71 1441.53,-371.2 1948.38,-829.68 244,-220.72 468.28,-456.94 668.86,-720.03 97.04,-127.27 206.66,-268.46 290.19,-404 124.64,-202.26 221.11,-214.39 59.24,-432.37 -98.38,-132.48 -182.05,-273.69 -285.83,-407.52 -307.57,-396.67 -619.59,-754.33 -1043.73,-1039.61 -632.5,-425.43 -1398.13,-671.19 -2165.57,-598.31z"/>
   <path class="fil0" d="M4111.1 4618.24c-146.48,31.61 -194.47,46.95 -324.81,119.63 -69.31,38.65 -188.7,145.14 -235.92,208.52 -70.22,94.26 -119.75,176.06 -154.66,289.79 -32.81,106.89 -50.13,295.89 -28.46,403.68 43.07,214.28 148.14,425.25 328.95,559.94 87.02,64.82 185.41,123.65 289.96,154.48 264.09,77.88 497.7,36.36 727.53,-91.8 174.83,-97.5 331.68,-306.42 390.58,-498.31 79.4,-258.69 33.36,-502.94 -91.97,-727.7 -97.5,-174.83 -306.42,-331.68 -498.31,-390.58 -106.15,-32.58 -296.34,-50.66 -402.89,-27.67z"/>
  </g>
 </g>
</svg>
