<?xml version="1.0" encoding="UTF-8"?>
<!DOCTYPE svg PUBLIC "-//W3C//DTD SVG 1.1//EN" "http://www.w3.org/Graphics/SVG/1.1/DTD/svg11.dtd">
<!-- Creator: CorelDRAW 2021 (64-Bit) -->
<svg xmlns="http://www.w3.org/2000/svg" xml:space="preserve" width="8.5in" height="11in" version="1.1" style="shape-rendering:geometricPrecision; text-rendering:geometricPrecision; image-rendering:optimizeQuality; fill-rule:evenodd; clip-rule:evenodd"
viewBox="0 0 8500 11000"
 xmlns:xlink="http://www.w3.org/1999/xlink"
 xmlns:xodm="http://www.corel.com/coreldraw/odm/2003">
 <defs>
  <style type="text/css">
   <![CDATA[
    .fil1 {fill:#EBF0F3;fill-rule:nonzero}
    .fil2 {fill:#F0C419;fill-rule:nonzero}
    .fil0 {fill:#FFD06B;fill-rule:nonzero}
   ]]>
  </style>
 </defs>
 <g id="Layer_x0020_1">
  <metadata id="CorelCorpID_0Corel-Layer"/>
  <g id="_2752662140096">
   <path class="fil0" d="M718.62 2329.7l1932.84 0c126.59,0 243.51,67.62 306.68,177.31l318.12 434.58c63.17,109.69 180.11,177.31 306.68,177.31l4707.97 -0 0 4961.62c0,260.58 -211.26,471.83 -471.83,471.83l-7138.16 0c-260.58,0 -471.83,-211.26 -471.83,-471.83l0 -4411.22c0,-364.72 56.35,-727.26 167.06,-1074.77l0 0c40.56,-155.96 181.35,-264.83 342.49,-264.83z"/>
   <g>
    <rect class="fil1" x="944.53" y="3037.73" width="6212.24" height="2624.23"/>
    <path class="fil2" d="M7937.05 2565.62l-1947.77 0c-138.52,0 -264.31,80.82 -321.86,206.8l-333.31 729.45c-57.57,125.98 -183.35,206.8 -321.86,206.8l-4803.17 0 0 4489.78c0,260.58 211.25,471.83 471.83,471.83l7138.18 -0c260.58,0 471.83,-211.26 471.83,-471.83l0 -5278.96c0,-195.43 -158.45,-353.87 -353.87,-353.87z"/>
   </g>
  </g>
 </g>
</svg>
