<?xml version="1.0" encoding="UTF-8"?>
<!DOCTYPE svg PUBLIC "-//W3C//DTD SVG 1.1//EN" "http://www.w3.org/Graphics/SVG/1.1/DTD/svg11.dtd">
<!-- Creator: CorelDRAW 2021 (64-Bit) -->
<svg xmlns="http://www.w3.org/2000/svg" xml:space="preserve" width="8.26772in" height="11.6929in" version="1.1" style="shape-rendering:geometricPrecision; text-rendering:geometricPrecision; image-rendering:optimizeQuality; fill-rule:evenodd; clip-rule:evenodd"
viewBox="0 0 8267.72 11692.91"
 xmlns:xlink="http://www.w3.org/1999/xlink"
 xmlns:xodm="http://www.corel.com/coreldraw/odm/2003">
 <defs>
  <style type="text/css">
   <![CDATA[
    .fil0 {fill:white}
   ]]>
  </style>
 </defs>
 <g id="Layer_x0020_1">
  <metadata id="CorelCorpID_0Corel-Layer"/>
  <g id="_2906586820416">
   <path class="fil0" d="M1206.94 6226.41c88.42,23.71 34.71,-30.04 58.39,58.43l0 116.85c-95.32,-40.04 -58.67,-22.21 -58.39,-175.28zm-758.97 -1074.67l0 -334.8c17.92,-197.77 58.38,-361.43 58.38,-430.7 77.24,54.45 36.2,-1.49 65.52,131.41l-7.32 206.33c-16.28,43.54 -44.88,-17.31 -33.72,78.52l92.3 35.44 58.37 395.27c0,-117.83 -17.77,-257.34 11.69,-368.05 1.97,-7.45 5.25,-14.52 7.54,-21.68l184.56 -545.6c103.85,-250.6 80.5,-205.34 146.52,-232.37 205.2,-14.18 159.44,75.12 103.44,212.64 -17.75,43.6 -10.27,25.5 -23.19,63.74 -2.4,7.11 -4.32,15.47 -6.64,22.51 -51.85,157.74 -85.69,71.93 -15.22,167.88l0 116.7c-27.08,98.14 15.17,49.68 -58.39,29.35 -61.18,-171.37 -62.83,24.78 -145.24,-88.85 -27.39,136.4 -54.93,103.72 -75.47,210.97 -30.17,157.74 30.24,81.17 -61.37,228.28 44.4,8.18 34.2,-29.58 165.33,58.28 0.5,167.25 -15.37,96.7 -38.09,164.83 -39.26,117.76 -20.3,537.78 -20.3,682.46l173.48 -849.59c23.3,-68.25 12.4,-71.15 60.07,-103.7l129.46 1.39c33.98,306.19 10.25,112.88 -2.83,279.96l2.32 60.1c-7,134.29 12.47,-85.65 -6.81,50.63 -3.39,23.93 -16.11,6.43 -7.2,48.76l60.22 -42.41c-73.61,296.57 -161.63,447.44 -116.77,788.56 23.69,88.47 -30.02,34.71 58.38,58.41l109.8 -591.21c2.43,-7.17 4.46,-15.14 6.86,-22.34 42.15,-127.09 69.19,-320.34 175.26,-393.82l91.46 -0.78c-26.19,110.78 -77.77,105.31 -51.09,199.51 57.76,204.03 82.82,174.32 134.77,195.06 0.7,226.29 -54.65,68.1 -120.43,405.44 -22.84,117.12 -167.67,640.31 62.05,733.94 0,-107.3 0.58,-214.61 -0.59,-321.91 -2.09,-191.39 78.71,-542.52 197.22,-691.22l36.75 -38.47c46.55,233.79 -21.59,139.7 -17.56,318.85 1.47,65.05 19,125.76 28.75,206.86 17.67,147.04 -23.86,21.54 47.35,159.05 0,61.28 6.84,127.32 -6.15,187.19 -30.85,142.33 -13.56,-8.03 -42.11,106.16 -48.69,194.7 30.62,36.68 48.26,241.49 -2.83,1.56 -50.46,31.42 -54.85,36.04l-61.92 87.94c-76.48,-132.12 -106.19,-77.62 -121.77,-228.52 -113.57,35.76 6.81,12.64 -106.75,48.41 -45.41,-85.84 -257.29,-278.39 -340.86,-360 -40.32,-39.36 -55.61,-47.06 -87.29,-87.92 -68.58,-88.42 -18.3,-38.55 -64.27,-110.94 -58.57,-92.3 -116.57,-94.31 -154.8,-195.63 -96.78,-41.02 -21.43,15.09 -154.89,-253.96 -120.18,-242.3 -132.89,-84.18 -137.02,-271.85 -100.59,-42.65 -17.41,33.22 -80.9,-94.3 -53.39,-107.22 -81.66,-222.76 -94.25,-337.72zm467.07 957.83c24.51,-86.3 -30.04,-37.94 53.37,-53.41 -12.07,65.12 9.04,29.31 -53.37,53.41zm-291.92 -525.81c-0.28,-153.07 -36.93,-135.22 58.37,-175.26l0 116.83c-24.52,91.62 20.16,27.87 -58.37,58.43z"/>
   <path class="fil0" d="M7629.06 6051.15c-24.51,86.3 30.04,37.94 -53.37,53.43 12.06,-65.13 -9.04,-29.33 53.37,-53.43zm-291.92 49.7l0 -400.22 58.39 0c0,222.41 41.45,626.61 -26.81,817.91l8.99 133.05c76.26,-25.06 117.19,-151.15 119.45,-154.63 -2.68,93.2 -10.88,136.24 -5.73,239.27l79.24 -13.07c7.96,-218.11 58.37,116.8 58.37,-379.89l58.38 0c0,564.16 -42.87,163.8 -57.93,555.47l-155.01 516.75c-49.29,107.99 -126.69,196.2 -137.36,329.8 65.5,41.15 28.42,57.31 76.3,154.86 130.65,-52.4 -8.23,7.82 84.03,-53.14 32.34,-21.37 20.72,-23.32 73.22,-48.31 58.28,-138.55 52.48,-59.69 123.93,-279.78 2.33,-7.19 4.83,-14.85 7.22,-21.99l44.04 -160.41c41.88,-224.13 62.05,-92.26 58.94,-379.21 -3.07,-281.27 39.96,-420.1 -36.47,-636.57l-58.38 -175.27c-2.95,-5.94 -6.69,-13.61 -10.02,-19.19 -51.82,-86.96 26.91,-33.67 -70.88,-75.12 -3.76,-170.53 -22.45,-59.2 -117.8,-232.65 -115.83,-210.7 -48.7,-160.01 -290.87,-380.65l-47.28 85.52c-41.92,120.17 11.87,249.37 20.29,326.03 18.1,165.11 -90.98,169.14 77.7,306.1l66.04 -54.65z"/>
   <path class="fil0" d="M5091.91 8857.95c109.35,-129.47 319.49,-292.31 403.83,-413.79 81.98,-118.08 -33.32,-20.39 178.61,-230.25 54.32,-53.77 54.72,-53.66 88.83,-115.58l55.99 -177.65c-239.57,-5.3 -105.35,-169.33 -350.3,-175.28 -3.81,173.53 -114.24,168.23 -202.01,294.45 -103.28,148.54 31.13,25.24 -222.2,274.25l-101.55 132.16c-71.39,119.95 -203.8,168.13 -15.62,307.54 74.66,55.31 105.51,42.91 164.4,104.15z"/>
   <path class="fil0" d="M3308.73 2779.46c140.67,3.11 182.98,92.46 262.72,175.26 51.72,-53.7 128.76,-121.87 190.98,-188.63 101.14,-108.54 134.52,-253.53 541.31,-597.57 -331.38,-320.24 -201.05,-327.48 -805.19,275.09 -42.33,42.21 -100.56,90.89 -134.18,128.63 -81.86,91.9 -55.65,39.02 -55.65,207.21z"/>
   <path class="fil0" d="M2024.3 3334.48c75.12,72.42 190.35,187.73 262.72,262.9 50.91,-52.88 135.37,-118.01 184.04,-195.58 129.36,-206.15 77.89,-125.9 269.36,-314.67 140.12,-138.15 60.05,-115.59 172.8,-236.06 33.14,-35.39 71.21,-68.81 106.09,-98.32 -134.64,-130.12 -167.1,-223.97 -288.89,-205.3 -74.38,11.39 -37.02,5.68 -80.59,38.57 -91.83,69.29 -79.51,132.67 -157.56,223.57 -69.06,80.44 -183.43,163.11 -248.89,247.52 -76.28,98.35 -11.58,47.46 -87.84,145.8 -32.41,41.78 -104.09,105.39 -131.25,131.58z"/>
   <path class="fil0" d="M5527.28 9147.57c84,-30.46 28.39,-1.69 103.39,-71.79 35.31,-33 69.82,-72.49 101.07,-103.35 23.22,-22.94 69.29,-64.65 88.35,-86.85 84.36,-98.22 24.72,-42.15 77.79,-126.66 0.23,-0.37 329.99,-371.81 329.99,-429.28 -37.21,-102.76 12.87,-5.45 -57.35,-88.7 -263.35,-312.22 -220.41,-71.59 -379.31,89.91 -45.43,46.15 -120.6,106.69 -161.63,159.6 -79.78,102.86 -11.83,64.98 -115.66,176.35 -215.67,231.34 -290.23,194.79 -166.42,335.74 6.24,7.11 65.05,63.54 76.06,73.45 77.32,69.57 17.52,40.33 103.72,71.57z"/>
   <path class="fil0" d="M4415.5 9816.93c169.33,163.64 258.65,265.27 397.82,135.19l436.5 -439.54c87.59,-113.09 22.34,-97.31 163.19,-216.45 -154.38,-149.18 -159.6,-217.51 -255.32,-197.14 -47.56,10.12 -31.13,10.83 -69.22,44.63 -158.7,140.85 -443.27,479.04 -672.97,673.31z"/>
   <path class="fil0" d="M2839.17 2397.22c309.97,299.54 306.21,307.6 617.85,-141.23 46.57,-67.07 308.03,-319 379.66,-379.57 -180.3,-174.22 -188.74,-273.02 -324.54,-152.51 -158.7,140.83 -443.27,479.02 -672.97,673.32z"/>
   <path class="fil0" d="M4885.07 10374.45c135.48,-3 123.72,-44.53 204.03,-117.15 104.22,-94.25 77.29,-23.55 191.28,-129.92 427.19,-398.57 341.92,-321.05 98.44,-573.36 -121.41,158.99 -512.99,495.42 -571.46,572.25 -30.39,39.93 -18.28,-3.35 -29.81,53.56 -28.48,140.62 -25.14,13.1 60.08,122.98 37.23,48.01 23.67,5.96 47.45,71.64z"/>
   <path class="fil0" d="M2666.52 1932.33c56.49,54.45 149.93,147.96 204.35,204.48 93.6,-97.23 222.89,-233.08 334.46,-337.16 66.86,-62.39 217.78,-123.66 295.25,-230.36 44.68,-61.54 37.81,26.41 41.69,-133.55 -210.39,-4.65 -114.9,-135.15 -252.93,-106.9 -68.52,14.03 -8.8,-4.07 -53.49,29.81l-569.31 573.69z"/>
   <path class="fil0" d="M4365.57 9089.14c-25.04,70.12 -137.07,159.7 -196.63,218.14 -92.44,90.72 -147.28,166.85 -159.61,278.46 79.41,76.56 42.48,42.66 136.16,97.43 60.68,35.47 71.91,47.81 124.06,109.56 29.54,-30.63 64.5,-63.28 105.79,-104 138.27,-136.44 58.93,-112.38 172.8,-235.25 37.08,-40 68.99,-68.76 103.41,-107.25 -49.85,-116.65 48.82,-108.54 52.42,-260.07 -0.07,-0.05 -82.62,-106.22 -191.81,-52.55 -52.02,25.56 -68.58,107.83 -69.37,120.6l-77.21 -65.07z"/>
   <path class="fil0" d="M2987.48 3071.57c79.97,17.27 130.92,38.64 277.8,10.46 4.77,-0.91 12.45,-3.03 17.3,-4.14l90.97 -25.41c-46.6,60.43 -59.64,71.43 -72.49,157.46 -182.14,99.23 -54.88,-29.76 -208.45,116.36 -136.84,130.22 -36.33,18.04 -65.93,223.5 -98.54,60.75 -88.57,17.37 -178.03,89.17 -159.28,127.8 98.27,-48.82 -52.91,48.39 -94.66,-33.58 -5.15,22.91 -108.64,-48.65 -83.37,-57.67 -20.95,30.74 -70.72,-86.3l167.46 -43.16c-13.04,-91.24 9.07,-125.73 -117.33,-116.21 -132.77,129.44 44.09,24.31 -233.52,291.97 36.17,34.88 83.3,82.43 131.24,131.56 28.93,29.66 48.59,53.54 72.15,73.85 59.01,50.84 93.2,117.83 186.3,-19.93 49.42,-73.15 -8.61,-28.33 76.46,-127.96 152.69,-178.78 76.83,-16.54 254.74,-300.12 27.69,-44.15 62.48,-75.91 95.99,-108.41 190.5,-184.77 274.51,-233.94 30.7,-438.76 -65.88,-55.35 -53.17,-97.61 -161.67,-13.5 -171.5,132.95 -138.57,143.93 -131.43,189.82z"/>
   <path class="fil0" d="M6578.17 6114.04c172.63,56.82 -32.96,18.61 81.33,95.67 8.58,5.78 -4.6,96.25 115.41,-17.16l77.45 -94.86c39.86,-40.37 12.39,1.87 58.08,-88.72l18.17 42.17c7.07,-5.58 14.61,-25.69 16.93,-21.1l56.95 -169.4c59.09,-213.65 42.74,-103.79 42.74,-376.05 -86.68,-34.63 -91.57,-56.92 -94.05,56.66 -40.24,-155.14 -103.19,-141.68 -116.01,-264.43 -15.27,-146.37 62.15,-144.08 -81.86,-248.23 0,389.88 26.17,594.19 -137.89,942.68 -39.15,83.17 -34.03,-12.27 -37.26,142.77z"/>
   <path class="fil0" d="M7045.24 7307.39l95.01 65.42c100.44,-60.4 25.62,-5.63 92.21,-75.55 -8.41,138.65 0.03,142.92 104.68,214.61 -0.2,-122.45 233.54,-480.96 233.54,-788.71l-79.24 13.07c-5.15,-103.03 3.05,-146.07 5.73,-239.27 -2.27,3.48 -43.19,129.57 -119.45,154.63l-8.99 -133.05c-53.82,45.85 -24.44,122.04 -51.62,213.1l-271.86 575.76z"/>
   <path class="fil0" d="M7103.61 5396.97c0,343.01 33.54,642.83 -137.89,985.34 -35.24,70.42 -32.35,-37.44 -37.26,112.07 124.61,116.22 -26.98,-11.73 58.38,151.94 140.34,13.08 46.75,26.33 156.43,-29.66 116.46,-59.47 22.39,-137.62 95.13,-39.71 47.94,-54.55 98.74,-331.96 98.74,-476.11l-66.04 54.65c-168.69,-136.96 -59.6,-140.98 -77.7,-306.1 -8.41,-76.66 -62.2,-205.87 -20.29,-326.03l47.28 -85.52c-1.84,-151.1 2.81,-41.62 -58.25,-87.78l10.47 84 -68.99 -37.1z"/>
   <path class="fil0" d="M2666.52 3393.06c126.41,-9.52 104.3,24.97 117.33,116.21l-167.46 43.16c49.76,117.04 -12.65,28.63 70.72,86.3 103.49,71.56 13.98,15.07 108.64,48.65 151.19,-97.21 -106.37,79.41 52.91,-48.39 89.46,-71.79 79.49,-28.42 178.03,-89.17 29.59,-205.47 -70.91,-93.29 65.93,-223.5 153.57,-146.12 26.31,-17.13 208.45,-116.36 12.85,-86.03 25.89,-97.03 72.49,-157.46l-90.97 25.41c-4.85,1.11 -12.54,3.23 -17.3,4.14 -146.88,28.17 -197.82,6.81 -277.8,-10.46 -144.74,27.67 -113.64,77.06 -177.83,173.01 -36.71,54.87 -104.35,100.44 -143.13,148.47z"/>
   <path class="fil0" d="M5206.17 7862.26c105.28,-109.35 57.67,-85.02 145.98,-204.46 42.76,-57.81 125.43,-86.26 -18.96,-185.55 -291.89,-200.72 -235.31,-150.17 -362.93,-21.35 -128.59,129.82 -130.28,218.82 73.02,369.89 79.01,58.71 14.36,41.47 162.89,41.47z"/>
   <path class="fil0" d="M1655.31 4882.69c166.45,212.76 -42.33,533.5 77.09,585.08 133.48,-58.74 -12.32,33.72 92.23,-113.09 73.55,-103.28 137.75,-147.26 141.3,-287.45 -23.95,-30.57 -36.6,-9.72 -40.99,-153.54 -1.63,-53.39 4.83,-122.22 6.37,-177.24 2.58,-93.02 13.12,-220.33 -23.76,-286.78 -75.45,62.47 -212.3,334.36 -252.24,433.02z"/>
   <path class="fil0" d="M4476.39 8066.74c36.17,34.88 83.3,82.43 131.24,131.58 28.93,29.66 48.59,53.54 72.16,73.84 91.52,78.85 112.43,98.98 322.97,-146.07 63.99,-74.46 103.03,-89.26 -2.32,-174.8l-75.2 -41.6c-200.44,-120.4 -9.34,-105.85 -273.7,-105.85 -3.09,140.7 -92.46,183.18 -175.15,262.9z"/>
   <path class="fil0" d="M3483.88 3889.5c154.73,-3.76 218.59,-108.26 271.91,-253.71 20.45,-55.84 7.78,42.89 19.99,-67.62 -18.94,-18.28 0.33,-9.61 -44.1,-43.49 -282.83,-215.64 -294.17,-171.35 -380.17,-60.17l-91.15 172.91c-11.48,82.09 -36.94,33 104.85,166.09 75.48,70.87 41.15,57.88 118.67,85.98z"/>
   <path class="fil0" d="M2841.67 4093.98c272.26,262.49 180.88,262.91 408.67,262.91 5.8,-262.62 370.48,-220.13 40.06,-420.1 -5.61,-3.4 -13.23,-7.24 -18.71,-10.81 -5.43,-3.56 -12.44,-8.35 -17.72,-12.12 -94.75,-67.8 -62.98,-180.15 -266.8,33.35 -47.7,49.96 -105.61,108.32 -145.51,146.78z"/>
   <path class="fil0" d="M3924.25 3483.05c106.98,-194.89 14.82,-87.24 260.22,-323.83 -112.98,-108.92 -88.85,-60.9 -172.88,-119.12 -43.46,-30.11 -110.11,-104.12 -145.72,-146.28 -249.32,270.34 -381.89,251.21 -120.36,470.83 112.15,94.17 84.2,20.07 178.74,118.41z"/>
   <path class="fil0" d="M5585.66 6648.28c49.2,52.73 29.3,-42.28 63.38,109.7 11.94,53.31 0.81,110.01 3.81,168.79 5.18,101.22 11.16,147.31 107.96,179.85 154.69,-46.44 -24.66,43.29 116.77,-149.05 54.19,-73.7 13.1,-6.37 58.37,-87.84 17.49,-31.45 27.19,-61.51 58.38,-105.89 -56.01,-25.14 -107.94,-53.96 -141.98,-69.07 -0.05,-146.1 9.32,-328.04 25.07,-468.36l-92.59 113.79c-9.57,12.41 -23.68,28.07 -38.2,48.39 -37.3,52.11 -6.37,6.87 -34.03,52.68 -22.16,36.72 -5.67,17.01 -31.52,56.51 -19.56,29.89 -13.56,17.34 -38.26,49.95 -72.07,95.19 -37.03,-33.26 -57.17,100.56z"/>
   <path class="fil0" d="M4388.82 8797.02c34.84,-36.2 82.36,-83.37 131.48,-131.33 202.97,-198.24 184.34,-124.87 -131.48,-452.89 -341.57,372.29 -367.54,202.49 0,584.22z"/>
   <path class="fil0" d="M3775.78 9001.5c133.83,129.03 109.37,45.2 262.72,204.5l205.29 -203.55c37.74,-43.87 106.2,-70.52 13.3,-161.25 -95.67,-93.44 9.79,5.66 -90.95,-55.3 -117.75,-71.26 -96.09,-165.87 -229.77,-66 -161.73,120.86 -160.59,173.01 -160.59,281.6z"/>
   <path class="fil0" d="M7045.24 7307.39c-20.72,83.45 -50.76,132.79 -87.57,206.15 -0.15,0.26 -35.24,70.12 -38.93,76.86 -29.88,54.65 -16.38,22.77 -48.64,77.02 56.44,65.12 21.22,14.95 51.5,97.66 9.92,27.11 -3.38,21.48 26.38,78.63l104.52 135.4c104.06,-51.16 11.36,19.33 71.99,-95.44l212.66 -371.81c-104.65,-71.69 -113.09,-75.96 -104.68,-214.61 -66.59,69.92 8.23,15.15 -92.21,75.55l-95.01 -65.42z"/>
   <path class="fil0" d="M6286.25 5470.02l59.8 16.89c-108.89,285.78 -78.86,189.39 33.24,439.03l82.11 -20.7 110.93 -210.32c62.37,-190.72 64.22,-131.81 64.22,-344.7l-124.44 32.71c-66.66,-115.89 -34.58,-111.82 -60.8,-172.15l-106.69 22.31c0.38,231.85 -53.32,-1.28 -58.37,236.94z"/>
   <path class="fil0" d="M3948.43 2811.17c154.69,85.04 11.24,-29.11 206.41,144 130.83,116.06 138.88,27.47 379.93,-204.93 -35,-33.74 -100.87,-108.89 -145.07,-146.94 -100.49,-86.53 -92.01,-28.33 -176.03,-115.96 -34.99,38.14 -107.36,99.27 -146.81,145.07 -86.74,100.76 -28.32,92.01 -118.43,178.76z"/>
   <path class="fil0" d="M1662.2 3071.57c13.07,117.2 30.37,80.62 -48.69,144.78 103.46,63.63 88.3,53.94 69.87,178.3 -22.59,152.49 -12.74,87.31 -9.22,202.74l350.15 -462.46 -88.93 -7.41c41.75,-146.23 66.61,-123.94 40.82,-313.86l-98.42 52.85 -0.91 -87.04c-107.5,116.07 -75.5,50.13 -154.98,193.52l-59.69 98.6z"/>
   <path class="fil0" d="M3422.99 9349.54c197.47,190.83 242.7,333.65 470.63,61.97 63.25,-75.39 114.97,-104.93 -58.39,-206.68 -139.52,-81.88 -89.24,-91.1 -157.41,-105.76 -137.28,-29.51 -158.82,169.58 -254.82,250.46z"/>
   <path class="fil0" d="M1965.93 4304.9c160.57,41.95 129.44,127.9 119.81,286.52 -2.75,45.26 -12.93,126 -13.96,161.2 -3.59,123.68 2.45,-0.8 27,130.07 5.4,-5.88 11.01,-24.76 13.15,-20.04 2.1,4.67 9.98,-15.48 12.88,-19.93 23.29,-35.52 16.07,-26.94 37.06,-56.57 35.36,-49.88 138.73,-177.17 154.5,-254.01 -63.78,-200.59 -14.41,-254.21 -30.87,-473.18l-86.05 -23.45c-31.52,30.49 -32.69,26.31 -59.27,57.56 -72.83,85.64 -13.2,10.54 -57.48,89.38 -33.39,59.4 -34.89,92.11 -116.77,122.43z"/>
   <path class="fil0" d="M4593.15 2604.19c82.77,-30.01 233.54,-190.55 233.54,-233.69 0,-43.52 -116.39,-160.76 -159.31,-193.42 -150.69,-114.62 -489.16,75.87 -177.91,355.6 77.37,69.54 17.44,40.24 103.69,71.51z"/>
   <path class="fil0" d="M564.74 4301.95l121.61 -12.98 53.54 55.71c101.45,-19.53 24.43,29.68 80.9,-81.22 61.95,-121.64 -0.71,-71.82 105.09,-277.05 51.02,-98.98 42.81,18.12 47.53,-134.09 -124.28,-28.83 -16.59,-18.88 -143.58,-1.64l37.86 -118.04 -69.43 -7.98c-101.85,23.04 -13.76,-42.13 -89.26,103.95 -74.06,143.27 -144.56,313.18 -144.26,473.34z"/>
   <path class="fil0" d="M2549.75 4522.28c-66.87,40.87 -7.58,-0.28 -45.01,50.44 -84.39,114.35 -117.72,110.63 -130.13,227.15l112.59 2.15c-40.47,126.79 -58.67,456.22 -32.79,606.48 64.34,-80.22 11.51,-29.33 57.57,-96.54 14.23,-20.77 49.52,-61.43 64.16,-82.29 13.51,-19.26 84.93,-144.38 90.54,-171.72 -66.72,-200.96 4.24,-347.46 -45.69,-541.79l-71.23 6.11z"/>
   <path class="fil0" d="M4365.57 9089.14l77.21 65.07c0.8,-12.77 17.35,-95.04 69.37,-120.6 109.19,-53.67 191.74,52.5 191.81,52.55 -3.59,151.53 -102.26,143.42 -52.42,260.07 115.91,-94.4 249.71,-247.75 350.3,-344.73 -191.43,-184.56 -302.34,-243.31 -321.12,-262.89 -248.89,258.5 -120.83,227.02 -315.15,350.53z"/>
   <path class="fil0" d="M6052.57 5934.31l-25.72 461.19c19.08,139.49 17.35,100.26 84.24,133.33 92.87,-52.63 97.84,-83.55 137.32,-164.61 40.36,-82.91 74.09,-136.21 96.2,-225.28 -131.57,34.99 -150.56,-36.5 -142.5,-160.28 8.35,-128.22 -22.04,-179.82 4.6,-267.26l-37.24 18.28c-68.4,83.65 -12.54,2.06 -59.17,87.03 -2.58,4.72 -25.44,49.14 -28.93,56.14 -19.33,38.64 -11.36,-23.55 -28.8,61.46z"/>
   <path class="fil0" d="M6227.64 6752.22c49.6,141.84 36.81,-8.94 56.42,121.85 10.27,68.55 -13.08,76.41 -20.9,147.81 72.06,75.22 35.85,2.91 53.11,136.2l86.74 15.24c87.81,-57.4 40.59,-29.71 98.34,-149.23 13.7,-28.3 22.34,-48.54 37.94,-76.18 16.55,-29.38 16.58,-21.76 38.87,-59.62 -282.38,-59.78 -3.58,-505.65 -175.15,-473.08 -29.01,57.25 -15.91,22.79 -38.92,65.04 -9.85,18.1 -39.08,76.93 -48.65,96.22 -23.52,47.4 -70.5,130.83 -87.81,175.76z"/>
   <path class="fil0" d="M1090.19 4981.01l129.46 1.39c33.98,306.19 10.25,112.88 -2.83,279.96l2.32 60.1c-7,134.29 12.47,-85.65 -6.81,50.63 -3.39,23.93 -16.11,6.43 -7.2,48.76l60.22 -42.41c4.9,-134.54 9.37,-48.46 27.54,-88.35l100.07 -191.97c26.15,-55.66 39.23,-55 47.53,-143.75 -90.14,96.65 -26.12,40.51 -103.47,57.69l15.05 -58.15c49.25,-198.83 30.59,-180.71 1.11,-368.85l-87.84 -19.94c-52.04,43.64 -86.26,129.83 -104.19,182.8 -12.92,38.24 -25.63,86.02 -34.02,111.93 -27.28,84.36 -20.37,-48.11 -36.94,120.17z"/>
   <path class="fil0" d="M2082.7 5268.46l82.52 23.15c-5.85,115.07 -25.77,218.59 -13.99,347.8 18.8,206.19 -23.72,84.58 -10,236.48 66.13,-52.3 22.65,-12.11 66.44,-78 8.58,-12.9 33.83,-64.9 40.91,-79.03 51.28,-102.23 11.48,-46.57 96.78,-135.09 -54.42,-119.8 -82.67,-80.97 -32.82,-263.75 36.42,-133.55 35.07,-180.04 25.6,-326.72l-80.29 -11.69c-57.81,38.78 -77.11,59.62 -108.52,112.81 -9.04,15.29 -37.18,76.33 -38.45,79.61 -20.06,51.7 -17.72,-5.37 -28.17,94.43z"/>
   <path class="fil0" d="M1323.71 3520.82c87.03,-48.64 19.04,-32.06 141.41,-7.78 11.33,90.42 -24.74,365.83 -24.64,366.09 114.35,-21.46 59.32,-41.62 189.61,-209.94 51.07,-66 22.52,33.22 44.07,-71.81 -3.51,-115.43 -13.37,-50.24 9.22,-202.74 18.43,-124.36 33.59,-114.67 -69.87,-178.3 79.06,-64.16 61.76,-27.57 48.69,-144.78l-300.41 387.76c-16.28,29.38 -17.62,25.7 -38.07,61.49z"/>
   <path class="fil0" d="M2549.75 4522.28l71.23 -6.11c49.93,194.33 -21.03,340.82 45.69,541.79 7.04,-5.56 14.95,-25.35 17.95,-20.07l33.15 -39.66c4.27,-5.46 9.89,-13.23 14.46,-19.13 15.17,-19.61 22.24,-34.02 52.2,-67.39 64.75,-72.12 83.83,-56.61 115.61,-155.06l-101.75 17.02 31.91 -416.79c-14.91,-89.23 8.11,-22.76 -73.61,-119.35l-206.85 284.75z"/>
   <path class="fil0" d="M3019.53 6226.41l342.71 0c-9.79,-123.17 -22.69,-274.41 27.57,-383.92l-86.73 -25.04 -354.62 0 173.96 57.5 -76.28 19.3c3.43,155.98 9.95,196.87 -26.61,332.16z"/>
   <path class="fil0" d="M3923.03 6810.64l319.82 0c0,-490.15 20.65,-271.45 -58.38,-350.53 -90.45,-90.52 88.02,-58.43 -400.13,-58.43l158.69 50.1c-91.04,49.48 -41.3,-23.22 -8.54,169.9 7.77,45.74 9.5,100.24 8.18,119.19 -4.07,57.93 29.35,-21.23 -19.64,69.77z"/>
   <path class="fil0" d="M5877.43 6226.41c-15.75,140.32 -25.12,322.26 -25.07,468.36 34.03,15.12 85.97,43.94 141.98,69.07 102.96,-51.8 25.82,-2.27 70.83,-86.3l27 -59.97c13.99,-40.46 17.06,-14.95 18.94,-88.75 -66.89,-33.07 -65.17,6.16 -84.24,-133.33l25.72 -461.19c-65.83,52.05 -22.62,12.78 -66.57,78 -0.51,0.76 -40.22,74.59 -42.46,79.01l-66.11 135.09z"/>
   <path class="fil0" d="M6403.02 4933.94c0,159.09 8.99,183.08 -58.39,299.14l106.69 -22.31c26.22,60.33 -5.86,56.26 60.8,172.15l124.44 -32.71c101.9,-15.91 35.75,0.43 58.38,-58.57l0 -292.12c-88.41,-23.7 -34.7,30.06 -58.38,-58.41l0 -58.43 -58.38 -32.36c-75.1,12.26 -87.54,43.94 -175.15,83.61z"/>
   <path class="fil0" d="M4359.62 10374.45c62.98,-22.84 27.03,-7.98 72.93,-43.85 137.32,-107.33 158.02,-141.78 160.59,-248.26 -185.71,-4.11 -226.69,-245.05 -414.78,-31.65 -74.52,84.56 -107.55,85.79 77.52,252.21 77.32,69.54 17.57,40.32 103.74,71.56z"/>
   <path class="fil0" d="M1790.78 3664.7c62.54,98.04 74.16,193.76 58.84,303.51 -7.39,52.99 -22.67,83.8 -19.39,151.22 4.83,99.66 9.7,23.5 29.53,120.59l68.8 -96.52c41.02,-55.96 139.57,-182.35 154.28,-254.01l-38.75 -52.07c-1.76,-91.38 -24.23,-172.5 38.62,-220.13 -54.55,-39.45 -108.74,-98.11 -145.96,-136.78l-77.72 98.97c-50.88,81.12 58.62,30.43 -68.23,85.21z"/>
   <path class="fil0" d="M7161.99 8057.05c30.85,57.46 -13.85,63.23 -24.89,148.42 135.96,18.86 106.07,45.39 200.04,49.52 46.02,-85.65 229.33,-252.95 233.54,-456.3 -52.5,24.99 -40.87,26.94 -73.22,48.31 -92.26,60.96 46.62,0.74 -84.03,53.14 -47.88,-97.54 -10.8,-113.7 -76.3,-154.86 -85.67,17.41 -41.09,19.59 -97.78,135.27 -4.8,9.82 -37.15,73.08 -39.58,78.28 -42.8,91.37 -18.35,-47.61 -37.79,98.22z"/>
   <path class="fil0" d="M1849.01 5700.62c46.55,233.79 -21.59,139.7 -17.56,318.85 1.47,65.05 19,125.76 28.75,206.86 17.67,147.04 -23.86,21.54 47.35,159.05 81.53,3.05 32.48,53.04 58.38,-42.11 3.3,-149.3 -0.9,-57.58 36.19,-139.16 20.83,-45.86 37.76,-82.69 80.58,-122.3 -151.88,-39.98 -84.23,-93.67 -70.25,-183.56 13.38,-85.92 6.13,-210.01 -1.41,-304.92l-103.49 -26.68c-81.1,52.45 -58.36,16.76 -58.54,133.98z"/>
   <path class="fil0" d="M5556.61 7336.45c27.82,-131.99 -55.13,-82.36 -34.44,-290.13 6.46,-64.9 29.3,-91.12 23.08,-148.07 -16.74,-153.47 -33.29,-71.66 -76.36,-58.54 -216.76,268.39 -365.33,268.9 -29.81,556.41 45.34,38.87 25.4,35.22 83.2,52.17 40.34,-75.45 46.09,-36.1 34.33,-111.83z"/>
   <path class="fil0" d="M5812.06 4765.84c229.27,-0.38 116.35,24.29 246.43,52.58 65.31,14.19 222.58,5.85 297.25,5.85l0.03 -58.43 -69.52 -0.15c-150.92,-28.3 -154.8,-41.12 -163.31,-187.93 112.28,-6.99 47.68,-43.95 162.48,33.75l-5.25 -20.93c-24.23,-78.65 8.39,-14.96 -51.22,-59.77 -91.83,-69.04 -186.13,-54.68 -293,-62.75l-111.04 38.56c0.03,103.17 16.36,58.34 11.24,137.27 -1.32,20.59 -18.58,85.89 -24.09,121.96z"/>
   <path class="fil0" d="M4405.07 5291.65l-73.96 -58.97c-13.73,-167.75 -9.79,-185.61 -50.15,-349.98l-266.65 0.88c-5.42,74.08 -14.51,156 0.46,226.75 25.62,121.19 50.31,63.4 52.93,181.33l337.36 0z"/>
   <path class="fil0" d="M1907.55 5566.64l103.49 26.68c7.54,94.91 14.79,219 1.41,304.92 -13.98,89.89 -81.63,143.58 70.25,183.56 21.83,-195.47 58.16,19.63 58.53,-205.92 -13.71,-151.9 28.8,-30.29 10,-236.48 -11.78,-129.2 8.15,-232.73 13.99,-347.8l-82.52 -23.15c-53.04,42.91 -77.16,65 -108.52,118.03 -8.63,14.57 -37.46,77.32 -38.45,79.97 -21.08,56.18 -17.16,-13.68 -28.17,100.18z"/>
   <path class="fil0" d="M6578.17 6114.04c-87.85,16.2 -34.26,-35.92 -58.39,54.25l0 54.52c88.33,15.54 17.44,124.07 43.29,241.56 18.91,85.92 5.66,72.65 63.11,96.87 111.72,47.1 12.41,36.12 127.14,-13.15 102.24,-126.03 25.24,-72.54 96.45,-225.06 52.83,-113.14 78.31,-107.59 78.85,-271.88l-18.17 -42.17c-45.69,90.59 -18.22,48.34 -58.08,88.72l-77.45 94.86c-120.02,113.41 -106.83,22.94 -115.41,17.16 -114.29,-77.06 91.3,-38.85 -81.33,-95.67z"/>
   <path class="fil0" d="M1031.8 4065.53c205.2,-14.18 159.44,75.12 103.44,212.64 -17.75,43.6 -10.27,25.5 -23.19,63.74 -2.4,7.11 -4.32,15.47 -6.64,22.51 -51.85,157.74 -85.69,71.93 -15.22,167.88 87.49,-17.77 38.77,-17.32 97.81,-134.48 6.16,-12.22 48.84,-94.38 49.8,-96.94 27.07,-72.89 25.29,-9.72 27.54,-139.03 -28.91,-21.07 0.05,3.41 47.02,-48.06 -30.22,-142.69 11.15,-111.34 -1.59,-255.67 -9.7,-109.73 -27.34,-124.87 -103.82,-144.03 -14.76,73.61 -47.38,63.76 -96.5,136.17 -5.17,7.62 -50.72,93.34 -51.57,95.51 -23.3,59.78 -24.34,-4.84 -27.07,119.77z"/>
   <path class="fil0" d="M6519.78 7276.83l117.45 5.67 -1.21 210.7 62.1 63.91 113.57 -74.74c111.98,-109.19 15.06,-6.54 69.77,-106.52 4.47,-8.2 15.58,-31.75 19.38,-39.27 15.91,-31.38 -1.37,16.23 27.62,-55.16 -251.36,-17.46 -32.67,-244.82 -175.15,-347.93 -96.25,29.84 -18.5,-13.48 -69.66,70.12 -1.36,2.22 -43.49,94.63 -46.27,99.9 -51.26,97.41 -83.48,84.84 -117.61,173.32z"/>
   <path class="fil0" d="M3892.56 1727.84c147.31,-3.24 203.24,-118.97 291.92,-204.48 -138.25,-133.28 -130.15,-53.76 -258.1,-204.48l-4.56 0c-52.71,51.93 -395.16,270.72 -29.26,408.95z"/>
   <path class="fil0" d="M4667.47 4707.43c-69.31,-217.09 -39.31,-140.24 29.66,-302.95l-90.89 -47.59 -303.18 0c-9.77,134.99 19.23,152.13 27.33,175.3 32.19,92.16 29.48,42.96 29.23,175.24l307.85 0z"/>
   <path class="fil0" d="M2199.45 6059.52c66.49,12.44 38.82,5.98 89.38,46.77 26.12,21.08 55.3,46.27 81.56,70.75l-0.08 49.37 127.57 0c-0.02,-192.16 137.85,-234.57 22.54,-408.96l-235.89 -0.99c-14.89,25.49 -36.83,70.43 -47.96,95.95 -36.52,83.83 -34.25,-11.18 -37.11,147.11z"/>
   <path class="fil0" d="M6403.02 6415.2c171.57,-32.57 -107.23,413.3 175.15,473.08 98.69,-77.78 13.76,-3.18 58.66,-76.3 4.7,-7.65 33.69,-65.3 39.68,-77.64 36.76,-75.5 56.46,-104.43 76.81,-186.26 -114.74,49.27 -15.42,60.25 -127.14,13.15 -57.45,-24.21 -44.2,-10.94 -63.11,-96.87 -25.85,-117.48 45.04,-226.02 -43.29,-241.56 -96,47.26 -20.55,-7.77 -69.76,79.48 -4.49,7.93 -15.58,33.85 -19.39,42.36 -14.41,32.23 -10.52,14.52 -27.61,70.55z"/>
   <path class="fil0" d="M1498.86 5219.04l91.46 -0.78c-26.19,110.78 -77.77,105.31 -51.09,199.51 57.76,204.03 82.82,174.32 134.77,195.06 83.87,-81.31 55.41,0.43 58.39,-145.06 -119.42,-51.59 89.36,-372.32 -77.09,-585.08 -62.17,72.17 -153.77,238.2 -156.45,336.35z"/>
   <path class="fil0" d="M4768.54 5875.88c-30.31,-137.04 56.74,-319 20.5,-408.96l-316.31 0c8.3,210.69 25.04,27.87 57.39,179.92 11.18,52.5 4.65,169.7 4.65,229.04l233.77 0z"/>
   <path class="fil0" d="M2231.56 2370.5l8.41 80.9 115.31 -59.59c-84.39,53.21 -40.11,118.81 -47.13,262.99 -4.67,96.07 -46.42,8.08 8.07,92.66 40.69,-36.37 77.85,-74.84 117.65,-113.41 62.37,-60.46 91.22,-69.57 105.18,-146.71l8.84 -206.45c-109.81,-85.5 -55.88,-15.43 -76.91,-144.08 -85.26,71.3 -165.66,150.72 -239.42,233.69z"/>
   <path class="fil0" d="M1876.86 2779.46l0.91 87.04 98.42 -52.85c25.78,189.92 0.93,167.63 -40.82,313.86l88.93 7.41c28.17,-81.41 54.24,-92.11 116.77,-150.87 66.82,-62.8 88.59,-68 116.77,-155.54l-109.77 6.56c41.02,-236.47 -8.13,-93.95 -60.98,-226.22 73.85,-51.75 21.38,-2.45 83.02,-121.51 -123.23,23.57 -103.02,36.52 -156.3,136.28 -20.56,38.47 -15.06,35.69 -61.19,84.05 -15.55,16.31 -61.49,57.57 -75.77,71.79z"/>
   <path class="fil0" d="M6110.95 9439.69c26.98,162.3 52.43,-40.44 34.94,122.27 -8.35,77.59 -34.93,81.15 23.58,163.24 76.49,-19.64 88.24,-49.57 146.45,-109.47 49.19,-50.59 97.08,-99.31 145.47,-149.65l-116.89 -260.09c-68.13,25.78 -218.37,159.66 -233.56,233.69z"/>
   <path class="fil0" d="M5879.85 5875.88l109.57 -1.79 152.81 -288.41c25.35,-60.78 24.51,5.89 27.26,-118.76l-374.18 0c51.98,159.8 90.9,142.24 25.01,350.13l59.54 58.83z"/>
   <path class="fil0" d="M6870.09 6615.61c107.83,107.28 -66.85,424.41 175.15,422.54l107.55 -207.49c102.51,-199.59 46,-152.78 85.62,-253.7 -72.74,-97.91 21.33,-19.76 -95.13,39.71 -109.68,55.99 -16.09,42.74 -156.43,29.66 -85.35,-163.67 66.23,-35.72 -58.38,-151.94 -35.04,132.95 -3.18,29.09 -58.38,121.22z"/>
   <path class="fil0" d="M1907.55 4449.67c36.88,66.46 26.35,193.76 23.76,286.78 -1.54,55.02 -8,123.84 -6.37,177.24 4.39,143.81 17.04,122.96 40.99,153.54 113.16,-67.87 13.83,3.28 69.77,-87.01 3.38,-5.43 6.94,-13.55 10.2,-18.93l52.88 -78.6c-24.54,-130.86 -30.59,-6.39 -27,-130.07 1.03,-35.21 11.21,-115.94 13.96,-161.2 9.62,-158.62 40.76,-244.57 -119.81,-286.52l-1.79 105.48 -56.59 39.3z"/>
   <path class="fil0" d="M3631.61 6810.64l291.42 0c48.99,-91 15.57,-11.84 19.64,-69.77 1.32,-18.95 -0.41,-73.45 -8.18,-119.19 -32.76,-193.12 -82.49,-120.42 8.54,-169.9l-158.69 -50.1 -204.08 0c72.09,53.49 -13.15,33.96 123,53.96 -74.92,100.64 7.44,205.06 -6.91,263.58 -8.98,36.61 -30.35,41.75 -64.75,91.41z"/>
   <path class="fil0" d="M1265.33 4566.11l87.84 19.94c29.48,188.13 48.14,170.02 -1.11,368.85l-15.05 58.15c77.35,-17.18 13.33,38.96 103.47,-57.69 78.08,-44.65 114.67,-152.37 116.75,-250.37l-88.13 -14.39c12.75,-233.23 24.34,-251.28 -45.71,-450.57l-26.94 38.92c-95.04,154.17 52.13,-93.88 -23.87,38.98l-79.04 154.93c-22.61,55.02 -17.42,-7.95 -28.2,93.26z"/>
   <path class="fil0" d="M2082.55 1961.53c8.23,104.98 40.41,60.5 68.96,172.12 48.16,188.26 -71.03,55.26 -10.43,124.87 133.33,-43.85 465.11,-423.12 175.15,-472.25 -110.18,-18.67 -220.53,111.12 -233.68,175.26z"/>
   <path class="fil0" d="M4753.57 5073.72c42.73,75.15 4.67,46.19 -23.65,108.01 -30.19,65.93 -17.01,-6.33 8.84,109.91l229.62 0 58.29 -106.2c69.06,-206.61 -34.03,-133.55 16.51,-302.75l-193.94 0c-23.94,83.63 -25.54,43.21 -27.07,83.96 -1.54,41.09 14.76,-7.81 17.22,77.98l-85.82 29.08z"/>
   <path class="fil0" d="M2199.45 4035.52l86.05 23.45c16.46,218.97 -32.91,272.59 30.87,473.18l37.67 -39.88c0.4,-0.51 41.63,-55.98 42.83,-57.88 37.21,-58.81 18.22,10.43 36.25,-77.5l6.99 -408.95c-37.13,-73.09 -51.57,-89.53 -123.89,-116.85 -39.61,109.4 5.25,2.93 -59.39,86.65 -77.09,99.83 -39.38,-39.75 -57.38,117.8z"/>
   <path class="fil0" d="M7045.24 5233.22c-3.21,159.57 18.27,84.65 -58.39,116.85 3.21,-159.55 -18.28,-84.64 58.39,-116.85zm-350.31 -233.69l58.39 29.06c144.01,104.15 66.59,101.87 81.86,248.23 12.82,122.75 75.77,109.29 116.01,264.43 2.48,-113.57 7.37,-91.28 94.05,-56.66 12.29,-118.29 -19.97,-40.22 58.38,-87.62l68.99 37.1 -10.47 -84c-14.13,-68.81 -56.85,-94.17 -116.9,-116.85 -30.7,-81.36 -269,-319.81 -350.31,-350.53l0 116.84z"/>
   <path class="fil0" d="M5215.67 4383.26l148.61 22.19c29.8,92.72 32.53,227.69 -12.15,301.37 23.61,89.21 -29.94,35.28 58.38,59.01l132.48 0c108.44,-113.76 65.09,-171.89 50.94,-350.53 -38.15,-90.26 21.35,-35.03 -66.66,-58.43l-408.04 0 96.44 26.38z"/>
   <path class="fil0" d="M6753.32 6933.49c142.47,103.11 -76.22,330.47 175.15,347.93 71.66,-34.98 5.96,11.11 47.53,-42.74 11.01,-14.28 32.62,-51.54 33.92,-54.19 44.33,-90.16 32.34,-0.13 35.32,-146.35 -242,1.87 -67.32,-315.26 -175.15,-422.54l-79.66 174.2c-3.84,8.16 -15.63,30.6 -18.7,39.61 -20.63,60.56 -16.61,15.3 -18.41,104.07z"/>
   <path class="fil0" d="M5154.46 5291.65l227 0c34.91,-90.34 96.02,-132.62 65.24,-223.29l82.83 -28.43 21.43 -89.58 -81.43 -67.65 -247.1 0c10.2,181.76 84.13,-32.39 20.07,225.81 -22.19,89.41 -6.43,106.8 -88.04,183.15z"/>
   <path class="fil0" d="M2257.85 4981.61l80.29 11.69c9.47,146.68 10.81,193.17 -25.6,326.72 -49.85,182.78 -21.6,143.94 32.82,263.75 42.5,-66.97 14.7,-41.72 48.74,-97.78 3.92,-6.44 53.76,-68.88 60.31,-77.49 -25.88,-150.26 -7.68,-479.69 32.79,-606.48l-112.59 -2.15c-73.32,61.62 -105.93,70.9 -116.76,181.74z"/>
   <path class="fil0" d="M1206.94 2974.18c-32.94,38.45 -39.37,47.33 -58.38,95.28l0 85.2c98.06,20.72 0.33,151.94 -11.06,207.31 76.81,108.49 46.82,-0.03 69.59,118.56l154.91 -195.48c26.1,-41.53 8.85,-22.09 29.84,-57.33 103.69,-174.22 62.65,-23.24 107.02,-169.39l-63.8 17.26c-147.01,-62.62 -26.78,15.54 -107.36,-112.52l-120.76 11.11z"/>
   <path class="fil0" d="M2783.29 6248.33c97.33,92.34 150.74,9.13 236.24,-21.93 36.57,-135.29 30.04,-176.18 26.61,-332.16l76.28 -19.3 -173.96 -57.5 -194.22 0 116.49 88.06c-15.81,178.93 -17.16,86.18 -49.75,187.72 -27.3,85.01 0.1,82.69 -37.69,155.11z"/>
   <path class="fil0" d="M1323.71 3520.82c-77.82,59.75 -60.1,95.65 -116.77,193.26 76.48,19.16 94.12,34.3 103.82,144.03 12.73,144.33 -28.63,112.98 1.59,255.67 -46.96,51.47 -75.93,27 -47.02,48.06 82.61,6.72 125.86,-76.02 156.87,-173.94 19.43,-61.36 16.51,-17.47 18.28,-108.77 -0.1,-0.26 35.97,-275.67 24.64,-366.09 -122.37,-24.28 -54.39,-40.86 -141.41,7.78z"/>
   <path class="fil0" d="M5468.89 10082.33c28.34,78.25 -7.25,27.06 70.43,104.8 77.69,77.74 26.53,42.13 104.72,70.46 81.43,-30.75 202.8,-152.19 233.54,-233.69 0,-52.91 -95.21,-120.15 -145.97,-180.27l-185.55 169.85c-90.54,60.74 -25.8,-52.53 -77.18,68.84z"/>
   <path class="fil0" d="M5227.74 5466.93c-10.43,90.39 -2.48,143.96 -25.49,225.97 -35.06,125.05 -64.26,38.49 -23.88,182.98l183.23 0c60.71,-158.59 57.65,-313.19 102.23,-426.44l-228.47 -40.79 -7.62 58.28z"/>
   <path class="fil0" d="M6169.48 5729.68l37.24 -18.28c-26.65,87.44 3.74,139.04 -4.6,267.26 -8.05,123.78 10.93,195.27 142.5,160.28 50,-61.89 82.99,-58.26 116.77,-143.72l0 -89.97 -82.11 20.7c-112.1,-249.64 -142.12,-153.26 -33.24,-439.03l-59.8 -16.89c-34.67,85.82 -15.65,21.98 -58.38,111.29 -31.86,66.59 -37.93,65.91 -58.39,148.37z"/>
   <path class="fil0" d="M1557.24 2506.87c5,5.53 11,8.63 12.85,18.28 7.3,37.61 90.04,64.44 111.42,75.24 4.59,62.98 9.49,101.2 1.94,141.17 -15.63,82.67 -32.23,-39.12 -9.29,96.33l145.17 -176.11c129.94,-128.59 114.8,-74.31 146.6,-203.5l-100.81 23.91c23.02,-61.64 23.9,-39.33 14.64,-115.06 -68.66,-39.37 -90.01,-38.17 -147.36,-55.2 -13.15,65.5 -120.96,156.3 -175.17,194.94z"/>
   <path class="fil0" d="M3362.24 6226.41l257.8 0 2.15 -311.73c-128.13,-62.05 -68.26,-61.54 -232.38,-72.19 -50.26,109.5 -37.36,260.75 -27.57,383.92z"/>
   <path class="fil0" d="M915.04 3492.37l105.57 -18.05c19.21,289.02 -66.62,56.92 11.33,298.33 7.16,-5.65 16.15,-24.79 19.23,-19.44 3.02,5.23 14.21,-14.39 18.17,-19.48l137.75 -253.2c-22.77,-118.59 7.22,-10.07 -69.59,-118.56 11.39,-55.36 109.12,-186.59 11.06,-207.31 -105.43,-18.46 -80.02,46.42 -148.7,147.81 -71.73,105.82 -84.83,30.12 -84.83,189.9z"/>
   <path class="fil0" d="M6169.48 9725.2c-58.51,-82.09 -31.93,-85.65 -23.58,-163.24 17.49,-162.71 -7.97,40.03 -34.94,-122.27 -234.48,135.9 -197.39,236.69 -296.77,321.31 186.33,159.26 70.87,140.52 180.2,141l104.68 -63.44c49.05,-52.43 48.44,-48.06 70.42,-113.36z"/>
   <path class="fil0" d="M6461.4 8095.8l-115.63 -53.89 -6.66 -349.63 -52.86 -34.65c-51.62,63.91 -100.96,85.65 -148.22,202.34 -34.05,84.06 -41.27,115.51 3.91,175.89 15.5,20.7 39.15,42.51 56.74,60.09 44.55,44.53 60.96,43.32 87.57,116.85 110.13,-41.61 84.63,-98.4 175.15,-117z"/>
   <path class="fil0" d="M3043.17 7336.45l288.69 0 0 -6.03c-80.5,-203.62 -7.77,161.22 -10.88,-46.82 -1.52,-102.93 27.31,-38.12 21.94,-111.83 -1.36,-18.75 -49.04,-118.79 -55.3,-136.65l151.2 -6.54c-111.74,-3.36 -73.11,1.54 -129.22,-42.68l-231.5 0 -13.65 250.17c-8.84,33.24 -18.48,18.04 -21.28,100.38z"/>
   <path class="fil0" d="M2328.51 6752.22c113.49,-0.25 141.66,12.26 221.09,58.43 46.85,-86.69 27.3,-60.44 7.5,-152.95 -29.59,-138.27 -67.49,-89.3 29.38,-167.85 -126.41,-66.21 -119.69,13.07 -128.78,-88.15l-173.43 0c-20.5,148.88 -15.09,224.68 44.24,350.53z"/>
   <path class="fil0" d="M6694.79 8738.61l4.02 113.44c165.96,57.13 69.54,40.26 229.65,7 68.23,-30.29 75.09,-40.37 109.32,-100.13 13.35,-23.3 10.53,-26.3 27.62,-58.31 14.96,-28.02 16.68,-23.04 38.21,-61.07 -164.9,-49.25 -52.13,-86.91 -228.01,-42.38l-20.77 -92.26c-36.38,38.85 -13.13,19.15 -39.71,59.75 -36.35,55.59 -0.02,9.98 -49.55,72.22 -75.5,94.85 -49.13,-3.81 -70.78,101.74z"/>
   <path class="fil0" d="M4405.07 5291.65l177.22 0c-40.57,-101.77 -5.83,-81.51 -119.89,-100.34 205.7,-83.3 29.35,-208.87 67.8,-308.61l-249.24 0c40.36,164.37 36.42,182.24 50.15,349.98l73.96 58.97z"/>
   <path class="fil0" d="M5468.89 6839.71c43.07,-13.12 59.62,-94.93 76.36,58.54 6.21,56.95 -16.63,83.17 -23.08,148.07 -20.69,207.77 62.27,158.14 34.44,290.13l92.46 -14.59c9.49,-173.87 -18.07,-34.68 36.9,-117.33 47.69,-71.72 18.17,-5.5 74.84,-97.91 -96.8,-32.54 -102.78,-78.63 -107.96,-179.85 -3,-58.78 8.13,-115.48 -3.81,-168.79 -34.08,-151.98 -14.17,-56.97 -63.38,-109.7 -46.17,64.34 -30.82,30.07 -59.59,71.66 -67.07,96.96 -20.57,-29 -57.19,119.77z"/>
   <path class="fil0" d="M5819.19 9118.2c-60.94,-9.47 0.51,-68.35 -104.73,36.98 -55.48,55.5 -50.68,58.08 -70.42,138.28l100.13 -12.59c-37.72,110.99 -38.87,34.5 -47.5,171.89l180.91 45.48c105.67,-21.46 29.54,-1.66 60.53,-55.73 3.96,-6.91 22.47,-51.92 25.39,-59.69 13.41,-35.64 10.37,-7.1 18.63,-60 -46.7,-131.74 28.44,-16.51 -50.41,-111.47 -66.63,-80.24 -48.06,2.54 -50.13,-134.19l-62.4 41.04z"/>
   <path class="fil0" d="M1498.86 4168.78c225.44,50.53 -0.05,225.43 116.77,422.62 100.67,-44.25 18.43,8.05 70.98,-78.1l26.86 -53.91c15.88,-33.29 11.06,-5.12 19.06,-44.08 -36.06,-105.84 -40.15,-4.39 -41.82,-107.61 -0.25,-15.35 22.51,-124.17 25.67,-142.61 18.57,-108.41 -0.13,-224.1 -42.38,-310.5 -42.59,47.35 -30.39,41.3 -48.64,73.76 -43.28,76.97 9.49,4.15 -41.98,75.52 -88.32,122.5 -80.12,0.53 -84.52,164.91z"/>
   <path class="fil0" d="M1382.09 2755.78l92.23 -0.66c3.39,25.11 21.93,186.94 19.31,203.15 -5.86,36.09 -32.81,61.77 -58.56,117.32l63.8 -17.26c95.82,-16.54 -22.57,58.43 91.53,-100.06 61.92,-86 66.33,-35.35 83.76,-120.38 -22.94,-135.45 -6.34,-13.67 9.29,-96.33 7.55,-39.96 2.65,-78.19 -1.94,-141.17 -21.38,-10.8 -104.12,-37.63 -111.42,-75.24 -1.86,-9.66 -7.85,-12.75 -12.85,-18.28 -27.91,34.06 -74.36,80.47 -97.13,117.25 -51.45,83.14 11.11,32.98 -78.02,131.66z"/>
   <path class="fil0" d="M5529.53 5039.92l86.07 44.96c-5.15,119.95 -14.57,102.4 -64.54,206.76l268.27 0c-19.44,-28.44 -46.63,-295.48 -45.76,-350.53 -45.87,-90.51 16.36,-35.26 -71.15,-58.43l-232.9 0 81.43 67.65 -21.43 89.58z"/>
   <path class="fil0" d="M4667.47 4707.43l311.63 0 0 -13.23 -84.28 -27.39c25.27,-53.08 3.56,-168.09 27.97,-253.73l-136.11 -56.19 -180.43 0 90.89 47.59c-68.98,162.71 -98.97,85.85 -29.66,302.95z"/>
   <path class="fil0" d="M1674.01 3854.59c42.25,86.4 60.94,202.09 42.38,310.5 -3.16,18.43 -25.92,127.25 -25.67,142.61 1.67,103.22 5.76,1.77 41.82,107.61l127.22 -175.28c-19.82,-97.09 -24.69,-20.93 -29.53,-120.59 -3.28,-67.42 12,-98.22 19.39,-151.22 15.32,-109.75 3.69,-205.47 -58.84,-303.51 -63.25,94.78 -103.9,86.65 -116.77,189.89z"/>
   <path class="fil0" d="M4979.1 4694.19l0 13.23 373.04 -0.59c44.68,-73.68 41.95,-208.65 12.15,-301.37l-148.61 -22.19c-38.54,44.43 -31.83,15 -61.91,63.2 -68.91,110.38 17.39,61.28 -110.93,184.95l-63.74 62.78z"/>
   <path class="fil0" d="M3444.14 6810.64l187.47 0c34.4,-49.67 55.78,-54.8 64.75,-91.41 14.34,-58.53 -68.02,-162.94 6.91,-263.58 -136.15,-19.99 -50.91,-0.46 -123,-53.96l-183.81 0 83.25 88.4 -35.57 320.55z"/>
   <path class="fil0" d="M5543 4765.84l269.07 0c5.52,-36.07 22.77,-101.37 24.09,-121.96 5.12,-78.93 -11.21,-34.1 -11.24,-137.27l111.04 -38.56c-23.53,-78.55 27.03,-30.34 -58.37,-52.74l-283.64 0c14.15,178.64 57.5,236.77 -50.94,350.53z"/>
   <path class="fil0" d="M6286.25 8570.35l-70.25 138.43c65.48,48.39 54.02,27.26 95.19,65.23 103.33,95.29 -45.76,18.6 91.83,91.48 78.13,-43.94 145.31,-106.56 175.15,-184.54l0 -68.25c-211.2,-56.54 -125.63,-136.06 -233.54,-157.87 -86.8,9.69 -33.77,-40.63 -58.37,49.47l0 66.04z"/>
   <path class="fil0" d="M2491.37 1543.47c-72.73,39.63 -56.01,40.81 -119.27,94.25l206.85 206.98 265.22 -260.4c-2.8,-2.7 -60.46,-66.43 -72.17,-76.89 -80.01,-71.44 -23.27,-44.25 -134.52,-71.66l38.85 91 -95.39 84.78c-64.11,-27.85 -44.7,-13.13 -89.56,-68.05z"/>
   <path class="fil0" d="M6344.63 8454.84c107.91,21.81 22.34,101.33 233.54,157.87 85.47,-18.12 8.71,29.23 105.34,-62.06 39.19,-37.01 59.22,-51.55 69.81,-104.31 -141.02,-50.06 -43.74,-21.7 -100.48,-69.13 -2.96,-2.47 -8.3,-8.53 -10.93,-10.78 -2.32,-1.97 -7.95,-7.12 -10.12,-8.94l-80.25 -79.97c-40.26,-61.01 -3.81,23 -31.9,-64.72l-175.02 242.04z"/>
   <path class="fil0" d="M4968.39 5291.65l186.07 0c81.61,-76.35 65.85,-93.74 88.04,-183.15 64.06,-258.2 -9.87,-44.06 -20.07,-225.81l-179.24 0c-50.54,169.2 52.55,96.14 -16.51,302.75l-58.29 106.2z"/>
   <path class="fil0" d="M3269.25 6810.64l174.89 0 35.57 -320.55 -83.25 -88.4 -193.02 0 55.58 33.09c-44.63,184.49 28.19,67.79 -6.82,205.31 -1.43,5.63 -12.01,20.54 -13.02,24.41 -6.87,26.38 -51.04,-1.28 19.28,19.68l10.8 126.47z"/>
   <path class="fil0" d="M2791.26 7336.45l251.91 0c2.8,-82.34 12.44,-67.14 21.28,-100.38l13.65 -250.17 -178.05 -10.04c-105.15,107.93 -32.46,67.75 -56.64,168.92 -17.75,74.3 -36.24,91 -52.15,191.66z"/>
   <path class="fil0" d="M2729.48 6810.64l190.17 0c-58.97,-81.46 -14.18,-37.01 -6.18,-164.55 6.66,-106.32 -13.85,-100.99 87.52,-170.58l-116.67 -73.83 -229.43 0 146.1 75.93c-96.85,102.99 -148.12,196.56 -71.51,333.02z"/>
   <path class="fil0" d="M2470.98 2136.81c21.03,128.65 -32.91,58.57 76.91,144.08l-8.84 206.45c79.03,-24.94 141.76,-84.59 200.93,-160.19 83.52,-106.74 16.03,-130.32 -148.25,-294.17 -3.25,-3.23 -10.25,-10.29 -15.29,-15.52 -42.51,50.33 -67.5,67.7 -105.46,119.35z"/>
   <path class="fil0" d="M506.35 4386.24c77.24,54.45 36.2,-1.49 65.52,131.41l-7.32 206.33c-16.28,43.54 -44.88,-17.31 -33.72,78.52l92.3 35.44c41.58,-136.68 22.56,-18.7 47.21,-113.24 14.74,-56.57 5.86,-74.74 17.79,-127.52 29.74,-131.68 52.13,-26.5 51.77,-252.5l-53.54 -55.71 -121.61 12.98c-88.06,17.85 -34.71,-34.84 -58.39,57.42l0 26.88z"/>
   <path class="fil0" d="M5620.17 5628.64c91.42,30.59 39.6,149.73 31,247.24l228.67 0 -59.54 -58.83c65.89,-207.89 26.98,-190.33 -25.01,-350.13l-176.74 0 1.61 161.72z"/>
   <path class="fil0" d="M5819.19 9118.2l62.4 -41.04c2.07,136.73 -16.5,53.96 50.13,134.19 78.85,94.96 3.71,-20.27 50.41,111.47 88.83,-27.41 59.78,-16.08 130.8,-86.8 40.56,-40.39 68.99,-74.11 114.95,-113.52 -80.74,-31.09 -61.89,-34.88 -148.67,-90.22 -67.73,-43.21 -57.04,-15.39 -84.87,-95.57 -60.05,-2.48 -53.85,-7.95 -104.73,43.67 -55.46,56.29 -50.44,56.69 -70.41,137.82z"/>
   <path class="fil0" d="M915.04 5087.02l58.38 -177.22c53.26,-184.29 58.38,-38.24 58.38,-231.45 -61.18,-171.37 -62.83,24.78 -145.24,-88.85 -27.39,136.4 -54.93,103.72 -75.47,210.97 -30.17,157.74 30.24,81.17 -61.37,228.28 44.4,8.18 34.2,-29.58 165.33,58.28z"/>
   <path class="fil0" d="M5830.39 7394.88c-19.29,175.05 47.63,201.4 -13.25,350.53 32.97,79.53 25.89,46.85 87.11,119.35l148.47 -134.14 -77.19 -21.74c-112.68,-283.14 -31.93,-189.33 2.96,-481.28l9.24 -58.64 -51.79 18.17c-24.51,34.08 -83.68,87.51 -119.27,117.61l13.71 90.14z"/>
   <path class="fil0" d="M5935.95 7187.12l51.79 -18.17 -9.24 58.64 79.08 9.32c-13.98,168.16 10.22,122.72 38.87,262.7l73.04 16.25 53.54 -7.97 4.85 -91.58c-71.98,-53.56 -93.54,-279.72 -36.48,-351.01 -126.01,-50.56 -35.11,-42.84 -138.67,-59.69 -43.65,73.88 -14.31,6.44 -58.39,65.4 -71.31,95.39 -21.71,-27.3 -58.38,116.09z"/>
   <path class="fil0" d="M6519.64 8212.8c28.09,87.72 -8.36,3.71 31.9,64.72l80.25 79.97c2.17,1.82 7.8,6.97 10.12,8.94 2.63,2.25 7.96,8.31 10.93,10.78 56.74,47.43 -40.54,19.06 100.48,69.13 47.56,-82.18 19.28,-30.04 58.37,-87.49 39.1,-57.45 10.81,-5.31 58.39,-87.49 -81.89,-16.11 -45.08,5.37 -124.8,-106.32 -73.76,-103.36 -54.95,-103.01 -108.74,-126.06 -75.09,29.76 -25.27,-22.69 -97.84,129.62 -15.91,33.39 -11.06,5.2 -19.06,44.2z"/>
   <path class="fil0" d="M2549.6 6810.64l179.89 0c-76.61,-136.46 -25.34,-230.03 71.51,-333.02l-146.1 -75.93 -197.19 0c9.09,101.22 2.37,21.94 128.78,88.15 -96.87,78.55 -58.97,29.58 -29.38,167.85 19.79,92.51 39.35,66.26 -7.5,152.95z"/>
   <path class="fil0" d="M3057.47 6810.64l211.78 0 -10.8 -126.47c-70.32,-20.95 -26.15,6.7 -19.28,-19.68 1.01,-3.87 11.59,-18.78 13.02,-24.41 35.01,-137.52 -37.81,-20.81 6.82,-205.31l-55.58 -33.09 -128.74 0c79.49,183.69 -34.04,7.72 -8.88,192.56 12.45,91.51 31.4,-27.28 16.51,81.87 -7.3,53.51 -28.62,1.63 -24.86,134.52z"/>
   <path class="fil0" d="M2015.83 6460.11l41.13 57.33 129.18 18.42c-95.89,76.74 -48.26,14.79 -70.35,105.91l98.3 34.85 -7.3 75.6 121.72 0c-59.32,-125.85 -64.74,-201.65 -44.24,-350.53l-76.39 -69.64 -183.58 11.21 -8.48 116.85z"/>
   <path class="fil0" d="M6110.95 8738.61c28.47,117.56 31.43,-3.61 45.96,144.67 10.76,109.73 -47.91,49.3 68.58,117.81l-26.66 88.04c93.9,-17.95 98.78,-24.59 140.29,-95.76 1.17,-2.02 18.66,-44.1 26.05,-59.16 20.06,-40.94 9.67,-8.39 37.86,-68.72 -137.59,-72.89 11.5,3.81 -91.83,-91.48 -41.17,-37.97 -29.71,-16.84 -95.19,-65.23l70.25 -138.43c-83.47,20.78 -12.83,-23.53 -105.33,64.24 -39.11,37.13 -59.12,51.19 -69.97,104.02z"/>
   <path class="fil0" d="M5894.09 5291.65c262.76,-0.22 64.54,53.41 267.84,58.43l-40.19 -293.33c-2.15,-6.56 -22.15,-38.55 -24.33,-42.56l72.07 -34.96 -53.86 -45.96 -182.73 7.85c-10.52,136.59 11.35,-48.89 18.68,129.14 3.33,80.85 -3.38,79.33 13.91,162.89l-71.39 58.49z"/>
   <path class="fil0" d="M2462.02 7278.02l64.56 0c57.5,-64.6 89.48,-62.38 141.68,-142.56 44.31,-68.08 37.79,-90.49 94.69,-162.66l-56.11 -45.31 -272.78 0c26.63,149.66 38.17,8.96 37.64,152.63 -0.23,64.16 -6.89,132.56 -9.69,197.9z"/>
   <path class="fil0" d="M6986.69 8329.64l44.37 105.51 189.33 11.48c105.7,-21.46 30.17,-3.66 59.6,-54.48 4.12,-7.14 24.52,-54.69 28.25,-63.51 9.42,-22.29 3.68,12.35 28.9,-73.65 -93.96,-4.12 -64.07,-30.65 -200.04,-49.52 11.05,-85.19 55.74,-90.95 24.89,-148.42 -36.7,44.78 -28.97,29.38 -59.64,66.74l-68.83 108.84c-2.88,5.53 -6.84,13.61 -9.57,18.96l-37.26 78.05z"/>
   <path class="fil0" d="M4768.54 5875.88l177.5 0c33.2,-111.97 -7.39,-4.52 -6.46,-75 0.59,-44.85 -12.17,6.22 7.12,-41.74 2.35,-5.85 27.96,-43.11 30.84,-48.61 -72.85,-72.57 -18.46,-154.88 -9.13,-243.61l-179.37 0c36.23,89.96 -50.81,271.91 -20.5,408.96z"/>
   <path class="fil0" d="M2526.58 7278.02c251.98,-0.26 32.51,58.74 264.68,58.43 15.91,-100.66 34.4,-117.37 52.15,-191.66 24.18,-101.17 -48.51,-60.99 56.64,-168.92 -27.04,-82.02 -83.04,-48.37 -193.2,-48.37l56.11 45.31c-56.9,72.17 -50.38,94.58 -94.69,162.66 -52.2,80.17 -84.18,77.95 -141.68,142.56z"/>
   <path class="fil0" d="M4977.54 5710.54c-2.88,5.5 -28.48,42.76 -30.84,48.61 -19.29,47.96 -6.52,-3.11 -7.12,41.74 -0.93,70.48 39.66,-36.96 6.46,75l232.33 0c-40.38,-144.5 -11.18,-57.93 23.88,-182.98 23,-82.01 15.06,-135.58 25.49,-225.97l-128.08 0 -16.86 198.61 -105.26 45z"/>
   <path class="fil0" d="M4582.28 5291.65l156.48 0c-25.85,-116.24 -39.04,-43.98 -8.84,-109.91 28.32,-61.82 66.37,-32.86 23.65,-108.01l-69.49 -53.57 -25.5 -137.46 -128.38 0c-38.46,99.75 137.9,225.31 -67.8,308.61 114.06,18.83 79.31,-1.43 119.89,100.34z"/>
   <path class="fil0" d="M6052.72 7730.62c64.8,-86.81 58.06,-119.78 116.76,-214.74l-73.04 -16.25c-28.65,-139.99 -52.85,-94.55 -38.87,-262.7l-79.08 -9.32c-34.89,291.95 -115.65,198.13 -2.96,481.28l77.19 21.74z"/>
   <path class="fil0" d="M4979.1 4694.19l63.74 -62.78c128.31,-123.68 42.02,-74.57 110.93,-184.95 30.07,-48.19 23.37,-18.76 61.91,-63.2l-96.44 -26.38 -332.56 0 136.11 56.19c-24.41,85.63 -2.7,200.65 -27.97,253.73l84.28 27.39z"/>
   <path class="fil0" d="M2900.04 4756.65c27.59,-60.78 109.07,-109.37 175.15,-282.93 -83.15,-31.7 -30.19,-16.36 -115.89,-58.41 -56.76,-27.86 -64.52,-38.09 -129.09,-58.43l-31.91 416.79 101.75 -17.02z"/>
   <path class="fil0" d="M5877.58 9498.24l-180.91 -45.48c8.63,-137.39 9.77,-60.89 47.5,-171.89l-100.13 12.59c-35.72,44.24 -130.33,132.9 -177.65,172.91 170.38,164.65 109.83,28.48 262.72,209.5l148.47 -177.63z"/>
   <path class="fil0" d="M1423.39 4240.03c70.05,199.3 58.46,217.35 45.71,450.57l88.13 14.39c88.14,-19.63 34.43,33.34 58.39,-56.07l0 -57.52c-116.82,-197.19 108.67,-372.09 -116.77,-422.62 -69.37,43.34 -33.17,0.15 -75.47,71.24z"/>
   <path class="fil0" d="M3389.81 5842.49c164.12,10.65 104.25,10.14 232.38,72.19l-2.15 311.73 156.67 0c-0.93,-53.48 5.55,-185.91 -3.99,-230.61 -34.74,-162.93 -50.08,56.5 -55.31,-178.35l-414.32 0 86.73 25.04z"/>
   <path class="fil0" d="M2170.12 2487.34c-61.64,119.06 -9.17,69.76 -83.02,121.51 52.85,132.27 102,-10.25 60.98,226.22l109.77 -6.56 53.04 8.02 5.33 -89.07c-54.49,-84.57 -12.74,3.41 -8.07,-92.66 7.02,-144.18 -37.26,-209.78 47.13,-262.99l-115.31 59.59 -8.41 -80.9c-119.15,114 -74.28,34.36 -61.44,116.83z"/>
   <path class="fil0" d="M5361.61 5875.88l92.61 0c23.48,-49.8 33.32,-85.65 56.84,-129.96 49.17,-92.59 30.67,-74.77 109.12,-117.28l-1.61 -161.72c-197.35,-21.38 14.64,-31.86 -180.78,-58.01 -47.68,-6.38 -149.33,-0.45 -202.43,-0.26l228.47 40.79c-44.58,113.26 -41.52,267.86 -102.23,426.44z"/>
   <path class="fil0" d="M6403.02 9118.2c136.03,-82.46 19.13,-19.46 72.13,-7.33 6.8,1.56 57.63,31.46 61.69,36.33 52.1,62.43 -30.7,-10.62 29.46,105.16l70.25 12.19c12.42,-61.91 113.31,-162.85 175.15,-175.56 -214.56,-124.39 -8.31,-45.46 -213.52,-66.54l32.51 -158.49 5.86 20.56c-73.94,-11.5 -31.15,-32.33 -132.67,69.26 -83.04,83.09 -74.39,56.87 -100.86,164.43z"/>
   <path class="fil0" d="M6811.69 7774.49l45.31 -15.77 -72 91.9 27.74 179.29c84.41,47.65 8.88,-25.2 81.61,73.89l92.49 -8c28.4,-47.33 40.72,-68.35 65.65,-116.69l-104.52 -135.4c-29.76,-57.15 -16.46,-51.52 -26.38,-78.63 -30.29,-82.71 4.94,-32.54 -51.5,-97.66l-53.44 23.63 -4.95 83.43z"/>
   <path class="fil0" d="M798.27 3724.65l69.43 7.98 -37.86 118.04c126.99,-17.24 19.31,-27.19 143.58,1.64 70.35,-55.28 43.59,16.64 58.52,-79.68 -77.95,-241.41 7.89,-9.31 -11.33,-298.33l-105.57 18.05c-94.51,18.85 9.94,-34.03 -47.55,29.84 -77.22,85.85 -67.63,120.66 -69.22,202.44z"/>
   <path class="fil0" d="M6636.55 8038.98c53.79,23.06 34.98,22.7 108.74,126.06 79.72,111.69 42.91,90.21 124.8,106.32 115.28,-23.42 15.39,40.71 97.23,-131.18 16.33,-34.28 11.53,-4.46 19.53,-44.38l-92.49 8c-72.74,-99.1 2.8,-26.25 -81.61,-73.89l-27.74 -179.29 72 -91.9 -45.31 15.77c-5.38,6.57 -33.65,41.9 -38.34,49.86 -26.15,44.42 -12.9,33.54 -39.68,75.3 -53.54,83.47 -63.93,48.96 -97.13,139.33z"/>
   <path class="fil0" d="M2161.1 7219.61l130.71 0c-20.54,-109.72 -28.53,-88.32 -8.56,-178.67 16.69,-75.55 -5.04,-28.12 17.07,-113.44 2.45,-82.04 52.26,-32.61 -42.48,-58.43l-87.72 0c-113.74,103.35 -140.24,80.4 -77.27,214.15l68.25 136.39z"/>
   <path class="fil0" d="M2919.65 6810.64l137.82 0c-3.76,-132.9 17.56,-81.02 24.86,-134.52 14.89,-109.15 -4.06,9.64 -16.51,-81.87 -25.16,-184.84 88.37,-8.86 8.88,-192.56l-190.37 0 116.67 73.83c-101.37,69.59 -80.87,64.26 -87.52,170.58 -8,127.54 -52.8,83.09 6.18,164.55z"/>
   <path class="fil0" d="M2497.88 6226.41l185.65 0 -11.48 -92c-69.34,-42.28 23.17,-18.32 40.85,-136.69 11.97,-80.16 -26.41,-134.96 -80.7,-180.27l-111.79 0c115.31,174.39 -22.56,216.8 -22.54,408.96z"/>
   <path class="fil0" d="M2291.81 7219.61c46.69,59.29 13.25,31.52 80.31,58.41l89.91 0c2.8,-65.35 9.46,-133.74 9.69,-197.9 0.53,-143.67 -11.01,-2.96 -37.64,-152.63l-133.74 0c-22.11,85.32 -0.38,37.89 -17.07,113.44 -19.97,90.35 -11.98,68.96 8.56,178.67z"/>
   <path class="fil0" d="M1849.16 2195.09c105.11,28.45 77.11,-10.7 157.59,25.24 40.15,96.14 55.12,70.1 25.44,150.18 71.51,-31.4 67.7,-45.99 108.89,-111.98 -60.59,-69.61 58.59,63.39 10.43,-124.87 -28.55,-111.62 -60.73,-67.14 -68.96,-172.12 -69.52,40.31 -73.53,41.22 -132.87,100.59 -59.34,59.39 -60.25,63.39 -100.52,132.97z"/>
   <path class="fil0" d="M2683.53 6226.41l99.76 21.93c37.79,-72.42 10.4,-70.1 37.69,-155.11 32.59,-101.54 33.93,-8.79 49.75,-187.72l-116.49 -88.06 -122.04 0c54.29,45.31 92.67,100.11 80.7,180.27 -17.69,118.37 -110.2,94.41 -40.85,136.69l11.48 92z"/>
   <path class="fil0" d="M6344.51 9206l116.89 260.09c29.58,-26.41 61.66,-55.5 87.57,-82.49 53.61,-55.83 49.58,-53.39 87.57,-119.04l-70.25 -12.19c-60.17,-115.78 22.64,-42.73 -29.46,-105.16 -4.06,-4.87 -54.89,-34.78 -61.69,-36.33 -53,-12.12 63.91,-75.12 -72.13,7.33 -73.55,-20.33 -31.33,-68.78 -58.37,29.36l-0.13 58.43z"/>
   <path class="fil0" d="M3438.82 7028.59l75.14 44.52c1.39,152.49 -11.2,126.92 -87.08,239.27l-95.02 18.05 0 6.03 181.07 0c223.29,-17.56 114.74,-218.36 95.46,-350.55l-298.79 0c56.11,44.22 17.49,39.32 129.22,42.68z"/>
   <path class="fil0" d="M6461.4 8095.8l1.7 -111.77c81.2,-40.95 73.52,-49.85 115.07,-121.62 -99.75,-29.25 -60.08,-55.99 -112.31,-153.83l-126.74 -16.3 6.66 349.63 115.63 53.89z"/>
   <path class="fil0" d="M6854.83 8504.91l20.77 92.26c175.88,-44.53 63.11,-6.87 228.01,42.38 77.89,-59.29 60.05,-95.24 116.77,-192.92l-189.33 -11.48 -44.37 -105.51 -131.86 175.26z"/>
   <path class="fil0" d="M1965.93 7102.76c24.51,-86.3 -30.04,-37.94 53.37,-53.41 -12.06,65.12 9.04,29.31 -53.37,53.41zm-58.38 -182.55c-2.83,1.56 -50.46,31.42 -54.85,36.04l-61.92 87.94c191.97,0.31 38.01,6.28 175.15,58.57 26.76,63.25 107.28,92.35 195.17,116.85l-68.25 -136.39c-62.96,-133.75 -36.47,-110.8 77.27,-214.15l-119.14 1.54c-71.21,-88.35 4.02,-28.65 -80.06,-54.95 -8.22,108.99 13.43,92.19 -34.2,175.26l-29.18 -70.72z"/>
   <path class="fil0" d="M6227.87 7416.33c34.73,-26.52 71.97,-55.85 98.3,-98.28 25.02,-40.31 14.94,-34.43 38.13,-78.99 21.54,-41.39 8.96,-5.02 38.72,-65.75l-86.74 -15.24c-17.26,-133.28 18.94,-60.98 -53.11,-136.2l-71.78 43.44c-57.05,71.3 -35.49,297.45 36.48,351.01z"/>
   <path class="fil0" d="M1732.4 2311.93c57.35,17.03 78.7,15.83 147.36,55.2 9.26,75.73 8.38,53.43 -14.64,115.06l100.81 -23.91c79.04,42.15 28.63,32.86 60.88,2.37l5.38 -90.14c29.68,-80.07 14.7,-54.04 -25.44,-150.18 -80.48,-35.94 -52.48,3.21 -157.59,-25.24 -71.66,3.31 -87.43,66.84 -116.76,116.83z"/>
   <path class="fil0" d="M5819.33 5291.65l74.76 0 71.39 -58.49c-17.29,-83.57 -10.58,-82.04 -13.91,-162.89 -7.33,-178.03 -29.2,7.45 -18.68,-129.14l-159.31 0c-0.88,55.05 26.31,322.09 45.76,350.53z"/>
   <path class="fil0" d="M3702.55 7336.45l243.41 -1 5.38 -291.12c-52.93,-19.97 -65.2,-28.29 -117.02,-58.43 -75.68,76.2 -57.37,184.16 -40.33,287.57l-91.45 62.98z"/>
   <path class="fil0" d="M6161.93 5350.07c119.22,-39.55 9.32,-4.67 119.32,-63.43 27.39,-353.15 16.76,-141.67 58.38,-282.1l-170.15 -25.32 -72.07 34.96c2.19,4.01 22.18,36 24.33,42.56l40.19 293.33z"/>
   <path class="fil0" d="M6636.55 8884.52l-5.86 -20.56 -32.51 158.49c205.21,21.08 -1.04,-57.85 213.52,66.54 27.15,-46.74 38.72,-74.18 59.56,-117.85 39.15,-82.03 25.67,-34.74 57.22,-112.09 -160.11,33.26 -63.69,50.13 -229.65,-7l-4.02 -113.44 -65.37 20.88 7.12 125.02z"/>
   <path class="fil0" d="M3512.93 7336.45l189.62 0 91.45 -62.98c-17.04,-103.41 -35.35,-211.37 40.33,-287.57l-225.94 0c19.28,132.19 127.83,332.99 -95.46,350.55z"/>
   <path class="fil0" d="M1206.94 2974.18l120.76 -11.11c80.58,128.05 -39.65,49.9 107.36,112.52 25.75,-55.55 52.7,-81.23 58.56,-117.32 2.62,-16.21 -15.91,-178.04 -19.31,-203.15l-92.23 0.66c-32.84,26.99 -72.79,59.74 -97.99,101.1 -65.67,107.76 43.34,32.01 -77.16,117.3z"/>
   <path class="fil0" d="M6465.85 7708.57c52.23,97.84 12.57,124.59 112.31,153.83l53.52 -3.26c6.46,-65.91 8.48,-55.28 22.74,-95.26 22.59,-63.36 3.38,43.6 40.49,-105.96 -117.29,13.58 -119.04,-46.67 -90.34,-148.92l-98.8 2.12 -39.93 197.44z"/>
   <path class="fil0" d="M5994.33 8936.71c27.84,80.19 17.14,52.37 84.87,95.57 86.78,55.35 67.93,59.14 148.67,90.22l-29.05 -33.37 26.66 -88.04c-116.49,-68.51 -57.81,-8.08 -68.58,-117.81 -14.52,-148.28 -17.49,-27.11 -45.96,-144.67 -47.7,28.02 -64.67,38.27 -111.6,63.43l-5.02 134.67z"/>
   <path class="fil0" d="M6290.67 4649l59.9 18.56 5.2 98.28 -0.03 58.43 41.54 3.2 5.74 106.48c87.61,-39.68 100.05,-71.36 175.15,-83.61 -27.62,-108.18 -15.02,-74 -101.42,-159 -59.64,-58.68 -61.11,-73.88 -131.59,-100.76l-64.98 0 5.25 20.93 5.25 37.49z"/>
   <path class="fil0" d="M3331.85 7330.43l95.02 -18.05c75.88,-112.35 88.47,-86.78 87.08,-239.27l-75.14 -44.52 -151.2 6.54c6.26,17.85 53.94,117.9 55.3,136.65 5.37,73.71 -23.47,8.91 -21.94,111.83 3.11,208.04 -69.62,-156.8 10.88,46.82z"/>
   <path class="fil0" d="M5817.15 7745.41c60.88,-149.13 -6.04,-175.48 13.25,-350.53 -230.06,72.07 -240.59,261.31 -13.25,350.53z"/>
   <path class="fil0" d="M2433.13 4356.88l167.5 -212c14.44,-43.04 7.52,-93.26 7.52,-138.55 -194.33,-4.29 -39.56,-2.04 -168.03,-58.41l-6.99 408.95z"/>
   <path class="fil0" d="M6052.72 7005.63c103.56,16.84 12.65,9.13 138.67,59.69l71.78 -43.44c7.81,-71.39 31.17,-79.26 20.9,-147.81 -19.61,-130.8 -6.82,19.99 -56.42,-121.85 -76.38,32.53 -1.66,-26.61 -68.43,77.11l-21.15 36.47c-88.27,125.56 -45.21,-5 -85.34,139.84z"/>
   <path class="fil0" d="M2206.79 6752.22l7.3 -75.6 -98.3 -34.85c22.09,-91.12 -25.54,-29.16 70.35,-105.91l-129.18 -18.42 -41.13 -57.33 -49.9 0 0 233.69c252.62,-0.48 107.06,35.79 240.86,58.41z"/>
   <path class="fil0" d="M6286.25 7657.63l52.86 34.65 126.74 16.3 39.93 -197.44c-23.76,-82.79 -12.19,-57 -102.76,-100.44l-1.92 96.12c-92.76,47.4 -90.78,53.04 -114.85,150.82z"/>
   <path class="fil0" d="M5381.46 5291.65l169.6 0c49.96,-104.37 59.39,-86.81 64.54,-206.76l-86.07 -44.96 -82.83 28.43c30.79,90.67 -30.32,132.95 -65.24,223.29z"/>
   <path class="fil0" d="M5454.21 5875.88l196.96 0c8.59,-97.51 60.41,-216.65 -31,-247.24 -78.45,42.51 -59.95,24.69 -109.12,117.28 -23.52,44.3 -33.35,80.16 -56.84,129.96z"/>
   <path class="fil0" d="M6403.02 7410.69c90.57,43.44 79,17.65 102.76,100.44l98.8 -2.12 31.43 -15.81 1.21 -210.7 -117.45 -5.67c-26.4,71.54 -50.38,92.99 -116.76,133.86z"/>
   <path class="fil0" d="M2370.31 6226.41l0.08 -49.37c-26.26,-24.48 -55.44,-49.67 -81.56,-70.75 -50.56,-40.79 -22.89,-34.33 -89.38,-46.77l-53.11 -6.85c-19.56,191.66 -11.79,37.56 -63.65,173.74l287.61 0z"/>
   <path class="fil0" d="M4977.54 5710.54l105.26 -45 16.86 -198.61 -131.24 0c-9.34,88.73 -63.73,171.04 9.13,243.61z"/>
   <path class="fil0" d="M4753.57 5073.72l85.82 -29.08c-2.46,-85.8 -18.76,-36.9 -17.22,-77.98 1.54,-40.76 3.13,-0.33 27.07,-83.96l-190.67 0 25.5 137.46 69.49 53.57z"/>
   <path class="fil0" d="M6286.25 4765.69l4.42 -116.69 -5.25 -37.49c-114.8,-77.7 -50.2,-40.74 -162.48,-33.75 8.51,146.81 12.39,159.63 163.31,187.93z"/>
   <path class="fil0" d="M2082.83 3889.5l89.99 -116.14c4.39,-6.04 19.63,-23.19 26.63,-29.93l-116.76 -126.13c-62.85,47.63 -40.37,128.74 -38.62,220.13l38.75 52.07z"/>
   <path class="fil0" d="M6636.02 7493.2l-31.43 15.81c-28.7,102.25 -26.94,162.5 90.34,148.92 51.54,-63.8 113.07,-74.54 116.77,-175.56l-113.57 74.74 -62.1 -63.91z"/>
   <path class="fil0" d="M2491.37 1543.47c44.87,54.92 25.46,40.19 89.56,68.05l95.39 -84.78 -38.85 -91c-86.78,3.16 -116.21,41.72 -146.1,107.73z"/>
   <polygon class="fil0" points="6636.55,4882.69 6694.93,4882.69 6674.64,4815.59 "/>
  </g>
 </g>
</svg>
