<?xml version="1.0" encoding="UTF-8"?>
<!DOCTYPE svg PUBLIC "-//W3C//DTD SVG 1.1//EN" "http://www.w3.org/Graphics/SVG/1.1/DTD/svg11.dtd">
<!-- Creator: CorelDRAW 2021 (64-Bit) -->
<svg xmlns="http://www.w3.org/2000/svg" xml:space="preserve" width="8.26772in" height="11.6929in" version="1.1" style="shape-rendering:geometricPrecision; text-rendering:geometricPrecision; image-rendering:optimizeQuality; fill-rule:evenodd; clip-rule:evenodd"
viewBox="0 0 8267.72 11692.91"
 xmlns:xlink="http://www.w3.org/1999/xlink"
 xmlns:xodm="http://www.corel.com/coreldraw/odm/2003">
 <defs>
  <style type="text/css">
   <![CDATA[
    .fil0 {fill:white}
   ]]>
  </style>
 </defs>
 <g id="Layer_x0020_1">
  <metadata id="CorelCorpID_0Corel-Layer"/>
  <g id="_1688433218576">
   <path class="fil0" d="M5172.54 6107.02l-2604.46 0 0 -520.89 2604.46 0 -0 -1855.68c-0.02,-121.48 16.42,-508.44 -21.5,-597.06 -83.11,-194.22 -298.03,-150.9 -467.64,-150.92l-3709.11 0.62c-222.46,26.95 -234.93,209.1 -229.94,388.62 11.31,406.57 0.62,829.34 0.62,1237.74l0 2474.24c0,408.4 10.7,831.16 -0.62,1237.74 -12.78,459.56 202.69,386.29 538.35,389.49 914.44,8.74 1864.54,0.56 2782.96,0.56 205.92,0 411.87,-0.79 617.75,-0.81 169.61,-0.02 384.53,43.3 467.64,-150.92 37.92,-88.62 21.48,-475.57 21.5,-597.06l0 -1855.68z"/>
   <path class="fil0" d="M5172.54 5586.13l0 520.89 1448.73 0c-17.54,45.14 -440.74,448.88 -512.76,520.89l-500.51 500.58c-23.37,29.94 -12.02,26.73 3.78,44.99l248.53 247.95c45.15,45.15 76.42,62.15 77.29,101.76 45.81,-0.67 33.06,-8.25 113.92,-89.56l1322.46 -1322.69c307.96,-307.97 68.51,-460.52 -203.33,-732.37l-1119.13 -1119.07c-74.83,-75.24 -68.56,-88.89 -113.92,-89.56 -0.87,39.61 -32.14,56.61 -77.29,101.76 -31.4,31.4 -58.18,58.08 -89.58,89.48l-154.96 154.32c-39.78,42.59 -9.22,47.76 102.08,159.05 147.5,147.5 889.05,874.56 903.43,911.56l-1448.73 0z"/>
  </g>
 </g>
</svg>
