<?xml version="1.0" encoding="UTF-8"?>
<!DOCTYPE svg PUBLIC "-//W3C//DTD SVG 1.1//EN" "http://www.w3.org/Graphics/SVG/1.1/DTD/svg11.dtd">
<!-- Creator: CorelDRAW 2021 (64-Bit) -->
<svg xmlns="http://www.w3.org/2000/svg" xml:space="preserve" width="8.26772in" height="11.6929in" version="1.1" style="shape-rendering:geometricPrecision; text-rendering:geometricPrecision; image-rendering:optimizeQuality; fill-rule:evenodd; clip-rule:evenodd"
viewBox="0 0 8267.72 11692.91"
 xmlns:xlink="http://www.w3.org/1999/xlink"
 xmlns:xodm="http://www.corel.com/coreldraw/odm/2003">
 <defs>
  <style type="text/css">
   <![CDATA[
    .fil0 {fill:white}
   ]]>
  </style>
 </defs>
 <g id="Layer_x0020_1">
  <metadata id="CorelCorpID_0Corel-Layer"/>
  <path class="fil0" d="M2093.91 4209.5c19.13,14.04 50.56,32.43 64.61,46.5 28.96,28.99 38.31,28.26 62.14,48.97l822.68 642.6c20.44,21.54 100.91,73.33 128.32,100.85l412.1 317.07c19.09,12.37 16.63,17.06 33.45,29.05l383.61 296.94c34.42,20.81 35.02,32.46 60.81,50.3 11.77,8.14 22.96,11.25 34.25,21.3 24.9,22.16 3.95,21.11 34.48,28.02 25.24,0 2.56,-7.35 64.49,-46.62 26.19,-16.61 28.91,-32.01 60.54,-50.57l318.7 -243.8c24.8,-17.04 31.54,-31.03 65.21,-52.84l154.48 -123.3c11.59,-9.17 22.52,-12.17 34.37,-21.19 24.96,-19.01 34.98,-31.04 65.36,-52.7l442.11 -342.61c49.41,-45.99 364.27,-280.36 381.76,-298.8 27.5,-28.99 38.81,-26.94 62.35,-48.76l387.08 -300.43c65.22,68.31 51.85,66.14 99,126.71 26.65,34.24 9.19,-3 49.94,61.17 5.77,9.08 12.73,14.89 19.56,22.11 25.33,26.76 9.09,20.17 30.94,45.44 11.67,13.49 26.46,22.65 37.06,39.33l32.6 50.74c-375.76,297.64 -763.99,583.3 -1138.04,882.79l-852.33 661.56c-295.02,245.82 -326.79,255.83 -626.63,3.2 -172.71,-145.52 -399.65,-297.5 -571.56,-442.33 -91.21,-76.85 -191.11,-147.64 -284.52,-222.43 -374.05,-299.49 -762.28,-585.15 -1138.04,-882.79 9.36,-24.96 -2.09,0.66 13.89,-20.87l115.94 -154.86c10.43,-16.59 25.45,-25.93 37.05,-39.34 21.86,-25.27 5.61,-18.68 30.94,-45.44 35.91,-37.94 14.94,-20.13 31.91,-44.5 8.33,-11.96 32.33,-33.11 39.37,-40.48zm-921.88 -800.34c-208.07,52.07 -150.06,370.5 -152.16,542.28 -8.33,679.5 -0.61,1400.13 -0.61,2082.72l0.93 1735.18c0.99,107.28 -13.59,238.72 5.38,341.84 44.67,242.91 328.34,177.26 515.45,178.99 1376.46,12.7 2783.58,0.94 4165.73,0.94l1040.56 -1.1c104.61,-0.06 236.92,14.95 337.1,-10.13 218.8,-54.76 154.28,-361.85 156.44,-538 8.33,-679.5 0.61,-1400.13 0.61,-2082.72l-0.93 -1735.18c-0.99,-107.28 13.59,-238.72 -5.38,-341.84 -44.67,-242.91 -328.34,-177.26 -515.45,-178.99 -1376.46,-12.7 -2783.58,-0.94 -4165.73,-0.94 -95.23,0 -1320.33,-8.47 -1381.94,6.94z"/>
 </g>
</svg>
