<?xml version="1.0" encoding="UTF-8"?>
<!DOCTYPE svg PUBLIC "-//W3C//DTD SVG 1.1//EN" "http://www.w3.org/Graphics/SVG/1.1/DTD/svg11.dtd">
<!-- Creator: CorelDRAW 2021 (64-Bit) -->
<svg xmlns="http://www.w3.org/2000/svg" xml:space="preserve" width="8.26772in" height="11.6929in" version="1.1" style="shape-rendering:geometricPrecision; text-rendering:geometricPrecision; image-rendering:optimizeQuality; fill-rule:evenodd; clip-rule:evenodd"
viewBox="0 0 8267.72 11692.91"
 xmlns:xlink="http://www.w3.org/1999/xlink"
 xmlns:xodm="http://www.corel.com/coreldraw/odm/2003">
 <defs>
  <style type="text/css">
   <![CDATA[
    .fil0 {fill:#17285E;fill-rule:nonzero}
   ]]>
  </style>
 </defs>
 <g id="Layer_x0020_1">
  <metadata id="CorelCorpID_0Corel-Layer"/>
  <g id="_2519465658736">
   <g>
    <path class="fil0" d="M2432.61 7032.01c0,-137.3 -95.28,-219.19 -263.37,-219.19 -68.64,0 -115.13,6.77 -139.45,13.26l0 440.53c28.79,6.48 64.19,8.64 112.97,8.64 179.18,0 289.85,-90.52 289.85,-243.24z"/>
    <path class="fil0" d="M3473.24 6817.44c-75.28,0 -123.93,6.5 -152.7,13.24l0 975.65c28.79,6.76 75.28,6.76 117.31,6.76 305.39,2.16 504.56,-165.94 504.56,-522.14 2.15,-309.74 -179.34,-473.51 -469.17,-473.51z"/>
    <path class="fil0" d="M5406.65 1712.81l-3320.65 0c-485.11,0 -879.95,395.11 -879.95,879.95l0 3253.89 -85.94 0c-195.8,0 -354.59,158.63 -354.59,354.6l0 2150.42c0,195.95 158.77,354.57 354.59,354.57l85.94 0 0 394.32c0,485.37 394.83,879.95 879.95,879.95l4530.88 0c484.81,0 879.69,-394.59 879.69,-879.95l0 -5305.15 -2089.93 -2082.6zm-3710.91 4876.52c103.92,-17.56 249.98,-30.8 455.78,-30.8 207.97,0 356.2,39.7 455.79,119.44 95.14,75.14 159.34,199.17 159.34,345.14 0,145.93 -48.65,270 -137.17,354.04 -115.13,108.37 -285.39,157.02 -484.57,157.02 -44.33,0 -84.06,-2.2 -115.13,-6.5l0 533.23 -334.04 0 0 -1471.57zm4921.14 2852.29l-4530.88 0c-187.84,0 -340.8,-152.96 -340.8,-341.06l0 -394.32 4223.71 0c195.83,0 354.6,-158.62 354.6,-354.57l0 -2150.42c0,-195.97 -158.77,-354.6 -354.6,-354.6l-4223.71 0 0 -3253.89c0,-187.56 152.98,-340.52 340.8,-340.52l3119.04 -3.26 0 1152.91c0,336.75 273.24,610.24 610.24,610.24l1129.4 -3.24 12.7 5091.66c0,188.11 -152.69,341.07 -340.51,341.07zm-3634.83 -1387.48l0 -1464.81c123.89,-19.72 285.38,-30.8 455.79,-30.8 283.22,0 466.87,50.81 610.78,159.17 154.86,115.13 252.14,298.65 252.14,562.13 0,285.39 -103.92,482.43 -247.84,604.02 -157.02,130.53 -396.05,192.43 -688.06,192.43 -174.87,0 -298.76,-11.07 -382.81,-22.14zm2414.9 -867.26l0 274.3 -535.53 0 0 599.72 -338.5 -0 0 -1491.29 911.58 0 0 276.46 -573.08 0 0 340.81 535.53 0z"/>
   </g>
   <g>
   </g>
   <g>
   </g>
   <g>
   </g>
   <g>
   </g>
   <g>
   </g>
   <g>
   </g>
   <g>
   </g>
   <g>
   </g>
   <g>
   </g>
   <g>
   </g>
   <g>
   </g>
   <g>
   </g>
   <g>
   </g>
   <g>
   </g>
   <g>
   </g>
  </g>
 </g>
</svg>
