<?xml version="1.0" encoding="UTF-8"?>
<!DOCTYPE svg PUBLIC "-//W3C//DTD SVG 1.1//EN" "http://www.w3.org/Graphics/SVG/1.1/DTD/svg11.dtd">
<!-- Creator: CorelDRAW 2021 (64-Bit) -->
<svg xmlns="http://www.w3.org/2000/svg" xml:space="preserve" width="8.26772in" height="11.6929in" version="1.1" style="shape-rendering:geometricPrecision; text-rendering:geometricPrecision; image-rendering:optimizeQuality; fill-rule:evenodd; clip-rule:evenodd"
viewBox="0 0 8267.72 11692.91"
 xmlns:xlink="http://www.w3.org/1999/xlink"
 xmlns:xodm="http://www.corel.com/coreldraw/odm/2003">
 <defs>
  <style type="text/css">
   <![CDATA[
    .fil0 {fill:#030980}
   ]]>
  </style>
 </defs>
 <g id="Layer_x0020_1">
  <metadata id="CorelCorpID_0Corel-Layer"/>
  <g id="_1932378718496">
   <g id="_2190132140064">
    <path class="fil0" d="M7242.16 8527.85l-3055.56 0c17.75,-39.56 776.05,-783.05 874.98,-881.95 40.24,-40.23 78.92,-64.24 114.56,-100.72l329.9 -329.83c207.96,-207.97 451.86,-461.07 658.95,-661.27 43.53,-42.08 43.89,28.04 118.82,71 25.37,14.54 38.37,30.94 58.98,52.13 28.23,29.02 39.46,26.49 62.88,48.23 16.34,15.18 34.87,38.41 51.52,52.64 24.75,21.16 33.5,17.94 62.73,48.38 29.23,30.44 37.97,27.23 62.72,48.39 17.84,15.25 37.26,40.76 55.1,56.01l122.85 99.37c22.05,12.95 39.66,34.62 57.81,53.3 27.38,28.19 38.46,24.09 62.93,48.18 66.6,65.54 87.56,73.93 114.28,101 40.22,40.77 75.09,60.94 117.83,104.39 20.95,21.3 55.57,32.36 115.49,99.79 27.23,30.65 13.21,162.74 13.21,209.01 0,293.98 0,587.96 0,881.94l0.02 0zm444.44 -4386.77l0 170.64c-4.69,220.67 0,446.62 0,667.53 0,462.96 0,925.93 0,1388.89 0,685.52 -6.96,1399.8 -0.75,2082.57 0.11,12.42 0.39,25.08 0.75,37.9l0 196.68c-10.22,119.71 -52.34,225.15 -198.33,262.28 -94.55,24.06 -236.96,10.14 -337.28,9.94l-5206.72 0.17c-262.14,-25.83 -263.52,-226.11 -258.29,-436.15 5.72,-229.39 0.63,-464.97 0.63,-695.08 0,-462.96 0,-925.93 0,-1388.89 0,-685.54 6.96,-1399.8 0.75,-2082.58 -0.91,-99.98 -13.82,-237.09 15.56,-331.66 22.17,-71.35 107.65,-151.15 178.13,-169.09 56.33,-14.34 271.58,-7.74 340.38,-6.84 115.34,1.51 231.64,-0.1 347.12,-0.1l4860.39 0.71c201.09,19.81 248.73,142.29 257.66,293.07l0.01 0zm-5555.55 4386.77l-0.72 -1271.56c-0.5,-57.37 16.35,-56.03 52.82,-93.01 102.24,-103.68 358.84,-312.96 447.83,-406.33 28.99,-30.42 50.54,-34.99 76.78,-62.1 23.8,-24.58 47.96,-49.49 72.16,-73.67 25.13,-25.1 46.88,-31.07 76.8,-62.09l378.59 -336.69c19.18,-15.64 50.75,-50.39 69.42,-69.47 31.04,-31.74 71.64,-54.56 149.04,-135.68 28.21,-29.57 50.38,-34.54 80.13,-65.71l219.03 -204.58c13.96,-10.48 27.87,-15.59 41.82,-27.62 18.32,-15.8 19.47,-26.84 37.69,-38.7l1111.11 1111.11c207.09,207.08 194.52,165.76 132.07,229.12 -147.1,149.26 -296.48,296.41 -444.57,444.49l-999.98 1000.02c-77.36,77.26 -44.9,62.07 -159.8,62.43l-1340.23 0.05 0.01 -0.01zm4249.99 -3173.61c-17,60.25 32.43,218.68 -191.06,440.88 -214.04,212.8 -578.07,236.02 -811.93,55.17 -97.98,-75.77 -165.03,-156.49 -208.75,-270.42 -65.19,-169.88 -73.54,-344.3 12.59,-515.06 38.43,-76.17 74.86,-125 132.88,-186.57 42.97,-45.6 137.24,-100.45 195.56,-123.88 172.01,-69.08 355.97,-66.85 523.44,16.59 34.64,17.26 73.83,30.83 100.83,58.89 17.73,18.42 113.26,82.32 153.81,165.63 38.97,80.06 73.39,134.58 90.53,228.99 5.64,31.09 -1.93,44.52 3.48,73.72 10.68,57.65 11.67,9.76 -1.39,56.05l0 0.01z"/>
    <path class="fil0" d="M1242.17 8069.5l0 -3833.32c0,-132.88 -16.23,-522.34 12.65,-626.24 19.93,-71.67 77.87,-141.63 144.1,-175.34 87.54,-44.56 192.83,-30.44 287.87,-31.57 849.3,-10.19 1705.32,-0.18 2555.38,-0.18 851.85,0 1703.69,0 2555.56,0 0,-129.94 6.36,-275.83 0.81,-403.59 -4.61,-106.17 -64.26,-196.48 -160.86,-241.92 -85.7,-40.31 -649.31,-21.15 -784.4,-21.15l-3222.21 0c-535.8,0 -1075.4,-6.33 -1610.72,0.19 -125.09,1.52 -241.16,-26.6 -343.19,59.25 -75.71,63.7 -96.91,121.05 -101.65,195.06l0 107.39c6.75,264.6 0,539.06 0,804.78l0 3222.21 0 629.03c3.77,74.61 10.3,132.31 21.15,155.37 45.44,96.6 135.76,156.24 241.92,160.85 127.76,5.55 273.65,-0.81 403.59,-0.81l0 0z"/>
   </g>
  </g>
 </g>
</svg>
