<?xml version="1.0" encoding="UTF-8"?>
<!DOCTYPE svg PUBLIC "-//W3C//DTD SVG 1.1//EN" "http://www.w3.org/Graphics/SVG/1.1/DTD/svg11.dtd">
<!-- Creator: CorelDRAW 2021 (64-Bit) -->
<svg xmlns="http://www.w3.org/2000/svg" xml:space="preserve" width="8.26772in" height="11.6929in" version="1.1" style="shape-rendering:geometricPrecision; text-rendering:geometricPrecision; image-rendering:optimizeQuality; fill-rule:evenodd; clip-rule:evenodd"
viewBox="0 0 8267.72 11692.91"
 xmlns:xlink="http://www.w3.org/1999/xlink"
 xmlns:xodm="http://www.corel.com/coreldraw/odm/2003">
 <defs>
  <style type="text/css">
   <![CDATA[
    .fil0 {fill:#17285E}
   ]]>
  </style>
 </defs>
 <g id="Layer_x0020_1">
  <metadata id="CorelCorpID_0Corel-Layer"/>
  <g id="_2821196867360">
   <path class="fil0" d="M1638.41 6323.94c35.4,-32.7 35.06,11.6 128.47,-44.2 19.05,-11.38 39.06,-14.37 54.99,-45.75 0.81,-1.6 1.32,-3.38 2.17,-4.97 0.85,-1.62 1.56,-3.31 2.5,-4.93l37.8 -73.06c0.54,-1.51 1.33,-3.37 1.84,-4.88 20.54,-59.61 1.1,-144.01 -0.86,-162.09 -6.35,-58.56 3.37,-249.55 5.07,-319.14l9.07 -44.05c0.36,-1.46 0.94,-3.43 1.23,-4.89 0.39,-2.01 1.06,-7.78 1.24,-9.8l26.2 -196c0.01,-0.06 3.04,-9.7 3.05,-9.77 0.38,-1.47 1.02,-3.42 1.37,-4.89l9.3 -44.04c0.38,-1.47 1.02,-3.42 1.37,-4.89l61.66 -210.11c14.02,-51.5 7.72,-41.35 32.24,-92.76l210.69 -413.81c0.94,-1.58 1.67,-3.28 2.54,-4.87 0.86,-1.55 1.43,-3.32 2.27,-4.87l32.23 -53.47c0.84,-1.56 1.42,-3.31 2.36,-4.87 11,-18.2 22.81,-23.11 35.18,-38.68 31.14,-39.21 -12.91,-0.26 25.7,-43.76 18.11,-20.4 34.75,-33.71 47.4,-58.12 0.8,-1.55 1.39,-3.32 2.29,-4.87 6.64,-11.46 10.24,-14.4 20.13,-24.21 22.79,-22.63 67.3,-58.88 85.17,-82.02 25.19,-32.63 -1.5,-17.85 65.72,-82.35 21.44,-20.57 45.22,-50.26 69.91,-65.6 22.98,-14.28 25.94,-6.66 59.62,-39.85l64.93 -62.62c27.92,-20.05 9.2,-5.13 19.82,-9.95l193.81 -131.91c17.55,-8.79 -7,10.43 24.77,-12.69 7.54,-5.48 12.43,-11.75 19.94,-17.28 28.23,-20.75 16.59,-9.3 44.59,-22.47 1.61,-0.76 3.35,-1.59 4.95,-2.34l217.87 -102.75c1.03,-0.33 8.84,-2.33 9.87,-2.66l113.69 -42.82c1.61,-0.72 3.34,-1.59 4.96,-2.37 7.39,-3.59 9.25,-5.76 14.87,-8.35 20.59,-9.5 39.5,-7.26 59.17,-13.48l177.66 -49.77c0.45,-0.15 13.69,-4.37 14.81,-4.65l93.59 -16.29c1.5,-0.37 3.44,-1.09 4.93,-1.43l123.01 -12.94c1.49,-0.31 3.44,-0.97 4.93,-1.33 1.5,-0.37 3.43,-1.09 4.94,-1.48 29.21,-7.45 63,-2.32 93.48,-9.78 47.86,-11.7 230.19,0.65 275,1.41 13.01,0.22 26.3,0.54 39.28,0.65 12.7,0.1 30.41,-0.68 44.15,2.72l352.48 64.93c1.51,0.55 3.37,1.35 4.88,1.87l48.93 10.14c1.48,0.4 3.41,1.06 4.89,1.52l117.15 41.69c27.09,9.55 -9.55,-3.37 9.76,3.44l9.76 3.44c1.5,0.53 3.39,1.2 4.88,1.72l204.82 83.99c1.57,0.83 3.3,1.64 4.87,2.45l150.82 82.34c1.73,1.22 3.12,2.41 4.85,3.56l9.72 5.75c1.56,0.87 3.31,1.56 4.87,2.37l170.07 105.7c40.06,35.71 53.85,34.59 82.37,64.9 17.66,18.78 23.09,27.91 43.54,38.5 17.63,9.13 -8.24,-9.46 19.49,9.12 41.52,27.81 151.37,154.7 193.03,197.83 -29.44,13.18 -81.2,3.52 -113.01,2.96 -47.82,-0.84 -137.75,-11.8 -186.62,0.12l-103.47 19.05c-1.49,0.45 -3.44,0.89 -4.93,1.35 -51.53,15.89 -101.06,74.16 -118.56,124.58l1.54 171.92c15.34,49.76 71.72,100.63 119.7,116.89l39.06 12.93c47.98,8.84 294.41,5.72 373.13,7.06 19.64,0.33 39.28,0.63 58.91,1.02l565.1 -17.8c1.52,-0.47 3.42,-1.16 4.94,-1.64 1.52,-0.47 3.42,-1.11 4.94,-1.57 1.51,-0.47 3.43,-1.04 4.94,-1.5l29.64 -9.81c31.02,-16.87 81.07,-67.53 92.48,-97.99 0.23,-0.61 3.35,-10.81 4.65,-14.65l3.41 -9.76c0.54,-1.51 1.29,-3.38 1.82,-4.89l7.66 -24.42c0.41,-2.37 0.84,-9.51 1.04,-14.71l24.33 -844.31c0.14,-6.22 0.24,-11.12 0.35,-14.73l-23.56 -128.1c-14.33,-46.52 -69.28,-99.99 -114.81,-115.31l-68.48 -15.87c-24.88,-0.22 -49.24,-4.09 -73.7,1.98l-29.63 9.43c-26.46,7.96 -17.15,-2.41 -44.55,20.28l-60.41 58.35c-22.76,25.65 -15.65,26.57 -25.22,53.59l-7.02 19.53c-3.35,11.72 -1.58,1.94 -3.23,14.68l-2.98 58.88c-7.35,27.59 -20.48,30.48 5.91,59.04 -24.43,24.67 -24.58,33.41 -1.02,58.91l-19.98 19.3 19.3 19.98 -19.98 19.3c23.57,25.5 23.41,34.24 -1.02,58.92l19.3 19.98 -19.98 19.3 19.3 19.98 -19.98 19.3 -178.69 -174.98c-36.87,-18.27 -75.43,-79.67 -111.26,-98.22 -18.4,-9.53 7.49,12.29 -24.33,-12.67 -23.25,-18.23 -36.78,-37.88 -62.96,-51.62l-38.72 -33.13c-13.91,-12.38 3.66,1.27 -9.69,-7.94 -18.12,-12.5 -8.53,-4.13 -14.61,-7.24l-58.24 -40.41c-1.54,-0.82 -3.33,-1.35 -4.87,-2.2l-9.72 -5.49c-10.88,-7 -12.52,-10.64 -24.25,-17.65l-116.65 -70.39c-1.58,-0.81 -3.29,-1.7 -4.87,-2.52l-243.44 -122.74c-1.54,-0.72 -3.33,-1.51 -4.87,-2.16l-97.52 -40.86c-1.5,-0.52 -3.39,-1.19 -4.89,-1.7 -1.49,-0.52 -3.39,-1.19 -4.88,-1.71l-63.46 -22.37c-1.91,-0.67 -7.1,-2.5 -9.76,-3.44l-151.44 -46.63c-0.86,-0.23 -14.2,-4.92 -14.65,-5.08l-180.93 -45.5c-1.45,-0.3 -3.44,-0.75 -4.89,-1.09l-112.61 -20.22c-1.46,-0.28 -3.43,-0.85 -4.89,-1.2l-9.76 -3.15c-28.86,-8.43 -60.86,-3.31 -88.21,-11.34l-147.04 -17.33c-10.97,-0.13 -15.94,-0.22 -24.55,-0.37 -16.36,-0.29 -32.73,-0.57 -49.1,-0.85l-225.84 -3.94c-36.6,-0.97 -66.68,9.38 -103.28,8.09 -12.28,-0.43 2.46,0.22 -9.82,-0.21l-167.27 16.89c-25.1,2.38 16.3,-3.59 -9.85,1.64 -10.48,2.09 -5.72,2.05 -14.8,4.15l-261.16 50.02c-1.47,0.29 -3.46,0.74 -4.93,1.09l-19.75 6.24c-1.52,0.49 -3.42,1.13 -4.94,1.63l-44.44 14.04c-1.51,0.48 -3.42,1.08 -4.94,1.55l-19.75 6.21c-1.52,0.47 -3.43,1.07 -4.94,1.55l-9.87 3.1c-1.52,0.47 -3.43,1.07 -4.94,1.55l-54.32 17.07c-1.51,0.47 -3.43,1.07 -4.94,1.55 -2.03,0.64 -7.85,2.47 -9.88,3.1 -2.78,0.87 -7,2.2 -9.87,3.11 -1.51,0.47 -3.43,1.07 -4.94,1.55l-59.26 18.59c-1.51,0.46 -3.43,1.05 -4.93,1.51l-128.61 53.22c-1.56,0.67 -3.39,1.39 -4.95,2 -1.53,0.59 -3.41,1.18 -4.94,1.7l-113.82 49.84c-8.7,4.15 -18.21,8.97 -24.76,12.03l-99.12 51.87c-52.21,26.81 -96.1,65.28 -148.91,91.46 -18.15,9 7.24,-11.45 -24.77,12.33 -8.94,6.65 -16.52,16.48 -24.96,23.48l-129.17 85.45c-29.58,28 -41.92,40.06 -74.66,57.57 -27.07,14.47 -309.88,289.44 -329.1,314.33 -23.33,30.23 -4.7,21.99 -30.07,48.59 -25.5,26.74 -50.54,48.95 -62.82,72.58 -10.32,19.87 -38.53,39.48 -51.14,58.05 -11.92,17.56 -4.39,9.14 -7.17,14.61l-171.6 272.06c-0.84,1.6 -1.87,3.26 -2.71,4.87l-137.71 272.65c-0.95,2 -3.31,7.75 -4.11,9.75l-73.63 209.91c-0.02,0.06 -3.43,9.71 -3.44,9.76l-26.44 92.86c-0.34,1.46 -0.86,3.43 -1.26,4.89 -0.3,1.08 -5,14.22 -5.15,14.65l-36.18 156.53c-0.34,1.47 -0.99,3.42 -1.37,4.89l-39.98 239.96c0,2.02 -0.13,7.8 -0.13,9.82 0,3.46 0.15,13.89 0.13,14.74l-9.89 525.33c0.02,2.02 0.01,7.81 0.2,9.82l22.67 74.06c0.75,1.63 1.74,3.33 2.52,4.96 3.18,6.56 4.39,7.87 7.65,14.86 12.11,26.02 34.91,59.16 62.49,75.74l19.5 9.13c10.59,5.39 14.1,8.46 24.32,13.37 2,0.96 7.74,3.49 9.75,4.28 0.99,0.39 11.47,4.01 14.65,4.81 28.02,7.01 24,-10.78 53.7,18.64z"/>
   <path class="fil0" d="M1665.63 7591.5l14.25 24.8c6.92,29.11 -2.36,103.92 -2.11,137.47 0.01,1.43 0.12,3.49 0.13,4.92 0.19,23.66 9.39,23.19 -16,48.83l15.01 34.64c0.71,13.32 -0.19,1.1 -0.69,14.72l-4.71 53.94c-0.14,0.5 -3.16,9.27 -3.3,9.77l-0.13 93.31c0.37,1.5 1.06,3.44 1.4,4.94l13.69 64.08c14.89,48.44 9.32,36.33 51.09,79.56 8.94,9.26 24.71,27.31 33.87,34.59l43.87 19.21c1.5,0.52 3.38,1.22 4.88,1.74l112.76 11.61c12.03,-1.15 7.24,-0.61 19.72,-4.15 1.52,-0.43 3.42,-1.13 4.94,-1.59 1.53,-0.47 3.41,-1.19 4.94,-1.68l29.62 -8.86c2.03,-0.69 7.85,-2.46 9.88,-3.39 27.4,-12.47 76.56,-60.73 91.24,-85.65 21.85,-37.07 23.23,-98.22 28.57,-117.38 0.42,-1.49 1.21,-3.39 1.65,-4.88l5.88 -53.93c0.53,-65.91 -4.42,-171.35 3.98,-230.76 1.91,-13.48 -1.61,-5.63 5.22,-19.56 5.23,5.41 14.16,15.9 19.29,20.33 26.46,22.87 31.39,11.04 67.9,49.57 43.72,46.15 87.02,98.79 135.08,140.57 43.71,38 5.08,-8.56 48.61,29.59 13.89,12.17 29.02,33.65 43.42,44.83 36.39,28.22 4.53,-11.46 48.59,30.63l43.64 32.3c24.34,12.82 22.86,20.94 43.56,37.45 25.63,20.46 10.96,6.58 19.45,11 1.54,0.8 3.33,1.35 4.87,2.17 1.58,0.85 3.3,1.57 4.87,2.49l29.11 20.65c1.58,0.94 3.29,1.66 4.87,2.54 1.55,0.86 3.32,1.43 4.87,2.27 1.55,0.83 3.33,1.41 4.87,2.26l136.12 80.67c1.6,0.89 3.27,1.69 4.87,2.66l48.58 30.61c6.15,3.15 8.45,4.73 14.59,7.96l190 88.85c1.54,0.65 3.34,1.44 4.87,2.16l117.05 47.56c1.5,0.53 3.39,1.19 4.88,1.72l9.76 3.44c5.7,2.01 10.5,3.7 14.65,5.16 2,0.71 7.76,2.74 9.76,3.44 4.15,1.46 8.94,3.15 14.65,5.17 1.49,0.53 3.38,1.19 4.88,1.72l53.7 18.94c1.5,0.52 3.39,1.19 4.88,1.72l117.27 34.95c1.51,0.55 3.36,1.35 4.87,1.87l14.66 4.54c1.44,0.33 3.45,0.7 4.89,0.98 1.8,0.34 22.1,2.82 24.5,3.37l205.48 45.83c19.05,5.54 3.22,3.78 24.46,5.48l112.76 11.66c24.39,3.46 -15.52,-4.19 9.78,2.06 10.31,2.55 5.75,2.3 14.65,4.81l9.78 2.74c2.09,0.41 9.73,1.17 14.71,1.43l318.97 14.97c2.02,0.05 7.8,0.23 9.82,0.29 43.31,1.29 43.99,-9.57 132.73,-7.37 10.46,0.26 16.09,0.7 24.57,-0.67 1.46,-0.24 3.46,-0.75 4.93,-1.06 1.49,-0.31 3.44,-0.98 4.93,-1.34l19.74 -5.36c2.07,-0.33 9.82,-0.85 14.75,-0.91l113.1 -8.29c1.47,-0.22 3.46,-0.74 4.93,-1.03l39.42 -7.7c1.44,-0.2 3.48,-0.37 4.92,-0.61 1.46,-0.24 3.47,-0.63 4.93,-0.93l157.67 -29.47c1.49,-0.35 3.44,-1.02 4.93,-1.35l29.54 -3.98c1.45,-0.23 3.47,-0.53 4.93,-0.81l39.5 -12.14c1.52,-0.49 3.42,-1.09 4.94,-1.58l251.85 -79.49c0.27,-0.1 13.54,-4.04 14.81,-4.43 1.51,-0.46 3.43,-1.02 4.94,-1.48 1.51,-0.46 3.43,-1.05 4.94,-1.51 1.51,-0.46 3.43,-1.07 4.94,-1.53l29.63 -9.22c1.5,-0.46 3.43,-1.02 4.94,-1.48 1.5,-0.46 3.43,-0.97 4.93,-1.44l525.35 -276.05c44.87,-37.23 4.33,5.12 44.62,-24.29 18.35,-13.39 28.96,-32.37 49.87,-43.61l9.89 -3.95c1.55,-0.7 3.4,-1.1 4.94,-1.83 35.2,-16.72 64.39,-60.17 99.55,-76.86 24.48,-11.62 306.81,-280.66 327.57,-311.65l11.4 -24.36c18.04,-31.09 59.9,-57.18 77.97,-91.96 12.81,-24.67 43.57,-43.66 56.28,-67.79 18.49,-35.13 60.99,-81.12 80.57,-116.48l199.99 -364.89c0.83,-1.57 1.64,-3.3 2.46,-4.87 0.81,-1.56 1.58,-3.31 2.39,-4.87l27.35 -58.46c0.51,-1.49 1.13,-3.39 1.65,-4.88l22.12 -63.46c0.67,-1.54 1.45,-3.33 2.18,-4.87l92.32 -278.34c1.5,-7.91 -0.86,-0.02 3.77,-14.67l89.39 -514.13c9.87,-35.09 11.23,-256.71 1.96,-294.64 -0.36,-1.5 -1.03,-3.44 -1.34,-4.94l-0.7 -68.77c0.14,-4.72 0.62,-14.39 0.63,-14.72l-19.73 -103.48c-0.78,-2.53 -2.79,-10.04 -4.26,-14.81 -0.46,-1.5 -0.88,-3.44 -1.38,-4.93l-74.49 -90.15c-7.6,-6.75 -1.93,-2.57 -9.69,-7.94 -16.95,-11.73 -7.43,-4.46 -14.6,-7.5 -1.5,-0.64 -3.39,-1.16 -4.89,-1.71 -1.48,-0.56 -3.4,-1.04 -4.88,-1.55l-166.83 -9.06c-53.77,16.97 -76.63,33.13 -119.09,86.54 -16.47,20.71 -10.76,18.96 -17.55,38.99l-7.07 19.52c-3.36,9.75 -2.55,5.41 -4.74,14.65 -3.05,12.81 -2.34,32.31 -2.44,44.16 -0.39,49.65 -7.22,80.62 4.31,127.77l2.82 39.34c-2.23,74.78 8.3,186.48 -11.04,255.19 -4.08,14.5 1.23,53.54 -5.65,88.3l-6.04 19.54c-0.41,1.48 -1.14,3.41 -1.5,4.89l-31.06 181.18c-0.38,1.47 -1.03,3.42 -1.37,4.89 -0.34,1.45 -0.8,3.44 -1.09,4.89 -0.11,0.56 -1.09,10.09 -1.91,14.7l-32.92 117.3c-20.47,57.45 -1.84,25.67 -24.16,87.99l-170.74 389.94c-7.72,13.82 -3.44,5.83 -13.14,19.42 -1.26,1.78 -2.59,3.07 -3.83,4.84l-11.34 19.45c-0.83,1.55 -1.41,3.32 -2.27,4.87l-33 53.46c-0.8,1.57 -1.7,3.29 -2.51,4.86l-51.05 77.7c-0.82,1.52 -1.28,3.35 -2.06,4.88 -0.78,1.52 -1.23,3.35 -2.04,4.87 -13.21,24.82 -35.56,37.56 -48.28,63.01l-49.61 58.08c-28.38,36.19 11.48,4.81 -30.1,48.59 -33.94,35.74 -85.73,78.26 -102.78,111.18 -13.5,26.09 -45.68,50.65 -68.09,72.54l-69.65 51.99c-44.31,23.69 -75.38,81.8 -119.63,101.86 -11.05,5.01 8.39,-10.41 -19.81,9.95 -28.33,20.44 -45.48,44.81 -74.69,59.19 -22.67,11.16 -27.48,23.33 -49.71,34.43l-39.73 25.5c-17.09,13.43 -4.28,4.89 -19.86,12.83l-94.26 54.74c-1.63,0.91 -3.33,1.65 -4.96,2.49l-128.74 60.93c-1.6,0.76 -3.35,1.52 -4.95,2.3l-39.59 17.78c-0.76,0.24 -9.11,2.42 -9.87,2.66l-44.56 20.44c-2.03,0.88 -7.85,3.01 -9.89,3.7l-286.39 89.43c-2.02,0.65 -7.85,2.63 -9.88,3.3l-44.44 14.22c-1.48,0.35 -3.46,0.8 -4.93,1.09l-246.2 36.83c-2.02,0.02 -7.8,-0.13 -9.82,0.07 -13.03,1.25 -2.7,0.06 -14.78,2.98 -47,11.35 -94.87,1.85 -142.63,11.91 -32.19,6.78 -178.76,2.26 -206.24,-1.68l-460.24 -81.95c-1.48,-0.46 -3.4,-1.12 -4.88,-1.53l-151.44 -46.64c-1.49,-0.53 -3.38,-1.2 -4.88,-1.72 -2,-0.71 -7.76,-2.74 -9.76,-3.45 -1.5,-0.52 -3.39,-1.19 -4.88,-1.72l-9.76 -3.44c-1.49,-0.53 -3.38,-1.19 -4.88,-1.72l-97.63 -34.05c-1.5,-0.54 -3.39,-1.12 -4.88,-1.71l-9.76 -4.09c-1.57,-0.74 -3.3,-1.65 -4.87,-2.45l-267.7 -139.79c-1.59,-0.89 -3.27,-1.69 -4.86,-2.65 -9.48,-5.76 -6.74,-4.92 -14.55,-10.48l-9.7 -7.33c-1.64,-1.06 -3.22,-2.02 -4.86,-3l-77.72 -49.62c-14.34,-8.69 -12.28,-10.28 -24.2,-20.31 -44.19,-37.18 -5.25,4.04 -43.75,-26.18 -30.19,-23.7 -30.77,-32.4 -67.82,-53.9 -27.87,-16.16 -48.49,-50.34 -72.44,-71.17 -34.81,-30.28 -19.59,0.36 -92.02,-74.88 -30.5,-31.69 -61.12,-63.27 -91.68,-94.9 24.83,-11.11 51.77,-4.07 78.65,-3.6 74.02,1.3 147.67,8.41 220.93,4.17 37.02,-2.15 35.22,-8.76 64,-8.89l78.92 -19.59c31.56,-14.36 91.01,-85.25 91.25,-85.65l25.28 -156.72c-0.22,-1.46 -0.64,-3.46 -0.94,-4.93 -0.3,-1.48 -0.84,-3.45 -1.21,-4.93l-12.18 -39.5c-10.6,-34.4 -16.73,-33.19 -56.56,-75.01 -14.47,-15.2 -21.98,-25.19 -38.72,-33.51 -40.41,-20.1 -77.66,-22.2 -122.38,-22.93 -73.91,-1.21 -361.26,-17.87 -446.93,0.19 -13.86,2.92 -31.52,1.53 -44.22,1.19l-324.04 -5.64c-6.5,-0.13 -13.04,-0.3 -19.64,-0.49l-133.04 24.94c-53.1,17.82 -98.79,79.49 -108.86,108.55 -0.7,2 -2.42,7.76 -3.1,9.77l-3.41 9.76c-22.93,64.76 -16.05,367.93 -17.25,441.71l-1.07 58.92c-0.42,1.48 -0.98,3.42 -1.57,4.89l-13.52 19.41z"/>
  </g>
 </g>
</svg>
