<?xml version="1.0" encoding="UTF-8"?>
<!DOCTYPE svg PUBLIC "-//W3C//DTD SVG 1.1//EN" "http://www.w3.org/Graphics/SVG/1.1/DTD/svg11.dtd">
<!-- Creator: CorelDRAW 2021 (64-Bit) -->
<svg xmlns="http://www.w3.org/2000/svg" xml:space="preserve" width="8.26772in" height="11.6929in" version="1.1" style="shape-rendering:geometricPrecision; text-rendering:geometricPrecision; image-rendering:optimizeQuality; fill-rule:evenodd; clip-rule:evenodd"
viewBox="0 0 8267.72 11692.91"
 xmlns:xlink="http://www.w3.org/1999/xlink"
 xmlns:xodm="http://www.corel.com/coreldraw/odm/2003">
 <defs>
  <style type="text/css">
   <![CDATA[
    .fil0 {fill:white}
   ]]>
  </style>
 </defs>
 <g id="Layer_x0020_1">
  <metadata id="CorelCorpID_0Corel-Layer"/>
  <path class="fil0" d="M5229.75 7254.82c-0.99,2.87 0.38,61.69 0.4,69.85l-7.31 48.24c-0.56,1.61 -1.55,3.22 -2.08,4.87 -12.08,37.62 -3.26,40.83 -11.47,64.92l-10.7 30.96c-0.57,1.65 -1.32,3.41 -1.89,5.06 -8.36,24.22 -8.37,47.63 -19.92,70.35l-55.82 124.74c-0.71,1.42 -1.61,3.21 -2.31,4.63l-145.54 222.51c-1.42,1.44 -5.68,5.36 -7.12,6.77l-27.89 27.67c-38,38.01 -77.63,90.5 -124.94,118.11l-78.89 53.05c-1.31,0.8 -3.18,1.66 -4.5,2.45l-208.43 104.07c-1.5,0.64 -3.28,1.52 -4.73,2.21 -39.28,18.55 -73.97,23.44 -114.83,37.94 -2.11,0.74 -7.78,3.25 -9.97,3.92l-59.91 9.54c-18.22,5.85 12.94,2.99 -26.06,8.66 -29.51,4.29 -71.48,-4.11 -99.01,5.16 -19.21,6.47 13.61,2.93 -25.99,8.73 -43.07,6.3 -86.85,0.94 -127.58,-10.65 -34.93,-9.94 -75.09,3.92 -110.33,-7.73l-58.81 -10.64c-18.6,-3.51 -10.99,-3.36 -15.83,-5l-92.28 -25.77c-1.63,-0.56 -3.39,-1.37 -4.94,-2.01l-120 -53.61c-0.26,-0.13 -9,-4.5 -9.26,-4.63l-199.13 -127.26c-7.92,-4.65 -4.63,-1.54 -13.63,-7.19l-168.1 -179.12c-14.15,-17.78 -5.11,-3.44 -17.39,-17.34l-67.16 -99.51c-0.78,-1.32 -1.71,-3.13 -2.45,-4.49l-96.25 -216.25c-3.2,-17.29 -0.44,-12.28 -5.53,-29.19 -0.66,-2.19 -3.05,-7.98 -3.78,-10.1l-24.06 -100.94c-10.19,-31.72 -4.22,-59.33 -9.33,-94.84 -6.54,-45.42 -11.48,4.69 -14.06,-55.39 -0.94,-21.76 0.6,-47.61 0.37,-70.09l11.11 -72.22c8.11,-28.56 -2.33,-62.38 5.82,-91.4l7.93 -19.85c9.95,-37.31 1.1,-34.82 9.62,-59.82l65.08 -184.93c0.72,-1.4 1.65,-3.17 2.37,-4.57l70.98 -130.41c0.84,-1.22 1.95,-2.93 2.76,-4.18l37.81 -59.41c0.81,-1.25 1.92,-2.96 2.76,-4.19 48,-69.7 131.9,-156.43 193.4,-209.38l125.19 -83.15c1.63,-1.22 6.02,-5.02 7.69,-6.2l50.2 -26.19c1.62,-0.81 7.65,-3.82 9.26,-4.63l120.47 -53.14c1.5,-0.65 3.28,-1.52 4.73,-2.21l184.72 -51.39c18.22,-5.85 -12.94,-2.99 26.06,-8.67 29.51,-4.29 71.48,4.12 99.01,-5.16 23.76,-8 91.62,-15.62 128.45,-7.68l10.44 3.45c1.62,0.54 3.23,1.55 4.83,2.11 32.25,11.5 75.25,1.5 106.3,11.76 19.74,6.52 -13.7,2.62 26.38,8.34l260.85 79.43c1.41,0.72 3.21,1.61 4.62,2.32l158.24 91.76c1.22,0.84 2.93,1.95 4.19,2.76l59.84 44.32c7.92,4.65 4.63,1.54 13.63,7.2l232.07 267.93c3.77,5.83 3.73,5.07 8.9,11.93 1.23,1.63 5.02,6.02 6.2,7.69l75.72 153.45c0.69,2.16 2.35,8.69 3.04,10.85l13.83 41.72c0.56,1.71 1.13,3.55 1.7,5.25l19.67 56.72c3.35,11.09 1.47,3.71 4.02,16.81 3.44,17.68 0.61,12.03 5.88,28.85l10.45 58.99c10.59,52.64 9.01,16.69 11.78,92.39 0.76,20.82 0.15,14.11 5.3,29.42l9.49 95.53c0.37,53.75 -10.19,43.17 -14.32,55.13zm-3097.22 -3409.72l2666.67 0 0 888.89 -2666.67 0 0 -888.89zm5111.11 4763.89l0 -4500c-34.01,-12.31 -673.3,-666.42 -690.94,-684.06 -116.61,-116.62 -228.83,-228.83 -343.78,-343.72 -45.94,-45.91 -290.54,-279.49 -329.84,-329.89 -8.37,-10.73 -5.16,-2.75 -10.44,-17.33l-4500 0c-10.4,25.77 3.43,8.19 -33.62,14.98l-164.52 92.43 -126.39 179.17c-24.04,52.43 -22.69,123.89 -22.69,185.64l0 4923.61c0,73.26 -9.99,429.35 6.81,479.31l46.17 120.5c0.97,1.88 3.7,7.33 4.77,9.12l182.89 171.28 116.31 43.41c42.83,11.42 4887.94,2.77 5386.11,2.77 31.25,0 67.18,1.76 97.73,0.51 37.02,-1.52 61.69,-16.63 102.26,-29.68l43.2 -19.3c1.43,-0.71 3.27,-1.54 4.69,-2.25l143.13 -120.76c6.39,-10.07 3.37,-7.81 9.84,-17.93 2.26,-3.54 7.08,-9.02 12.05,-15.73l22.41 -40.09c0.95,-1.9 3.84,-7.2 4.76,-9.12 24.46,-50.69 13.63,-82.59 39.08,-92.86z"/>
 </g>
</svg>
