<?xml version="1.0" encoding="UTF-8"?>
<!DOCTYPE svg PUBLIC "-//W3C//DTD SVG 1.1//EN" "http://www.w3.org/Graphics/SVG/1.1/DTD/svg11.dtd">
<!-- Creator: CorelDRAW 2021 (64-Bit) -->
<svg xmlns="http://www.w3.org/2000/svg" xml:space="preserve" width="8.26772in" height="11.6929in" version="1.1" style="shape-rendering:geometricPrecision; text-rendering:geometricPrecision; image-rendering:optimizeQuality; fill-rule:evenodd; clip-rule:evenodd"
viewBox="0 0 8267.72 11692.91"
 xmlns:xlink="http://www.w3.org/1999/xlink"
 xmlns:xodm="http://www.corel.com/coreldraw/odm/2003">
 <defs>
  <style type="text/css">
   <![CDATA[
    .fil0 {fill:#17285E}
   ]]>
  </style>
 </defs>
 <g id="Layer_x0020_1">
  <metadata id="CorelCorpID_0Corel-Layer"/>
  <path class="fil0" d="M1587.03 5207.96c-1.51,-4.38 -0.61,-206.89 1.61,-217.16 8.02,-37.22 15.93,-14.77 14.38,-99.06 -0.76,-41.31 13.65,-60.28 16.43,-97l18.39 -111.25c0.52,-2.23 1.05,-4.31 1.64,-6.47l59.14 -192.04c2.45,-7.55 3.15,-11.06 5.68,-18.63 0.65,-1.96 1.44,-4.04 2.11,-5.99l37.26 -92.37c2.56,-5.06 4.78,-9.52 8.12,-16.19l8.1 -16.21c0.83,-1.66 1.87,-3.75 2.7,-5.4 3.15,-6.31 5.81,-11.61 8.1,-16.2l85.98 -157.1c0.96,-1.48 2.07,-3.6 2.99,-5.11l140.27 -200.04c22.37,-22.7 50.9,-43.46 67.63,-70.12l127.3 -123.88c22,-22.57 45.22,-49.23 72.79,-64.95l162.05 -113.43c1.54,-0.92 3.72,-1.93 5.25,-2.86 1.5,-0.92 3.63,-2.03 5.11,-2.99l328.1 -158.04c2,-0.65 4.14,-1.32 6.12,-1.98l66.48 -22.65c1.94,-0.67 4.04,-1.46 5.99,-2.11l177.83 -49.04c33.96,-9 44.22,-1.17 97.22,-16.21 26.76,-7.59 57.99,-2.52 86.32,-2.81 44.04,-0.45 92.41,-31.64 258.99,-17.09 13.22,1.15 9.07,0.42 20.61,3.7 64.08,18.23 77.15,5.1 132.65,13.19 41.42,6.04 17.1,10.39 89.52,15.81 13.77,1.03 8.68,0.17 20.9,3.41 2.06,0.54 3.96,1.55 5.93,2.17l153.33 41.13c7.38,2.46 11.08,3.22 18.57,5.74 1.96,0.66 4.05,1.44 5.99,2.11 1.94,0.67 4.01,1.5 5.94,2.17 1.93,0.67 4,1.5 5.94,2.17l258.74 105.87c1.66,0.83 3.75,1.87 5.4,2.7l333.53 217.44c58.4,45.34 135.39,135.68 194.75,194.16l98.78 128.1c0.94,1.47 2.24,3.46 3.22,4.89 1.35,1.98 5.71,7.16 7.12,9.08l126.64 213.67c5.87,11.32 2.57,6.41 8.7,15.61 16.4,24.6 18.12,18.44 28.63,52.4l8.58 23.83c0.77,1.71 1.89,3.72 2.7,5.4 1.09,2.25 4.46,8.43 5.59,10.62 0.84,1.63 1.93,3.7 2.77,5.33l16.58 32.04c6.67,14.63 1.02,0.11 6.96,17.34l41.87 128.29c0.71,2.09 3.62,9.79 4.33,11.87l52.93 206.35c2.19,10.46 1.89,19.72 1.93,30.48 0.27,72.17 16.48,63.8 15.93,154.22 -0.43,72.03 13.44,287.42 -8.13,348.44l-9.79 79.33c-9.67,48.02 -2.97,-11.98 -12.61,36l-12.19 68.83c-5.63,17.95 -2.06,6.19 -5.92,26.5 -2.13,11.23 -0.39,7.76 -3.83,20.47 -16.48,60.96 -29.57,127.6 -58.11,184.97l-40.63 97.11c-0.84,1.64 -1.9,3.73 -2.73,5.37l-54.04 108.01c-0.83,1.66 -1.87,3.74 -2.69,5.41l-167.7 253.63c-21.57,34.37 -57.76,57.06 -78.15,92l-49.94 55.39c-25.15,25.08 -42.25,49.02 -71.59,66.15 -0.69,0.41 -10,5.12 -10.69,5.52 -35.14,20.51 -59.91,56.91 -102.44,83.91 -11.89,7.55 -15.35,12.91 -25.8,22.81l-314.73 187.62c-1.65,0.83 -3.74,1.88 -5.39,2.72l-50.34 22.58c-14.05,4.39 -10.89,1.97 -25.07,7.34l-252.96 79.24c-2.06,0.57 -4.05,1.43 -6.05,2.06l-135.56 26.49c-51.23,1.43 -47.13,16.12 -96.63,16.81 -71.99,0.99 -337.31,9.44 -383.89,-6.23l-17.14 -7.17c-26.51,-7.46 -56.85,0.68 -84.1,-5.02 -47.67,-9.97 11.9,-3.05 -35.94,-12.68l-538.29 -199.04c-1.67,-0.82 -3.76,-1.85 -5.43,-2.67l-285.15 -201.01 -137.43 -138.04c-11.68,-11.68 -18.68,-18.72 -28.43,-28.29l-264.65 -399.75c-3.34,-6.67 -5.56,-11.15 -8.11,-16.19l-8.22 -16.09c-0.83,-1.63 -1.96,-3.67 -2.8,-5.31l-44.87 -109.07c-0.69,-1.98 -1.24,-4.2 -1.89,-6.21l-28.1 -85.33c-0.67,-1.94 -1.46,-4.03 -2.11,-5.99l-42.16 -160.4c-0.8,-2.53 -3.91,-8.96 -4.71,-11.5 -8.15,-25.86 -1.56,-45.66 -7.26,-73.77 -7.88,-38.91 -1.08,-0.27 -8.89,-23.52 -10.61,-31.64 -2.44,-73.78 -5.03,-108.41 -4.8,-64.13 -6.61,-10.37 -16.8,-39.91zm3289.6 2017.51l48.61 0c12.91,35.67 220.74,228.84 243.07,251.18l745.43 745.42c48.34,48.37 931.37,918.73 976.32,976.38 9.77,12.53 6.02,3.22 12.18,20.23l32.41 0c8.22,-22.7 481.51,-498.68 542.61,-551.22 21.52,-18.5 -3.55,-5.78 24.56,-15.95l0 -32.41 -1972.98 -1964.82c-12.53,-9.76 -3.22,-6.02 -20.23,-12.18l0 -48.61c17.41,-6.3 8.07,0.12 20.15,-12.26 22.06,-22.59 2.16,-4.63 18.19,-30.43 0.93,-1.48 2.2,-3.48 3.17,-4.93l61.28 -92.67c0.02,-0.04 5.07,-11.07 5.09,-11.12l32.33 -48.69c0.96,-1.46 2.18,-3.5 3.08,-5.02l51.17 -102.78c0.83,-1.65 1.87,-3.75 2.7,-5.4 0.83,-1.65 1.87,-3.75 2.7,-5.4 0.83,-1.65 1.87,-3.74 2.7,-5.4 0.83,-1.65 1.87,-3.74 2.7,-5.4l48.68 -97.17c0.83,-1.63 1.93,-3.7 2.76,-5.34 0.84,-1.63 1.97,-3.67 2.8,-5.3l139.99 -394.77 43.75 -215.53c12.1,-37.83 7.12,-70 16.14,-97.29l10.84 -70.19c-0.25,-18.82 -2.39,-55.8 0.1,-72.82 7.74,-52.92 13.4,5.31 16.41,-64.62 2.61,-60.61 6.64,-256.06 -0.97,-308.09 -7.42,-50.7 -13.28,11.62 -15.22,-138.73l-11.16 -53.66c-9.37,-28.33 -1.29,-51.63 -9.07,-80.06 -15.57,-56.78 -8.59,-72.54 -20.72,-108.91l-99.54 -346.1c-3.35,-9.92 -5.57,-19.8 -9.47,-31.04l-158.54 -335.71c-0.82,-1.66 -1.87,-3.75 -2.69,-5.41l-10.8 -21.62c-5.54,-11.15 0.11,0.36 -5.37,-10.83l-85.48 -141.39c-0.98,-1.42 -2.28,-3.42 -3.22,-4.89 -0.95,-1.48 -2.06,-3.61 -2.97,-5.13l-86.65 -124.02c-23.8,-39.98 -46.81,-50.07 -64.85,-80.99 -18.6,-31.88 -53.07,-50.15 -72.63,-81.31 -0.95,-1.5 -1.97,-3.68 -2.88,-5.23l-8.39 -15.91c-0.93,-1.49 -2.11,-3.57 -3.11,-5 -5.72,-8.22 -10.65,-12.59 -19.35,-21.16 -28.25,-27.83 -51.15,-50.63 -77.24,-76.7l-76.64 -77.31c-0.23,-0.22 -17.78,-14.08 -18.12,-14.3l-67.29 -54.24c-41.73,-42.22 -49.19,-38.86 -97.11,-81.15l-113.56 -80.91c-1.91,-1.41 -7.1,-5.77 -9.07,-7.13 -1.43,-0.98 -3.43,-2.28 -4.89,-3.22l-43.73 -29.19c-1.43,-0.98 -3.42,-2.28 -4.88,-3.22l-102.24 -59.81c-70.93,-34.48 -31.9,-24.98 -91.7,-54.15 -1.68,-0.81 -3.77,-1.85 -5.44,-2.67l-43.24 -21.57c-1.65,-0.83 -3.74,-1.87 -5.4,-2.7l-80.9 -40.64c-2.2,-1.13 -8.38,-4.5 -10.62,-5.59l-54.08 -18.84c-1.85,-0.7 -3.97,-1.57 -5.76,-2.33 -1.76,-0.75 -3.82,-1.77 -5.53,-2.57l-32.41 -16.21c-14.39,-5.46 -16.63,-4.2 -31.31,-9.19 -1.95,-0.67 -4.12,-1.38 -6.01,-2.09 -1.86,-0.7 -3.98,-1.58 -5.77,-2.34l-86.84 -34.7c-1.95,-0.66 -4.04,-1.46 -6,-2.11l-30.74 -9.77c-1.93,-0.66 -4.01,-1.5 -5.94,-2.16 -1.93,-0.67 -4,-1.5 -5.93,-2.17l-149.89 -44.57c-24.94,-8.85 8.98,0.07 -17.72,-6.59 -42.14,-10.51 -42.2,-2.35 -69.52,-11.5l-69.37 -11.66c-2.06,-0.55 -3.98,-1.52 -5.95,-2.15l-192.62 -26.15c-15.24,-0.56 -14.7,-0.05 -28.46,-3.96l-108.71 -12.82c-126.59,0.44 -254.96,-6.01 -381.42,-0.57 -70.09,3.02 -11.63,8.78 -64.62,16.4 -21.04,3.04 -51.34,-1.68 -72.82,0.1 -65.06,5.4 1.68,9.31 -64.83,16.2l-42.62 6c-1.93,0.61 -3.8,1.77 -5.7,2.41l-11.66 4.55c-42.07,11.1 -41.96,2.48 -69.37,11.66l-81.15 16.08c-1.93,0.63 -3.84,1.7 -5.79,2.31l-65.06 15.97c-7.98,2.74 -19.87,6.4 -30.54,9.98 -1.95,0.65 -4.04,1.44 -5.99,2.11l-151.78 50.78c-1.94,0.67 -4,1.5 -5.95,2.16l-48.32 16.5c-0.44,0.21 -11.78,6.56 -15.76,8.54l-70.72 26.52c-2.24,1.08 -8.42,4.45 -10.62,5.59 -1.64,0.83 -3.7,1.92 -5.34,2.76 -1.64,0.84 -3.72,1.9 -5.37,2.74 -1.64,0.83 -3.74,1.88 -5.38,2.72l-37.8 18.92c-0.01,0 -10.81,5.4 -10.81,5.4l-118.84 59.42c-0.06,0.03 -10.74,5.37 -10.8,5.4 -1.65,0.83 -3.74,1.87 -5.4,2.7l-112.99 65.27c-6.81,4.41 -5.9,4.34 -13.92,10.38l-46.1 26.83c-1.69,0.82 -3.86,1.73 -5.52,2.57 -2.21,1.12 -8.58,4.31 -10.67,5.54 -1.52,0.9 -3.55,2.13 -5.02,3.08l-183.25 132.75c-26.46,18.41 -44.25,43.33 -70.81,58.84l-75.68 70.16c-72.25,72.28 -178.3,159.2 -232.5,245.54 -0.94,1.48 -2.12,3.57 -3.11,4.99 -20.51,29.47 -39.25,40.63 -61.72,76.02l-94.48 124.29c-0.91,1.52 -2.02,3.64 -2.98,5.13l-56.4 81.34c-1.24,2.09 -4.42,8.46 -5.54,10.67l-7.67 16.64c-1.09,2.24 -4.09,8.79 -5.26,10.95l-154.28 291.35c-0.83,1.65 -1.9,3.73 -2.74,5.37 -0.84,1.63 -1.93,3.7 -2.76,5.34l-57.14 145.42c-0.66,1.95 -1.49,4.01 -2.16,5.95l-76.78 247.32c-0.57,2.06 -1.43,4.05 -2.06,6.05l-46.13 237.46c-14.75,53.72 -7.78,52.48 -12.48,109.06 -5.56,66.89 -7.74,-0.33 -16.11,56.81l-0.69 461.76c5.88,67.32 11.2,-3.07 16.8,64.22 1.79,21.48 -2.93,51.77 0.1,72.82 7.65,53.19 13.09,-5.94 15.93,65.09l107.37 435.5c0.66,1.96 1.44,4.04 2.09,6.01 2.58,7.92 3.07,11.33 5.49,18.81 0.65,2.02 1.2,4.23 1.89,6.21l32.44 81c0.67,1.95 1.37,4.11 2.09,6.01l39.96 97.78c1.08,2.24 4.46,8.42 5.59,10.62 0.83,1.63 1.93,3.7 2.76,5.34l105.55 194.24c0.53,0.89 7.93,15.64 8.17,16.14l18.56 38.16c0.82,1.68 1.78,3.82 2.61,5.5l25.47 39.35c1.01,1.37 2.52,3.22 3.49,4.62 0.98,1.42 2.28,3.42 3.22,4.88l44.11 69.31c0.94,1.46 2.24,3.46 3.22,4.89l215.04 271.11c0.91,1.56 1.86,3.76 2.76,5.34l186.11 194.72c35.42,30.46 35.29,18.21 85.06,68.89 8.56,8.71 12.93,13.63 21.16,19.35 1.43,0.99 3.51,2.17 4.99,3.11 33.82,21.22 56.6,50.13 91.54,70.52l38.34 26.48c11.92,7.61 9.15,3.94 20.91,11.5 9.25,5.95 15.55,12.54 21.83,18.68 6.19,6.05 12.46,12.98 21.62,18.89 1.48,0.95 3.57,2.09 5.12,2.98l10.76 5.44c1.68,0.83 3.85,1.75 5.55,2.56l75.63 45.91c1.51,0.93 3.63,2.04 5.11,2.99 1.46,0.95 3.46,2.24 4.88,3.22l125.52 68.94c2.19,1.13 8.56,4.32 10.64,5.56l437.92 185.97c1.94,0.67 4.03,1.45 5.99,2.11l242.65 65.24c12.22,3.24 7.13,2.38 20.9,3.41 12.75,0.96 27.13,-1.16 39.98,0.54 47.02,6.21 7.6,2.47 30.5,10.01 30.55,10.06 36.17,2.15 66.73,6.19 53.34,7.05 -5.66,13.24 64.78,16.25 41.48,1.76 82.87,-6.49 122.12,7.52 48,17.12 302.52,23.07 378.35,-2.47 25.81,-8.7 55.47,-5.98 83.62,-5.51 57.84,0.96 60.32,-10.48 137.62,-16.32 66.43,-5.02 0.19,-7.17 57.57,-15.36l196.07 -38.9c2.55,-0.77 9.31,-3.56 11.79,-4.42l24.35 -8.06c1.96,-0.67 4.09,-1.38 6.05,-2.05l17.69 -6.63c2.04,-0.61 4.07,-1.38 6.18,-1.93l107.57 -30.16c9.94,-3.35 19.78,-5.56 31.04,-9.47l200.74 -82.84c1.64,-0.84 3.73,-1.9 5.37,-2.74l216.19 -107.91c1.52,-0.91 3.56,-2.13 5.02,-3.08l37.74 -27.08c2.16,-1.17 8.71,-4.17 10.95,-5.25l124.7 -77.86c1.53,-0.93 3.78,-1.87 5.24,-2.86 1.43,-0.97 3.55,-2.15 4.87,-3.23 23.72,-19.46 6.99,2.6 16.59,-23.93z"/>
 </g>
</svg>
