<?xml version="1.0" encoding="UTF-8"?>
<!DOCTYPE svg PUBLIC "-//W3C//DTD SVG 1.1//EN" "http://www.w3.org/Graphics/SVG/1.1/DTD/svg11.dtd">
<!-- Creator: CorelDRAW 2021 (64-Bit) -->
<svg xmlns="http://www.w3.org/2000/svg" xml:space="preserve" width="8.26772in" height="11.6929in" version="1.1" style="shape-rendering:geometricPrecision; text-rendering:geometricPrecision; image-rendering:optimizeQuality; fill-rule:evenodd; clip-rule:evenodd"
viewBox="0 0 8267.72 11692.91"
 xmlns:xlink="http://www.w3.org/1999/xlink"
 xmlns:xodm="http://www.corel.com/coreldraw/odm/2003">
 <defs>
  <style type="text/css">
   <![CDATA[
    .fil0 {fill:white}
   ]]>
  </style>
 </defs>
 <g id="Layer_x0020_1">
  <metadata id="CorelCorpID_0Corel-Layer"/>
  <path class="fil0" d="M812.44 5179.99c9.2,22.8 37.7,12.93 62.84,13.55 41.57,1.04 20.44,11.46 97.25,13.86 27.89,0.87 27.83,8.38 49.69,12.81 8.86,1.8 10.52,1.2 19.28,1.55l64 12.4c23.66,4.97 49.09,-2.17 72.08,4.3l31.05 10.61c28.71,3.98 42.59,-4.37 71.2,5.19 36.25,12.1 48.67,6.17 98.02,20.04 23.23,6.52 48.19,-0.72 72.08,4.3 40.8,8.59 -10.24,2.52 30.56,11.11 28.85,6.07 57.79,0.86 86.78,10.44 7.52,2.49 -4.25,1.63 16.46,4.37 34.33,4.54 38.58,0.09 66.86,9.53 24.37,8.14 68.58,3.31 92.39,11.77 27.3,9.7 54.81,2.63 81.94,8.33 32.11,6.76 13.64,8.16 70.84,12.49 55.12,4.18 -0.14,12.31 62.13,14.26l67.69 8.69c29.79,9.98 66.95,3.87 97.24,13.88l43.87 4.74c42.2,1.69 22.46,11.28 97.48,13.63 7.81,0.24 11.42,0.15 19.07,1.76l20.11 7.67c20.83,6.98 42.72,2.94 64.81,4.64 47.24,3.63 27.95,12.93 69.25,14.08l46.5 9.06c23.78,7.94 60.89,0.72 87.56,9.66l67.7 8.69c60.01,1.88 8.03,11.92 68.98,14.36 32.19,1.29 42.66,7.91 63.99,12.4 28.31,5.95 47.79,-3.61 77.11,6.22l67.69 8.7c60.01,1.87 8.03,11.91 68.98,14.36 32.2,1.29 42.67,7.91 64,12.39 25.28,5.31 51.5,-2.37 77.11,6.22 1.63,0.54 3.23,1.55 4.83,2.11 6.91,2.46 -6.51,0.97 15.28,5.56 13.2,2.78 27.06,1.08 40.54,1.13 42.12,0.16 21.67,10.56 69.18,14.15l50.72 4.83c32.23,10.65 65.97,3.4 97.23,13.88l9.66 4.23c31.63,10.6 65.08,3.25 97.23,13.88 29.2,9.65 41.13,-0.19 83.32,13.9 28.61,9.56 42.49,1.21 71.2,5.19 37.74,5.23 23.59,13.65 62.6,13.79 48.46,0.18 58.01,11.66 104.53,13.52 28.71,1.15 37.58,12.3 62.2,14.19 12.67,0.98 29.39,-1.36 42.06,-0.39 55.02,4.23 -0.65,12.49 61.94,14.45l58.04 4.46c1.63,0.54 3.23,1.55 4.83,2.11 28.08,9.91 49.52,2.22 78.49,11.79 19.17,6.33 -13.81,3.17 26.03,8.69 12.33,1.71 29.05,-0.4 41.67,-0 62.58,1.96 6.92,10.22 61.94,14.45 41.97,3.22 35.74,-3.95 74.48,8.85 28.97,9.57 50.41,1.88 78.49,11.79 22.2,7.83 62.51,2.86 87.37,9.85l14.69 6.15c19.02,6.37 55.17,1.61 77.11,6.22 21.54,4.53 8.65,3.21 15.28,5.55l131.94 20.83c32.67,-0.18 42.51,8 63.89,12.5 28.3,5.95 47.75,-3.59 77.11,6.22 19.98,6.67 -14.34,3.24 26.13,8.59 12.97,1.71 27.76,-0.78 40.73,0.94 20.71,2.74 8.94,1.89 16.46,4.37 29.59,9.78 56.6,4.09 86.78,10.44 40.68,8.56 -10,2.37 30.55,11.12 17.12,3.69 61.91,1.38 81.95,1.38l0 27.78c-109.96,0 -97.3,13.99 -138.63,14.15l-65.7 10.69c-17.2,4.72 -21.41,2.14 -38.83,2.84 -8.77,0.35 -10.43,-0.24 -19.28,1.55 -63.58,12.88 11.78,4.81 -84.97,12.25 -55.02,4.23 0.65,12.49 -61.94,14.45l-67.7 8.68c-28.02,9.26 -45.64,0.42 -73.66,9.68l-67.7 8.69c-62.59,1.96 -6.92,10.22 -61.94,14.45 -10.52,0.81 -24.56,-0.9 -35.28,-0.56 -27.89,0.87 -27.83,8.38 -49.69,12.81l-58.11 4.39c-1.74,0.48 -3.38,1.35 -5.05,1.9 -29.93,9.89 -74.2,7.16 -106.89,18.11 -23.81,7.98 -60.84,0.73 -87.57,9.66 -37.46,12.51 -41.64,4.19 -72.83,10.51l-10.5 3.39c-1.63,0.54 -3.23,1.54 -4.83,2.11l-9.86 4.03c-23.23,6.52 -48.19,-0.72 -72.08,4.3 -40.8,8.59 10.23,2.52 -30.56,11.11 -28.85,6.07 -57.8,0.86 -86.78,10.44 -7.52,2.49 4.25,1.63 -16.46,4.37 -34.33,4.54 -38.57,0.09 -66.86,9.53 -22.54,7.53 -65.34,2.21 -87.56,9.66l-9.66 4.23c-25.62,8.58 -51.83,0.9 -77.11,6.22 -32.12,6.76 -13.64,8.16 -70.84,12.49 -55.12,4.18 0.14,12.31 -62.13,14.26l-67.7 8.69c-29.79,9.98 -66.95,3.87 -97.23,13.88l-43.87 4.74c-62.81,2.52 -7.65,9.99 -62.2,14.19 -42.02,3.23 -35.63,-4.15 -74.47,8.87 -28.56,9.57 -42.5,1.22 -71.2,5.19 -20.72,2.87 -8.78,1.94 -16.37,4.47 -1.63,0.54 -3.23,1.55 -4.83,2.11 -1.61,0.56 -3.21,1.57 -4.84,2.11l-43.87 4.74c-42.2,1.69 -22.46,11.28 -97.48,13.63 -7.81,0.25 -11.42,0.15 -19.07,1.76l-84.92 12.3c-40.79,3.13 -17.72,4.39 -32.42,9.24 -19.7,6.51 -13.47,4.19 -36.83,4.84 -15.83,0.44 -16.52,-1.25 -31.78,2.94 -1.74,0.48 -3.38,1.35 -5.04,1.9 -6.03,1.99 -3.65,2.21 -9.67,4.22 -23.79,7.94 -60.89,0.72 -87.56,9.66 -19.52,6.54 13.99,3.16 -26.02,8.7 -12.33,1.71 -29.05,-0.4 -41.67,-0 -60.01,1.87 -8.03,11.91 -68.98,14.36 -32.19,1.29 -42.66,7.91 -63.99,12.39 -23.48,4.94 -48.06,-2.45 -72.08,4.31l-65.68 10.71c-42.11,0.16 -21.67,10.56 -69.18,14.15 -10.92,0.83 -23.25,-0.99 -34.26,0.46l-31.16 10.5c-25.91,7.28 -52.27,-1.27 -77.5,5.83l-19.72 8.06c-30.46,8.57 -61.51,1.82 -92.2,11.96 -7.52,2.48 4.25,1.63 -16.46,4.37 -11.01,1.46 -23.34,-0.37 -34.26,0.46 -41.12,3.12 -17.54,4.04 -32.6,9.07 -29.18,9.74 -56.31,0.18 -97.22,13.89 -22.73,7.62 -52.01,0.94 -77.11,6.22 -21.33,4.48 -31.8,11.1 -64,12.39 -8.76,0.35 -10.43,-0.24 -19.28,1.55l-84.97 12.25c-55.02,4.23 0.65,12.49 -61.94,14.45l-67.7 8.68c-27.27,9.01 -45.46,0.37 -73.65,9.68 -19.17,6.33 13.81,3.17 -26.04,8.69 -12.33,1.71 -29.05,-0.4 -41.67,-0.01 -62.59,1.96 -6.92,10.22 -61.94,14.45 -41.97,3.22 -35.74,-3.95 -74.48,8.85 -29.73,9.82 -54.24,4.19 -83.32,13.9 -7.59,2.54 4.35,1.6 -16.37,4.47 -12.33,1.71 -29.05,-0.4 -41.67,-0 -62.81,1.96 -6.81,10.42 -61.95,14.44 -12.15,0.89 -31.76,-1.89 -42.56,-0.89 -42.18,3.92 -18.81,-5.87 -27.07,14.6 -18.11,7.31 -9.91,-0.46 -14.06,20.66 -0.36,1.83 -0.22,30.59 -0.15,34.57 6.43,349.42 0.32,699.5 0.32,1048.93 0,372.69 0,745.37 0,1118.06 11.68,-0.26 2.65,0.83 12.24,-1.65l15.93 -4.9c1.51,-0.61 3.23,-1.58 4.7,-2.25l212.55 -93c12.58,-6.53 -3.42,1.81 9.17,-4.72 1.39,-0.72 3.17,-1.65 4.57,-2.37 1.39,-0.72 3.14,-1.69 4.55,-2.4l88.1 -36.89c1.39,-0.72 3.17,-1.66 4.57,-2.38l13.72 -7.11c12.71,-5.78 -0.2,-0.86 14.89,-5.94l105.49 -47.29c1.43,-0.7 3.16,-1.66 4.63,-2.32 1.48,-0.67 3.25,-1.54 4.77,-2.17l92.45 -39.49c12.71,-5.78 -0.2,-0.86 14.89,-5.95l50.31 -19.14c1.39,-0.72 3.17,-1.65 4.57,-2.37l27.46 -14.2c1.48,-0.67 3.25,-1.54 4.77,-2.17l139.15 -55.3c1.52,-0.63 3.29,-1.5 4.77,-2.17l83.26 -41.74c1.63,-0.61 3.48,-1.22 5.16,-1.78l21.7 -6.08c1.68,-0.57 3.52,-1.18 5.16,-1.79 1.6,-0.6 3.41,-1.34 4.96,-1.99l18.49 -9.28c1.4,-0.72 3.18,-1.65 4.57,-2.37 1.4,-0.72 3.19,-1.64 4.59,-2.36l402.96 -173.42c1.4,-0.71 3.15,-1.68 4.55,-2.4 1.4,-0.72 3.17,-1.65 4.57,-2.37l342.28 -150.78c1.43,-0.69 3.16,-1.65 4.63,-2.32l9.73 -4.16c1.63,-0.61 3.48,-1.22 5.16,-1.79 1.72,-0.58 3.6,-1.04 5.35,-1.59 0.15,-0.05 10.84,-2.86 10.98,-2.91l122.09 -51.52c1.92,-0.93 7.22,-3.82 9.1,-4.79l160.48 -68.69c1.75,-0.55 3.64,-1.01 5.35,-1.59 1.68,-0.57 3.52,-1.18 5.16,-1.79 1.6,-0.6 3.41,-1.34 4.96,-1.99l226.99 -99.4c1.46,-0.67 3.19,-1.62 4.63,-2.32l324 -141.28c1.4,-0.71 3.15,-1.68 4.55,-2.4 1.4,-0.72 3.17,-1.65 4.57,-2.38l13.74 -7.09c1.15,-0.59 13.5,-7.01 13.72,-7.11l133.8 -53.69c1.68,-0.57 3.52,-1.18 5.16,-1.79 1.6,-0.6 3.41,-1.34 4.96,-1.99l32.23 -16.38c1.39,-0.72 3.17,-1.65 4.57,-2.37l148.45 -66.83c1.63,-0.61 3.48,-1.22 5.16,-1.79 1.72,-0.58 3.6,-1.04 5.35,-1.59 0.14,-0.04 10.85,-2.86 10.98,-2.9l149.5 -65.78c1.39,-0.72 3.14,-1.69 4.55,-2.4l92.67 -39.27c1.39,-0.72 3.15,-1.69 4.55,-2.4l88.16 -36.84c4.31,-2.19 8.25,-4.13 13.87,-6.96l208.3 -90.32c1.39,-0.72 3.17,-1.65 4.57,-2.37l55.46 -20.93c1.59,-0.6 3.41,-1.35 4.96,-1.99l411.71 -178.57c1.6,-0.59 3.41,-1.34 4.96,-1.98 1.52,-0.63 3.29,-1.5 4.77,-2.17 1.46,-0.67 3.19,-1.63 4.63,-2.32l115.5 -51.17c1.41,-0.72 3.2,-1.61 4.61,-2.33l18.5 -9.28c1.41,-0.71 3.21,-1.61 4.61,-2.33l37.79 -17.76c12.41,-4.19 14.75,-3.35 26.85,-7.87l37.19 -18.37c3.57,-1.85 7.76,-4.3 13.67,-7.17l65.27 -25.01c1.41,-0.71 3.15,-1.68 4.55,-2.4 1.4,-0.72 3.18,-1.65 4.57,-2.37l134.41 -60.03c12.98,-4.86 19.03,-4.8 32.01,-9.66l32.63 -15.98c1.41,-0.72 3.2,-1.61 4.61,-2.33 1.41,-0.71 3.21,-1.61 4.62,-2.32l120.32 -53.29c3.57,-1.85 7.76,-4.3 13.67,-7.17l83.55 -34.5c1.4,-0.72 3.17,-1.66 4.57,-2.37l28.61 -13.06c8,-2.7 9.02,-2.21 16.34,-4.49l362.56 -158.27c1.4,-0.72 3.19,-1.63 4.59,-2.36l310.28 -134.17c2.52,-1.31 6.65,-3.41 9.17,-4.72l49.52 -19.93c1.75,-0.55 3.64,-1.01 5.35,-1.59l75.52 -35.58c8,-2.7 9.02,-2.21 16.34,-4.49 1.75,-0.55 3.64,-1.01 5.35,-1.59 1.68,-0.57 3.52,-1.18 5.16,-1.79 1.6,-0.6 3.41,-1.34 4.96,-1.99l9.4 -4.49c5.91,-2.87 10.1,-5.31 13.67,-7.17l9.17 -4.72c1.39,-0.72 3.17,-1.65 4.57,-2.37l111.2 -48.52c1.41,-0.72 3.21,-1.61 4.62,-2.33l120.12 -53.48c1.96,-0.89 7.65,-3.39 9.73,-4.16l21.5 -6.28c1.75,-0.55 3.64,-1.01 5.35,-1.59l97.22 -41.67c1.68,-0.57 3.52,-1.18 5.15,-1.79l152.97 -69.26c1.41,-0.72 3.2,-1.61 4.61,-2.33l92.66 -39.28c1.88,-0.97 7.29,-3.74 9.17,-4.72l97.22 -41.67c1.39,-0.72 3.17,-1.65 4.57,-2.37l60.42 -22.91c1.52,-0.63 3.29,-1.5 4.77,-2.17l54.97 -28.37c17.48,-6.09 16.85,-4.31 37.35,-4.31l0 -27.78 -37.35 -4.31c-1.61,-0.56 -3.31,-1.46 -4.84,-2.1 -1.5,-0.63 -3.19,-1.63 -4.63,-2.32l-96.97 -41.92c-0.22,-0.1 -12.57,-6.52 -13.72,-7.11 -1.39,-0.72 -3.17,-1.65 -4.57,-2.37l-9.17 -4.72c-1.39,-0.72 -3.17,-1.66 -4.57,-2.37l-55.46 -20.93c-1.6,-0.6 -3.41,-1.34 -4.96,-1.99l-143.5 -64.84c-1.4,-0.72 -3.18,-1.65 -4.57,-2.37l-69.2 -28.02c-1.6,-0.6 -3.41,-1.34 -4.96,-1.99l-226.73 -99.66c-4.31,-2.18 -8.25,-4.12 -13.87,-6.96 -1.41,-0.71 -3.21,-1.61 -4.63,-2.32 -21.35,-10.81 12,6.2 -9.21,-4.67l-78.94 -32.17c-1.41,-0.71 -3.15,-1.68 -4.55,-2.4 -1.4,-0.72 -3.18,-1.65 -4.57,-2.37l-37.19 -18.37c-1.63,-0.61 -3.48,-1.22 -5.16,-1.79l-92.07 -39.88c-12.1,-4.52 -14.44,-3.69 -26.85,-7.87 -15.09,-5.09 -2.18,-0.17 -14.89,-5.94l-41.13 -21.37c-1.43,-0.7 -3.16,-1.66 -4.62,-2.32l-190.19 -80.64c-1.4,-0.72 -3.17,-1.65 -4.57,-2.37l-22.84 -11.89c-1.43,-0.69 -3.16,-1.65 -4.63,-2.32l-9.73 -4.16c-1.63,-0.61 -3.48,-1.22 -5.16,-1.79 -8,-2.7 -9.02,-2.2 -16.34,-4.49l-172.95 -77.05c-1.63,-0.61 -3.48,-1.22 -5.16,-1.79l-31.81 -9.86c-1.52,-0.63 -3.29,-1.5 -4.77,-2.17l-180.48 -83.41c-1.63,-0.61 -3.48,-1.22 -5.16,-1.79l-64.04 -26.23c-3.57,-1.85 -7.76,-4.3 -13.67,-7.17l-14.35 -6.48c-12.1,-4.52 -14.44,-3.69 -26.85,-7.87 -15.09,-5.09 -2.18,-0.17 -14.89,-5.95 -0.22,-0.1 -12.57,-6.51 -13.72,-7.11 -1.4,-0.72 -3.17,-1.65 -4.57,-2.37l-37.19 -18.37c-1.63,-0.61 -3.48,-1.22 -5.16,-1.78l-21.7 -6.08c-1.68,-0.57 -3.52,-1.18 -5.16,-1.79 -1.59,-0.6 -3.41,-1.34 -4.96,-1.99l-46.16 -23.28c-1.41,-0.71 -3.21,-1.61 -4.62,-2.32l-42.41 -20.1c-1.72,-0.58 -3.61,-1.04 -5.35,-1.59l-58.69 -24.65c-1.39,-0.72 -3.17,-1.65 -4.57,-2.37l-60.42 -22.91c-1.52,-0.63 -3.29,-1.5 -4.77,-2.17l-152.7 -69.52c-1.63,-0.61 -3.48,-1.22 -5.16,-1.79l-26.85 -7.87c-1.6,-0.6 -3.41,-1.34 -4.96,-1.99l-60 -30.28c-3.24,-1.66 -8.05,-4.43 -13.68,-7.16 -1.43,-0.69 -3.16,-1.65 -4.62,-2.32 -1.48,-0.67 -3.25,-1.54 -4.77,-2.17l-102.18 -43.65c-1.63,-0.61 -3.48,-1.22 -5.16,-1.79 -8,-2.7 -9.02,-2.21 -16.34,-4.49l-172.95 -77.06c-1.63,-0.61 -3.48,-1.22 -5.16,-1.79l-433 -185.05c-46.06,-14.38 -56.36,-26.89 -89.15,-42.8l-83.56 -34.5c-1.39,-0.72 -3.17,-1.66 -4.57,-2.38l-55.46 -20.93c-1.6,-0.6 -3.41,-1.34 -4.96,-1.99l-32.23 -16.38c-3.57,-1.85 -7.76,-4.3 -13.67,-7.17l-101.85 -43.98c-12.71,-5.78 0.2,-0.86 -14.89,-5.95l-73.35 -30.82c-1.41,-0.71 -3.21,-1.61 -4.63,-2.32l-73.88 -30.29c-1.6,-0.59 -3.41,-1.34 -4.96,-1.98l-286.71 -123.02c-2.07,-0.78 -7.77,-3.27 -9.73,-4.16l-115.27 -51.4c-1.6,-0.6 -3.41,-1.34 -4.96,-1.99l-23.07 -11.66c-1.39,-0.72 -3.19,-1.63 -4.58,-2.36l-22.88 -11.85c-1.96,-0.89 -7.65,-3.38 -9.73,-4.16 -10.58,-3.96 -6.2,-1.85 -16,-4.83 -1.79,-0.54 -3.71,-0.89 -5.49,-1.45l-38.54 -17.02c-1.4,-0.72 -3.19,-1.63 -4.59,-2.36l-27.65 -14.02c-1.55,-0.65 -3.36,-1.39 -4.96,-1.99 -1.63,-0.61 -3.48,-1.22 -5.16,-1.79 -8,-2.7 -9.02,-2.2 -16.34,-4.49l-43.12 -19.38c-1.39,-0.72 -3.19,-1.63 -4.58,-2.36l-69.76 -27.46c-0.26,-0.12 -12.54,-6.5 -13.72,-7.11l-46.08 -23.36c-1.4,-0.72 -3.15,-1.69 -4.55,-2.4l-171.59 -71.46c-1.4,-0.72 -3.17,-1.65 -4.57,-2.37 -1.4,-0.72 -3.19,-1.64 -4.59,-2.36l-37.76 -17.79c-8,-2.7 -9.02,-2.21 -16.34,-4.49l-177.27 -79.68c-1.4,-0.71 -3.14,-1.69 -4.55,-2.39l-180.74 -76.2c-1.4,-0.72 -3.19,-1.63 -4.59,-2.36l-115.51 -51.15c-12.71,-5.78 0.2,-0.86 -14.89,-5.94l-96.39 -42.5c-1.4,-0.71 -3.14,-1.69 -4.55,-2.39l-40.41 -15.15c-1.75,-0.54 -3.64,-1.01 -5.35,-1.59l-42.35 -20.15c-1.39,-0.72 -3.17,-1.65 -4.57,-2.37l-83.48 -34.57c-1.4,-0.72 -3.19,-1.64 -4.58,-2.36l-88.07 -36.93c-1.4,-0.72 -3.17,-1.65 -4.57,-2.37l-42.35 -20.15c-12.41,-4.19 -14.76,-3.35 -26.85,-7.87l-51.12 -25.27c-1.41,-0.71 -3.21,-1.61 -4.62,-2.32l-18.34 -9.44c-1.89,-0.96 -7.22,-3.82 -9.18,-4.71l-56.09 -20.3c-5.91,-2.87 -10.1,-5.31 -13.67,-7.17l-92.65 -39.29c-1.4,-0.72 -3.17,-1.65 -4.57,-2.38l-37.19 -18.36c-1.63,-0.61 -3.48,-1.22 -5.16,-1.79 -8,-2.7 -9.02,-2.21 -16.34,-4.49l-107.74 -45.04c-2.07,-0.78 -7.77,-3.27 -9.73,-4.16l-88.42 -43.53c-8,-2.7 -9.02,-2.2 -16.34,-4.49 -1.75,-0.55 -3.64,-1.01 -5.35,-1.59 -1.68,-0.57 -3.52,-1.18 -5.16,-1.79l-204.17 -87.5c-1.96,-0.89 -7.28,-3.76 -9.17,-4.71l-192.81 -84.97c-1.75,-0.55 -3.64,-1.01 -5.35,-1.59l-14.82 -6.01c-1.44,-0.68 -3.15,-1.68 -4.56,-2.39 -25.35,-12.83 -5.72,-15.43 -46.17,-16.33l0 2090.28c0,23.2 0.22,46.41 -0.17,69.61 -1.16,69.76 -6.58,54 14.06,62.33z"/>
 </g>
</svg>
