<?xml version="1.0" encoding="UTF-8"?>
<!DOCTYPE svg PUBLIC "-//W3C//DTD SVG 1.1//EN" "http://www.w3.org/Graphics/SVG/1.1/DTD/svg11.dtd">
<!-- Creator: CorelDRAW 2021 (64-Bit) -->
<svg xmlns="http://www.w3.org/2000/svg" xml:space="preserve" width="8.26772in" height="11.6929in" version="1.1" style="shape-rendering:geometricPrecision; text-rendering:geometricPrecision; image-rendering:optimizeQuality; fill-rule:evenodd; clip-rule:evenodd"
viewBox="0 0 8267.72 11692.91"
 xmlns:xlink="http://www.w3.org/1999/xlink"
 xmlns:xodm="http://www.corel.com/coreldraw/odm/2003">
 <defs>
  <style type="text/css">
   <![CDATA[
    .fil0 {fill:#17285E}
   ]]>
  </style>
 </defs>
 <g id="Layer_x0020_1">
  <metadata id="CorelCorpID_0Corel-Layer"/>
  <path class="fil0" d="M3020.06 5909.17c-16.44,-104.03 39.69,-371.14 82.7,-472.85 109.97,-260.05 283.65,-450.52 532.7,-578.42 183.74,-94.36 257.33,-87.9 438.4,-117.1 129.56,-20.9 341.67,32.89 467.04,78.09 245.62,88.54 462.92,302.33 578.85,532.26 136.39,270.5 161.53,618.1 39.83,905.87 -133.15,314.85 -398.44,568.99 -732.44,656.45 -92.92,24.33 -148.34,24.5 -238.66,39.07 -117.89,19.02 -354.52,-29.61 -467.66,-77.46 -314.89,-133.16 -568.93,-398.44 -656.45,-732.44 -28.59,-109.09 -27.71,-128.41 -44.31,-233.47zm194.44 2159.72c12.84,128.47 90.96,758.29 117.16,848.12 48.44,166.09 215.06,123.74 355.58,123.58 303.22,-0.34 668.93,-5.55 964.87,0.64 324.98,6.8 271.91,-50.8 350.01,-615.27 9.65,-69.75 24.11,-144.14 29.64,-213.41 5.41,-67.78 5.63,-133.73 68.84,-174.21 39.21,-25.11 110.13,-48.24 159.86,-76.26 53.54,-30.17 100.25,-59.15 152.48,-90.37 239.25,-143 45.08,-168.86 652.79,68.17 81.9,31.94 279.57,127.03 351.09,137.42 136.48,19.83 192.11,-120.51 247.46,-218.32 58.03,-102.54 118.65,-206.04 178.5,-307.61 118.93,-201.83 231.49,-409.79 355.16,-608.41 96.2,-154.49 41.61,-217.82 -80.09,-311.77 -91.37,-70.54 -180.63,-144.12 -272.34,-214.15 -91.27,-69.7 -176.28,-144.5 -271.59,-208.72 -64.55,-43.49 -64.77,-81.65 -53.17,-154.07 31.37,-195.93 6.69,-288.65 -4.66,-458.3 -5.15,-77.09 24.45,-94.94 84.07,-132.48 81.07,-51.05 193.7,-151.33 274.06,-214.01 87.78,-68.46 179.4,-146.45 269.33,-209.93 139.28,-98.3 116.66,-195.21 34.24,-323.81 -122.9,-191.78 -237.84,-411.64 -354.02,-610.26 -58.75,-100.43 -118.65,-201.93 -176.25,-302.91 -68.95,-120.89 -107.43,-233.69 -277.87,-177.68 -91.73,30.14 -577.3,232.28 -689.9,280.88 -124.54,53.76 -143.7,-15.53 -309.93,-117.16 -55.59,-33.98 -270.56,-158.81 -322,-164.13 -14.35,-143.64 -34.29,-282.45 -53.84,-425.33 -15.49,-113.18 -33.98,-322.21 -63.32,-422.79 -48.44,-166.09 -215.06,-123.74 -355.58,-123.58l-965.27 -0.54c-329.09,-5.56 -267.67,48.89 -349.38,615.4 -10,69.31 -24.37,144.21 -29.87,213.19 -5.41,67.78 -5.64,133.73 -68.84,174.21 -39.21,25.11 -110.13,48.24 -159.86,76.26 -53.54,30.17 -100.25,59.15 -152.48,90.37 -156.39,93.47 -124.17,154.12 -310.57,68.22 -103.7,-47.79 -233.91,-94.14 -342.22,-136.38 -81.9,-31.94 -279.57,-127.03 -351.09,-137.42 -135.19,-19.64 -193.82,120.2 -247.08,218.7 -54.8,101.35 -119.2,208.29 -177.87,308.24 -116.47,198.42 -231.54,417.02 -355.43,608.13 -98.7,152.25 -40.92,218.18 79.35,311.03 145.85,112.59 410.14,332.52 543.65,423.16 65.19,44.26 65.32,79.77 53.47,153.78 -13.98,87.31 -13.63,147.83 -14.13,235.09 -2.28,390.26 152.96,173.29 -339.55,569.48 -87.29,70.22 -178.34,144.85 -268.96,210.29 -138.67,100.12 -118.16,192.96 -34.39,323.67 122.9,191.78 237.84,411.64 354.02,610.26 58.75,100.43 118.65,201.93 176.25,302.91 68.95,120.89 107.43,233.69 277.87,177.68 93.8,-30.82 574.87,-231.44 690,-280.99 65.11,-28.02 108.04,-26.41 165.63,16.37 52.52,39.02 90.41,64.61 144.71,100.37 51.4,33.85 272.7,159.6 321.48,164.65z"/>
 </g>
</svg>
