<?xml version="1.0" encoding="UTF-8"?>
<!DOCTYPE svg PUBLIC "-//W3C//DTD SVG 1.1//EN" "http://www.w3.org/Graphics/SVG/1.1/DTD/svg11.dtd">
<!-- Creator: CorelDRAW 2021 (64-Bit) -->
<svg xmlns="http://www.w3.org/2000/svg" xml:space="preserve" width="8.26772in" height="11.6929in" version="1.1" style="shape-rendering:geometricPrecision; text-rendering:geometricPrecision; image-rendering:optimizeQuality; fill-rule:evenodd; clip-rule:evenodd"
viewBox="0 0 8267.72 11692.91"
 xmlns:xlink="http://www.w3.org/1999/xlink"
 xmlns:xodm="http://www.corel.com/coreldraw/odm/2003">
 <defs>
  <style type="text/css">
   <![CDATA[
    .fil6 {fill:#031B5C}
    .fil7 {fill:#031C63}
    .fil4 {fill:#0A1D5C}
    .fil9 {fill:#0C235C}
    .fil11 {fill:#112661}
    .fil5 {fill:#13285E}
    .fil8 {fill:#152962}
    .fil3 {fill:#16275F}
    .fil0 {fill:#16285E}
    .fil10 {fill:#1A2C62}
    .fil2 {fill:#575758}
    .fil1 {fill:#585859}
   ]]>
  </style>
 </defs>
 <g id="Layer_x0020_1">
  <metadata id="CorelCorpID_0Corel-Layer"/>
  <g id="_2906662700128">
   <path class="fil0" d="M3041.91 5726.13l242.2 -1.24c8.82,57.1 8.03,834.96 -0.96,867.23l-238.16 0.95 -3.09 -866.94zm-374.76 248.19l251.18 -0.44c1.71,88.17 9.85,569.58 -5.14,619.39l-241.49 -0.22c-13.92,-44.13 -6.69,-535.56 -4.55,-618.73zm-369.08 246.15l244.94 -2.52c2.9,58.84 7.61,333.88 -3.33,374.58l-238.7 0.48 -2.92 -372.54zm1236.02 -742.87c-99.59,-3.82 -207.68,-0.01 -308.3,-0.01 -88.78,0 -223.97,18.93 -275.94,-36.67 -72.56,-77.64 -3.37,-449.57 -35.96,-582.17 -220.3,-12.98 -486.8,-2.18 -711.52,-0.89 -136.01,0.78 -154.55,70.56 -154.44,199.47l-0 1423.28c0,427.55 -69.63,355.76 712.8,355.76 95.63,0 660.37,9.43 703.87,-8.38 16.39,-6.71 33.89,-22.04 46.96,-38.91 14.37,-18.54 24.28,-40.23 26.41,-68.26 7.72,-101.78 0.14,-739.74 0.14,-889.96 0,-78.67 9.8,-289.99 -4.02,-353.25z"/>
   <path class="fil1" d="M5623.2 5982.94c35.96,3 87.88,7.01 115.61,-3.59 15.9,-50.08 3.94,-263.67 2.06,-330.98 39.96,42.68 93.4,211.6 131.31,279.52l81.88 4.46c44.98,-48.66 90.65,-224.01 135.93,-284.79l1.83 336.37 117.03 0.04c8.7,-35.84 10.49,-497.73 -2.34,-535.93l-135.78 -0.46c-15.01,5.72 -33.51,56.89 -43.46,77.27 -24.43,50.04 -87.03,207.65 -111.91,233.91 -25.38,-27.59 -111.66,-262.68 -150.89,-310.74l-138.59 -0.08c-12.45,33.24 -10.37,496.87 -2.68,535z"/>
   <path class="fil2" d="M4701.5 5725.78c-12.49,-32.47 -10.62,-135.13 -2.02,-171.03 93.42,1.88 197.3,-19.83 193.18,90.46 -3.59,95.68 -102.4,86.24 -191.16,80.57zm-141.85 257.65l133.97 -0.08 2.5 -149.85 103.11 0.61c38.02,44.37 53.78,108.52 86.42,149.1l146.98 1.12c-4.16,-23.69 -29,-53.67 -50.91,-88.23 -18.36,-28.96 -45.82,-56.96 -51.04,-88.46 31.72,-24.89 37.22,-19.4 57.75,-51.01 16.2,-24.95 27.19,-49.46 31.56,-83.94 10.31,-81.33 -10.8,-130.44 -54.04,-170.84 -42.69,-39.88 -101.3,-52.2 -174.47,-53.61 -56.07,-1.07 -182.75,-6.1 -231.39,2.24l-0.44 532.94z"/>
   <path class="fil2" d="M4108.79 5855.12c-95.84,71.46 -208.02,-27.55 -257.31,-51.3 -20.89,20.23 -49.44,71.16 -53.32,106.88 64.81,36.05 118.11,71.83 218.13,78.65 45.78,3.12 93.02,-3.93 132.02,-18.94 133.44,-51.35 138.63,-209.08 31.44,-271.86 -72.87,-42.67 -128.4,-29.97 -209.21,-89.87 -0.15,-121.81 183.63,-16.52 230.32,-4.43 12.52,-19.57 43.28,-78.86 46.78,-105.65 -72.4,-35.04 -128.99,-61.17 -231.57,-55.01 -208.62,12.51 -260.87,224.48 -86.11,295.65 102.07,41.57 186.75,29.94 178.82,115.88z"/>
   <path class="fil3" d="M3042.03 5350.2c63.8,16.8 394.05,3.59 487.63,5.13 -14.98,-36.31 -89.22,-97.39 -118.57,-127.13 -41.51,-42.07 -78.21,-78.14 -120.2,-119.8l-181.67 -182.31c-38.45,-38.62 -41.04,-49.6 -67.61,-55.24l0.41 479.36z"/>
   <path class="fil1" d="M5108.56 5954.65c1.31,-0.15 3.22,-1.48 3.95,-0.06l43.22 7.72c-16.65,-126.98 -2.89,-76.06 8.85,-80.14 37.76,-13.16 5.72,-20.61 39.37,-25.65l34.48 -10.25c-0.49,-19.56 -5.24,-43.43 -7.17,-52.65l-11.57 -34.19c-6.98,-14.38 -17.45,-40.28 -17.45,-67.87 -0.18,0.56 -31.22,4.14 6.7,10.54l16.59 -2.8c0.99,-2.5 2.2,-8.97 2.51,-7.65 0.29,1.22 1.85,-5.45 2.19,-7.09l2.02 -26.51c1.22,-33.05 -23.88,27.22 1.04,-5.17l-0.33 -62.98c6.74,-27.77 -21.05,-0.17 12.26,-22.03l2.73 -11.05 281.76 -1.49 0.89 -107.11 -417.8 -0.05c-20.7,101.74 -0.28,383.67 -4.23,506.46z"/>
   <path class="fil2" d="M5108.56 5954.65l1.91 28.24 425.06 1.5 2.76 -105.35 -292.51 -0.33 0.23 -109.72 254.9 -0.69 0.66 -101.39c-74.33,-23.61 -178.48,13.23 -256.54,-9.54l0.18 -89.49c-33.31,21.86 -5.53,-5.74 -12.26,22.03l0.33 62.98c-24.91,32.39 0.19,-27.88 -1.04,5.17l-2.02 26.51c-0.33,1.64 -1.9,8.31 -2.19,7.09 -0.31,-1.33 -1.52,5.15 -2.51,7.65l-16.59 2.8c-37.92,-6.4 -6.88,-9.98 -6.7,-10.54 0,27.59 10.47,53.49 17.45,67.87l11.57 34.19c1.93,9.22 6.67,33.09 7.17,52.65l-34.48 10.25c-33.65,5.04 -1.61,12.49 -39.37,25.65 -11.74,4.08 -25.5,-46.84 -8.85,80.14l-43.22 -7.72c-0.73,-1.42 -2.64,-0.09 -3.95,0.06z"/>
   <path class="fil1" d="M4323.99 5980.25l131.97 4.21 3.2 -535.17 -132.76 -0.89c-10.15,33.13 -8.85,479.8 -2.42,531.85z"/>
   <path class="fil4" d="M5017.07 6466.53c-12.18,-65.39 1.62,-95.18 70.1,-85.21 30.39,33.89 27.67,64.79 7.71,99.56 -38.43,10.29 -49.49,11.25 -77.81,-14.35zm116.56 -1.39c42.8,-102.32 -104.82,-156.44 -144.93,-65.94 -46.44,104.81 106.52,157.8 144.93,65.94z"/>
   <path class="fil5" d="M4349.09 6465.56c-0.17,-19.61 -0.03,-35.3 1.21,-54.95 21.02,15.68 33.26,34.76 50.56,57.7 39.64,52.58 32.4,42.04 53.55,39.66 3.79,-26.63 1.95,-54.16 2.12,-81.52 0.55,-88.26 3.05,-59.98 -13.84,-73.12 -22.04,20.7 -11.95,67.03 -11.8,98.33 -19.7,-9.75 -4.27,3.25 -21.93,-14.92 -8.65,-8.9 -0.79,-2.18 -9.65,-13.84 -6.96,-9.17 -13.2,-15.5 -20.78,-25.19 -18.32,-23.4 -19.44,-36.07 -54.69,-43.57 -1.04,29.5 -0.3,58.34 -0.6,87.8 -0.66,62.56 -6.38,49.92 10.93,69.25 23.16,-12.54 15.23,-11.12 14.92,-45.65z"/>
   <path class="fil4" d="M3826.34 6445.42c82.27,-16.3 76.25,58.39 -1.2,39.22l1.2 -39.22zm5.25 -65.15c21.87,-9.02 34.19,-6.12 47.87,15.25 -8.44,32.08 -13.17,29.24 -52.01,25.72 -4.17,-22.06 -6.45,-23.45 4.15,-40.97zm59.07 46.19c1.42,-10.33 76.06,-83.91 -94.33,-70.81l2.65 154.59c84.93,2.48 139.09,-7.08 91.68,-83.78z"/>
   <path class="fil4" d="M5231.51 6481.4c-11.47,-21.61 -24.23,-66.81 -2.76,-90.26 11.67,-12.73 28.09,-14.79 50.62,-11.99 12.99,1.62 16.09,5.02 25.59,5.43 13.3,0.57 8.39,-1.17 15.74,-4.53 -16.85,-37.61 -64.22,-30.34 -90.69,-18.69 -95.88,42.2 -18.24,211.6 94.7,132.37l-0.54 -58.82 -50.46 0.68c11.67,33.21 44.89,21 22.95,45.53 -15.7,17.56 -48.31,5.09 -65.15,0.28z"/>
   <path class="fil6" d="M5569.17 6433.27c12.58,-33.4 28.69,-46.75 43.92,-78.23 -40.93,1.66 -44.09,29.22 -60.9,55.44 -34.39,-28.71 -15.44,-45.91 -71.88,-56.31l45.59 72.29c-12.35,39.82 -33.12,50.23 -46.79,85.55 40.95,-4.5 43.74,-29.18 62.69,-62.43 35.8,29.74 26.06,60.78 71.02,61.06 -3,-26.95 -3.49,-17.29 -19.81,-41 -9.48,-13.77 -17.55,-26.12 -23.83,-36.37z"/>
   <path class="fil7" d="M4712.28 6377.52c32.01,-1.17 54.74,8.93 71.77,-12.94 -22.64,-16.49 -67.03,-12.32 -100.49,-7.84l1.36 152.85c63.17,5.41 85.95,8.71 98.94,-13.52 -23.23,-13.64 -39.99,-7.39 -71.54,-8.19l2.09 -43.78c6.51,-0.34 26.95,-0.18 30.83,-0.71 27.84,-3.85 7.46,1.72 23.68,-9.21 -15.48,-21.68 -25.65,-13.13 -56.93,-11.95l0.3 -44.72z"/>
   <path class="fil8" d="M4585.16 6381.84c36.8,-7.79 31.93,5.59 47.81,-17.26 -21.23,-19.35 -104.13,-18.61 -125.95,0 11.61,20.05 -6.02,3.81 21.02,12.77l20.29 6.85c1.29,-1.97 4.3,2.27 6.34,3.59 4.33,121.83 -17.33,119.99 29.97,122.65l0.52 -128.59z"/>
   <path class="fil9" d="M4031.88 6510.18c17.55,-24.63 -0.4,-42.48 22.43,-84.33 13.56,-24.86 29.72,-44.25 38.56,-69.71 -46.9,-2.44 -28.47,11.87 -56.81,51.52l-7.69 8.52c-0.57,-1.26 -2.84,2.69 -4.24,4.04 -30.37,-38.18 -15.94,-58.53 -65.96,-67.62 12.28,38.52 29.07,49.69 44.19,80.25 22.94,46.37 -12.53,69.26 29.52,77.34z"/>
   <path class="fil4" d="M4844.1 6510.6c18.16,0.03 38.83,0.73 56.69,0.2 38.67,-1.17 24.02,6.8 35.14,-14.33 -22.01,-18.78 -10.98,-5.32 -64.87,-11.17l0.34 -105.59c-5.53,-41.89 -0.06,-10.23 -10.17,-25.83 -24.06,10.45 -16.87,-17.95 -20.08,33.09 -0.46,7.24 1.03,30.15 1.12,39.5 0.27,28.11 -1.37,56.51 1.83,84.14z"/>
   <path class="fil10" d="M4241.16 6352.96c-19.63,12.79 -14.58,-7.94 -16.69,34.17 -1.36,27.17 -1.41,107.23 8.94,123.56 36.06,-5.98 22.12,-35.02 22.25,-76.48 0.26,-85.22 7.15,-64.97 -14.5,-81.25z"/>
   <path class="fil11" d="M5411.55 6353.56c-23.69,10.78 -16.89,-16.72 -20.21,33.43 -0.73,11.01 1.28,34.3 1.27,47.22 -0.02,97.17 -6.17,68.21 18.94,76.92 16.9,-19.43 10.62,-38.22 10.69,-76.92 0.02,-13 1.34,-35.04 0.46,-46.84l-7.2 -27.89c-0.43,-3.65 -2.61,-3.96 -3.94,-5.92z"/>
  </g>
 </g>
</svg>
