<?xml version="1.0" encoding="UTF-8"?>
<!DOCTYPE svg PUBLIC "-//W3C//DTD SVG 1.1//EN" "http://www.w3.org/Graphics/SVG/1.1/DTD/svg11.dtd">
<!-- Creator: CorelDRAW 2021 (64-Bit) -->
<svg xmlns="http://www.w3.org/2000/svg" xml:space="preserve" width="8.26772in" height="11.6929in" version="1.1" style="shape-rendering:geometricPrecision; text-rendering:geometricPrecision; image-rendering:optimizeQuality; fill-rule:evenodd; clip-rule:evenodd"
viewBox="0 0 8267.72 11692.91"
 xmlns:xlink="http://www.w3.org/1999/xlink"
 xmlns:xodm="http://www.corel.com/coreldraw/odm/2003">
 <defs>
  <style type="text/css">
   <![CDATA[
    .fil0 {fill:white}
   ]]>
  </style>
 </defs>
 <g id="Layer_x0020_1">
  <metadata id="CorelCorpID_0Corel-Layer"/>
  <g id="_1811299922208">
   <path class="fil0" d="M1868.65 4339.78c4.4,4.24 10.56,10.84 18.73,16 63.79,40.24 36.44,32.91 65.16,52.89l61.73 49.38c22.14,19.15 7.67,5.49 25.62,16.05 31.75,18.67 118.5,99.04 138.78,111.22 38.82,23.31 9.41,15.24 37.2,25.3 331.96,-419.1 538.7,-616.13 1027.38,-847.62 146.86,-69.57 477.65,-147.89 653.13,-166.31 41.09,-4.31 72.33,5.18 115.75,-2.3 160.98,-27.73 167.4,-2.99 329.48,1.6 30.44,0.86 71.82,10.19 103.11,14.95 130.73,19.91 260.43,44.81 386.45,85.77 193,62.72 458.06,194.81 619.02,318.48 171.61,131.85 351.77,282.25 475.19,462.31 63.62,92.81 134.51,177.35 184.39,280.89 51.95,107.83 110.33,210.89 146.35,325.88 108.97,347.92 126.42,451.96 126.42,818.03 -24.87,-9.39 -75.51,-68.56 -97.22,-90.28l-121.56 -121.5c-36.54,-28.36 -1.88,11.93 -79.83,-66 -31.87,-31.86 -68.26,-67.16 -97.22,-97.22 -20.43,21.2 -142.42,136.52 -157.36,162.09 -11.76,20.15 4.58,-0.5 -12.81,21.91 -7.54,9.71 -11.17,11.54 -20.77,20.9l-121.56 121.49c31.05,30.4 77.33,77.22 114.59,114.58 67.79,67.98 35.21,21.31 125,111.11 51.5,51.5 184.44,198.21 233.19,232.08 70.42,48.93 49.68,36.91 120.97,108.2 39.37,39.37 78.69,78.68 118.06,118.05 19.69,19.69 39.49,39.22 58.91,59.15 32.32,33.16 36.04,21.05 66.29,51.76l100.26 101.13c43.64,37.59 59.55,-3.99 146.06,-90.5l750 -750c80.15,-80.13 86.4,-38.56 -100.72,-225.67l-118 -118.11c-31.33,-31.68 -44.93,-58.94 -70.87,-15.25 -26.85,45.23 -28,37.67 -71.52,81.25 -8.42,8.43 -14.81,15.2 -24.09,24.52l-18.42 16.31c-1.22,0.86 -3.06,1.81 -4.3,2.64 -1.25,0.84 -3.15,1.72 -4.38,2.56 -17.28,11.83 -12.97,9.78 -23.4,25.22 -12.93,19.14 -107.06,115.04 -129.28,127.66 -48.35,27.47 -16.3,16.59 -45.92,51.31 -13.68,16.04 -36.76,41.22 -55.77,48.4 0,-370.67 -36.76,-617.11 -149,-969.06 -167.19,-524.23 -523.04,-955.95 -946.16,-1289.95 -204.82,-161.69 -489.49,-302.39 -734.38,-390.62 -141.18,-50.86 -299.19,-83.85 -446.94,-108.61 -81.1,-13.59 -162.62,-25.11 -244.69,-33.09 -80.44,-7.81 -198.7,0.53 -283.69,0.11 -628.5,-3.08 -1322.02,298.66 -1778.34,742.74 -170.33,165.76 -187.86,187.6 -331.87,369.52 -23.41,29.58 -55.44,53.78 -57.15,88.69z"/>
   <path class="fil0" d="M701.98 5860.62c33.8,0.74 48.3,27.43 86.83,65.95 13.91,13.91 25.11,25.19 38.28,38.11l22.52 26.09c22.28,32.99 83,60.07 148.55,157.01 24.9,36.81 34.78,14.05 71.88,-23.26 16.17,-16.25 32.41,-32.41 48.61,-48.62l239.6 -239.56c22.62,-22.68 31.16,-37.58 52.07,-45.16 14.63,104.63 7.96,165.72 13.1,264.68 9.56,184.18 84.48,523.04 144.69,688.65 102.17,281.04 218.25,485.33 390.65,727.41 387.36,543.95 1078.56,956.09 1740.27,1051.4 81.8,11.78 163.96,23.42 246.35,31.42 83.02,8.07 196.7,-1.76 284.17,0.12 320.33,6.87 632.8,-93.01 923.84,-194.22 291.85,-101.5 795.29,-445.79 988.94,-684.67 41.6,-51.32 239.22,-273.79 254.7,-308.99 -75.07,-41.24 -43.48,-39.8 -84.48,-68.29l-61.73 -49.38c-32.18,-27.83 -0.29,9.72 -65.9,-52.15 -26.49,-24.98 -20.44,-8.96 -45.63,-30.75l-65.41 -52.65c-27.35,-19.81 4,-6.63 -24.65,-17.01 -40.78,7.61 -80.67,86.52 -111.04,118.12 -28.17,29.31 -81.38,96.17 -105.97,130.14 -64.99,89.74 -162.06,155.66 -241.33,230.89 -156.53,148.56 -393.43,268.1 -588.55,355.89 -174.61,78.56 -363.19,122.1 -551.61,149.78 -31.61,4.64 -71.39,13.56 -102.2,15.85 -42.65,3.17 -69.23,-5.89 -115.3,2.83 -84.62,16.02 -130.47,15.79 -214.99,-0.21 -42.78,-8.1 -74.14,1.04 -114.33,-3.8 -399.12,-48.04 -778.44,-179.68 -1104.93,-422.85 -404.37,-301.17 -617.94,-609.32 -803.4,-1078.54 -97.63,-247.01 -126.9,-554.69 -126.9,-817.55 25.27,9.54 77.46,70.47 100.72,93.73 41.7,41.7 104.1,115.68 153.87,144.75 23.67,13.82 140.34,135.05 155.14,150.41 23.56,-24.46 52.6,-52.56 79.88,-79.84 13.87,-13.87 25.21,-25.32 38.18,-38.21 6.85,-6.81 14.51,-13.84 21.12,-20.55 16.85,-17.1 17.7,-32.13 93.48,-107.91 27.28,-27.28 55.38,-56.31 79.84,-79.88l-142.06 -142.67c-33.07,-30.85 -8.03,6.48 -97.53,-83.02 -51.5,-51.5 -184.44,-198.21 -233.19,-232.08 -21.78,-15.13 -9.57,0.18 -34.39,-21.17l-289.32 -287.07c-18.87,-11.84 -13.42,-2 -37.13,-25.37 -105.67,-104.13 -112.02,-140.14 -152.81,-98.03 -87.37,90.2 -392.72,403.26 -439.77,435.44 -13.46,9.21 -7.32,2.98 -15.34,12.44l-96.46 104.93c-39.57,40.16 -33.83,7.26 -61.7,56.35 -11.51,20.28 -37.26,42.2 -56.56,61.5l-177.06 177.11c-68.91,70.07 -54.33,3.3 -55.58,62.48z"/>
  </g>
 </g>
</svg>
