<?xml version="1.0" encoding="UTF-8"?>
<!DOCTYPE svg PUBLIC "-//W3C//DTD SVG 1.1//EN" "http://www.w3.org/Graphics/SVG/1.1/DTD/svg11.dtd">
<!-- Creator: CorelDRAW 2021 (64-Bit) -->
<svg xmlns="http://www.w3.org/2000/svg" xml:space="preserve" width="8.26772in" height="11.6929in" version="1.1" style="shape-rendering:geometricPrecision; text-rendering:geometricPrecision; image-rendering:optimizeQuality; fill-rule:evenodd; clip-rule:evenodd"
viewBox="0 0 8267.72 11692.91"
 xmlns:xlink="http://www.w3.org/1999/xlink"
 xmlns:xodm="http://www.corel.com/coreldraw/odm/2003">
 <defs>
  <style type="text/css">
   <![CDATA[
    .fil0 {fill:white}
   ]]>
  </style>
 </defs>
 <g id="Layer_x0020_1">
  <metadata id="CorelCorpID_0Corel-Layer"/>
  <g id="_2894448415152">
   <path class="fil0" d="M3886.84 7188.15l18.39 -2041.59c-38.65,14.62 -386.37,372.59 -448.37,433.48 -7.52,7.38 -430.46,433.67 -448.37,433.48 -16.72,-0.17 -240.88,-238.7 -268.47,-266.29 -3.37,-3.37 -13.96,-13.42 -17.48,-17.25 -32.42,-35.34 -18.84,-29.91 21.75,-69.55l1341.78 -1317.83c48.02,-47.22 40.68,-56.73 73.61,-24.09l154.37 158.11c58.5,59.57 116.91,119.04 175.48,178.68l1029.14 1047.17c24.5,24.34 30.93,21.38 6.39,49.22 -4.64,5.27 -15.63,15.06 -21.22,20.45l-231.22 227.09c-52.42,52.42 -29.04,54.53 -152.17,-70.84 -124.71,-126.98 -739.35,-765.26 -770.81,-777.81l-18.39 2041.59 1994.75 19.76c73.65,0.29 169.27,-0.76 206.88,-76.69 36.31,-73.3 25.15,-442.36 26.13,-548.04l30.12 -3415.88c1.48,-170.82 59.83,-383.95 -162.87,-404.42 -89.44,-8.22 -192.76,-0.87 -284.6,-2.69 -652.07,-12.87 -1338.85,-12.44 -1992.59,-18.33 -653.74,-5.89 -1340.4,-18.69 -1992.59,-17.57 -91.86,0.16 -195.03,-9.06 -284.6,-2.44 -223.03,16.45 -168.53,230.6 -170.13,401.42l-31.42 3415.87c-0.93,105.68 -18.73,474.47 16.25,548.42 36.24,76.59 131.82,79.36 205.46,80.4l1994.79 16.18z"/>
   <polygon class="fil0" points="4331.26,7192.15 3886.84,7188.15 3870.83,8965.85 4315.25,8969.85 "/>
  </g>
 </g>
</svg>
