<?xml version="1.0" encoding="UTF-8"?>
<!DOCTYPE svg PUBLIC "-//W3C//DTD SVG 1.1//EN" "http://www.w3.org/Graphics/SVG/1.1/DTD/svg11.dtd">
<!-- Creator: CorelDRAW 2021 (64-Bit) -->
<svg xmlns="http://www.w3.org/2000/svg" xml:space="preserve" width="8.26772in" height="11.6929in" version="1.1" style="shape-rendering:geometricPrecision; text-rendering:geometricPrecision; image-rendering:optimizeQuality; fill-rule:evenodd; clip-rule:evenodd"
viewBox="0 0 8267.72 11692.91"
 xmlns:xlink="http://www.w3.org/1999/xlink"
 xmlns:xodm="http://www.corel.com/coreldraw/odm/2003">
 <defs>
  <style type="text/css">
   <![CDATA[
    .fil1 {fill:black;fill-rule:nonzero}
    .fil0 {fill:#F0C419;fill-rule:nonzero}
   ]]>
  </style>
 </defs>
 <g id="Layer_x0020_1">
  <metadata id="CorelCorpID_0Corel-Layer"/>
  <g id="_1748748084352">
   <path class="fil0" d="M6672.79 9029.28l-5083.59 0c-348.89,0 -672.96,-180.65 -856.37,-477.48 -183.46,-296.78 -200.15,-667.38 -44.09,-979.48l2541.8 -4351.76c170.57,-341.03 519.13,-556.5 900.45,-556.5 381.33,0 729.89,215.47 900.46,556.5l2541.8 4351.76c156.05,312.11 139.37,682.71 -44.09,979.48 -183.41,296.83 -507.43,477.48 -856.37,477.48zm0 0z"/>
   <path class="fil0" d="M6673.38 9029.28l-2542.39 0 0 -6365.22c382.25,-2.38 732.22,213.96 900.94,556.99l2541.15 4351.59c156.27,311.89 139.8,682.49 -43.5,979.27 -183.35,296.83 -507.32,477.47 -856.2,477.37zm0 0z"/>
   <path class="fil1" d="M4620.65 7927.6c0,270.45 -219.26,489.66 -489.66,489.66 -270.39,0 -489.6,-219.21 -489.6,-489.66 0,-270.4 219.21,-489.61 489.6,-489.61 270.4,0 489.66,219.21 489.66,489.61zm0 0z"/>
   <path class="fil1" d="M4620.65 7927.6c0,129.89 -51.57,254.42 -143.38,346.28 -91.87,91.81 -216.39,143.38 -346.28,143.38l0 -979.27c129.89,-0.06 254.42,51.51 346.28,143.38 91.81,91.81 143.38,216.39 143.38,346.23zm0 0z"/>
   <path class="fil1" d="M4130.99 3643.33c270.4,0 489.66,219.21 489.66,489.66l0 2325.73c0,270.4 -219.26,489.61 -489.66,489.61 -270.39,0 -489.6,-219.21 -489.6,-489.61l0 -2325.73c0,-270.45 219.21,-489.66 489.6,-489.66zm0 0z"/>
   <path class="fil1" d="M4620.65 4132.99l0 2325.73c0,129.89 -51.57,254.42 -143.38,346.23 -91.87,91.87 -216.39,143.43 -346.28,143.38l0 -3305c129.89,-0.16 254.58,51.35 346.44,143.22 91.81,91.87 143.38,216.5 143.22,346.44zm0 0z"/>
  </g>
 </g>
</svg>
