<?xml version="1.0" encoding="UTF-8"?>
<!DOCTYPE svg PUBLIC "-//W3C//DTD SVG 1.1//EN" "http://www.w3.org/Graphics/SVG/1.1/DTD/svg11.dtd">
<!-- Creator: CorelDRAW 2021 (64-Bit) -->
<svg xmlns="http://www.w3.org/2000/svg" xml:space="preserve" width="8.26772in" height="11.6929in" version="1.1" style="shape-rendering:geometricPrecision; text-rendering:geometricPrecision; image-rendering:optimizeQuality; fill-rule:evenodd; clip-rule:evenodd"
viewBox="0 0 8267.72 11692.91"
 xmlns:xlink="http://www.w3.org/1999/xlink"
 xmlns:xodm="http://www.corel.com/coreldraw/odm/2003">
 <defs>
  <style type="text/css">
   <![CDATA[
    .fil0 {fill:#17285E;fill-rule:nonzero}
   ]]>
  </style>
 </defs>
 <g id="Layer_x0020_1">
  <metadata id="CorelCorpID_0Corel-Layer"/>
  <g id="_2858663046288">
   <g>
    <path class="fil0" d="M7907.51 9518.85l-2370.02 -2464.76c586.76,-565.35 952.87,-1358.1 952.87,-2235.35 0,-1712.61 -1393.3,-3105.95 -3105.95,-3105.95 -1712.65,0 -3105.94,1393.3 -3105.94,3105.95 0,1712.61 1393.3,3105.95 3105.95,3105.95 638.93,0 1233.36,-194.11 1727.67,-526.22l2402.34 2498.39c53.56,55.66 125.03,83.69 196.58,83.69 67.99,0 136.08,-25.27 188.94,-76.13 108.56,-104.42 111.94,-277.04 7.56,-385.57zm-7083.69 -4700.11c0,-1411.91 1148.69,-2560.6 2560.6,-2560.6 1411.91,0 2560.6,1148.69 2560.6,2560.6 0,1411.91 -1148.69,2560.6 -2560.6,2560.6 -1411.91,-0.04 -2560.6,-1148.69 -2560.6,-2560.6z"/>
    <path class="fil0" d="M4774.98 4546.06l-1117.89 0 0 -1117.89c0,-150.63 -122.05,-272.67 -272.67,-272.67 -150.63,0 -272.67,122.05 -272.67,272.67l-0 1117.89 -1117.93 0c-150.63,0 -272.67,122.05 -272.67,272.67 0,150.62 122.05,272.67 272.67,272.67l1117.89 0 0 1117.93c0,150.63 122.05,272.67 272.67,272.67 150.63,0 272.67,-122.05 272.67,-272.67l0 -1117.93 1117.89 0c150.63,0 272.67,-122.05 272.67,-272.67 0,-150.62 -122.05,-272.68 -272.64,-272.68z"/>
   </g>
   <g>
   </g>
   <g>
   </g>
   <g>
   </g>
   <g>
   </g>
   <g>
   </g>
   <g>
   </g>
   <g>
   </g>
   <g>
   </g>
   <g>
   </g>
   <g>
   </g>
   <g>
   </g>
   <g>
   </g>
   <g>
   </g>
   <g>
   </g>
   <g>
   </g>
  </g>
 </g>
</svg>
