<?xml version="1.0" encoding="UTF-8"?>
<!DOCTYPE svg PUBLIC "-//W3C//DTD SVG 1.1//EN" "http://www.w3.org/Graphics/SVG/1.1/DTD/svg11.dtd">
<!-- Creator: CorelDRAW 2021 (64-Bit) -->
<svg xmlns="http://www.w3.org/2000/svg" xml:space="preserve" width="8.26772in" height="11.6929in" version="1.1" style="shape-rendering:geometricPrecision; text-rendering:geometricPrecision; image-rendering:optimizeQuality; fill-rule:evenodd; clip-rule:evenodd"
viewBox="0 0 8267.72 11692.91"
 xmlns:xlink="http://www.w3.org/1999/xlink"
 xmlns:xodm="http://www.corel.com/coreldraw/odm/2003">
 <defs>
  <style type="text/css">
   <![CDATA[
    .fil0 {fill:#17285E;fill-rule:nonzero}
   ]]>
  </style>
 </defs>
 <g id="Layer_x0020_1">
  <metadata id="CorelCorpID_0Corel-Layer"/>
  <g id="_2858661443408">
   <g>
    <path class="fil0" d="M7935.49 8856.17l-2370.02 -2464.72c586.76,-565.35 952.87,-1358.14 952.87,-2235.38 0,-1712.65 -1393.33,-3105.95 -3105.91,-3105.95 -1712.65,0 -3105.95,1393.3 -3105.95,3105.95 0,1712.61 1393.3,3105.94 3105.95,3105.94 638.93,0 1233.29,-194.11 1727.59,-526.19l2402.37 2498.35c53.56,55.66 125.03,83.69 196.58,83.69 67.99,0 136.08,-25.27 188.94,-76.13 108.56,-104.42 111.94,-277.04 7.56,-385.57zm-7083.65 -4700.11c0,-1411.91 1148.69,-2560.6 2560.6,-2560.6 1411.91,0 2560.56,1148.69 2560.56,2560.6 0,1411.91 -1148.65,2560.59 -2560.56,2560.59 -1411.91,-0.04 -2560.6,-1148.69 -2560.6,-2560.59z"/>
    <path class="fil0" d="M4802.96 3883.39l-2781.1 0c-150.63,0 -272.67,122.05 -272.67,272.67 0,150.62 122.05,272.67 272.67,272.67l2781.1 0c150.63,0 272.67,-122.05 272.67,-272.67 0,-150.62 -122.05,-272.68 -272.67,-272.68z"/>
   </g>
   <g>
   </g>
   <g>
   </g>
   <g>
   </g>
   <g>
   </g>
   <g>
   </g>
   <g>
   </g>
   <g>
   </g>
   <g>
   </g>
   <g>
   </g>
   <g>
   </g>
   <g>
   </g>
   <g>
   </g>
   <g>
   </g>
   <g>
   </g>
   <g>
   </g>
  </g>
 </g>
</svg>
